solid 
   facet normal 0.000000e+000 0.000000e+000 1.000000e+000
      outer loop
         vertex 1.779837e+000 -1.293128e+000 4.000000e+000
         vertex 2.200000e+000 -2.694223e-016 4.000000e+000
         vertex -6.798374e-001 -2.092324e+000 4.000000e+000
      endloop
   endfacet
   facet normal 0.000000e+000 0.000000e+000 1.000000e+000
      outer loop
         vertex 1.779837e+000 1.293128e+000 4.000000e+000
         vertex 6.798374e-001 2.092324e+000 4.000000e+000
         vertex 2.200000e+000 -2.694223e-016 4.000000e+000
      endloop
   endfacet
   facet normal 0.000000e+000 0.000000e+000 1.000000e+000
      outer loop
         vertex -1.779837e+000 1.293128e+000 4.000000e+000
         vertex -2.200000e+000 2.694223e-016 4.000000e+000
         vertex 6.798374e-001 2.092324e+000 4.000000e+000
      endloop
   endfacet
   facet normal 0.000000e+000 -0.000000e+000 1.000000e+000
      outer loop
         vertex -1.779837e+000 -1.293128e+000 4.000000e+000
         vertex -6.798374e-001 -2.092324e+000 4.000000e+000
         vertex 6.798374e-001 2.092324e+000 4.000000e+000
      endloop
   endfacet
   facet normal 0.000000e+000 0.000000e+000 1.000000e+000
      outer loop
         vertex 6.798374e-001 -2.092324e+000 4.000000e+000
         vertex 1.779837e+000 -1.293128e+000 4.000000e+000
         vertex -6.798374e-001 -2.092324e+000 4.000000e+000
      endloop
   endfacet
   facet normal 0.000000e+000 0.000000e+000 1.000000e+000
      outer loop
         vertex -1.779837e+000 1.293128e+000 4.000000e+000
         vertex 6.798374e-001 2.092324e+000 4.000000e+000
         vertex -6.798374e-001 2.092324e+000 4.000000e+000
      endloop
   endfacet
   facet normal 0.000000e+000 -0.000000e+000 1.000000e+000
      outer loop
         vertex -2.200000e+000 2.694223e-016 4.000000e+000
         vertex -1.779837e+000 -1.293128e+000 4.000000e+000
         vertex 6.798374e-001 2.092324e+000 4.000000e+000
      endloop
   endfacet
   facet normal 0.000000e+000 0.000000e+000 1.000000e+000
      outer loop
         vertex 2.200000e+000 -2.694223e-016 4.000000e+000
         vertex 6.798374e-001 2.092324e+000 4.000000e+000
         vertex -6.798374e-001 -2.092324e+000 4.000000e+000
      endloop
   endfacet
   facet normal 9.594929e-001 -2.817327e-001 -3.620976e-016
      outer loop
         vertex 2.400000e+000 0.000000e+000 0.000000e+000
         vertex 2.400000e+000 -2.939152e-016 2.286829e-001
         vertex 2.019008e+000 -1.297538e+000 2.286829e-001
      endloop
   endfacet
   facet normal 1.423149e-001 -9.898214e-001 0.000000e+000
      outer loop
         vertex 9.969960e-001 -2.183117e+000 2.286829e-001
         vertex -3.415556e-001 -2.375571e+000 2.286829e-001
         vertex 9.969960e-001 -2.183117e+000 0.000000e+000
      endloop
   endfacet
   facet normal -8.412535e-001 -5.406409e-001 -0.000000e+000
      outer loop
         vertex -1.571666e+000 -1.813799e+000 2.286829e-001
         vertex -2.302783e+000 -6.761581e-001 2.286829e-001
         vertex -2.302783e+000 -6.761581e-001 0.000000e+000
      endloop
   endfacet
   facet normal -8.412535e-001 5.406409e-001 0.000000e+000
      outer loop
         vertex -2.302783e+000 6.761581e-001 2.286829e-001
         vertex -1.571666e+000 1.813799e+000 2.286829e-001
         vertex -1.571666e+000 1.813799e+000 0.000000e+000
      endloop
   endfacet
   facet normal 1.423149e-001 9.898214e-001 0.000000e+000
      outer loop
         vertex -3.415556e-001 2.375571e+000 2.286829e-001
         vertex 9.969960e-001 2.183117e+000 2.286829e-001
         vertex -3.415556e-001 2.375571e+000 0.000000e+000
      endloop
   endfacet
   facet normal 9.594929e-001 2.817327e-001 3.620976e-016
      outer loop
         vertex 2.019008e+000 1.297538e+000 2.286829e-001
         vertex 2.400000e+000 -2.939152e-016 2.286829e-001
         vertex 2.400000e+000 0.000000e+000 0.000000e+000
      endloop
   endfacet
   facet normal 6.548607e-001 7.557496e-001 -0.000000e+000
      outer loop
         vertex 2.019008e+000 1.297538e+000 0.000000e+000
         vertex 9.969960e-001 2.183117e+000 0.000000e+000
         vertex 9.969960e-001 2.183117e+000 2.286829e-001
      endloop
   endfacet
   facet normal -4.154150e-001 9.096320e-001 0.000000e+000
      outer loop
         vertex -3.415556e-001 2.375571e+000 0.000000e+000
         vertex -1.571666e+000 1.813799e+000 0.000000e+000
         vertex -3.415556e-001 2.375571e+000 2.286829e-001
      endloop
   endfacet
   facet normal -1.000000e+000 0.000000e+000 0.000000e+000
      outer loop
         vertex -2.302783e+000 6.761581e-001 0.000000e+000
         vertex -2.302783e+000 -6.761581e-001 0.000000e+000
         vertex -2.302783e+000 -6.761581e-001 2.286829e-001
      endloop
   endfacet
   facet normal -4.154150e-001 -9.096320e-001 0.000000e+000
      outer loop
         vertex -1.571666e+000 -1.813799e+000 0.000000e+000
         vertex -3.415556e-001 -2.375571e+000 0.000000e+000
         vertex -1.571666e+000 -1.813799e+000 2.286829e-001
      endloop
   endfacet
   facet normal 6.548607e-001 -7.557496e-001 0.000000e+000
      outer loop
         vertex 9.969960e-001 -2.183117e+000 0.000000e+000
         vertex 2.019008e+000 -1.297538e+000 0.000000e+000
         vertex 9.969960e-001 -2.183117e+000 2.286829e-001
      endloop
   endfacet
   facet normal 9.594929e-001 -2.817327e-001 0.000000e+000
      outer loop
         vertex 2.400000e+000 0.000000e+000 0.000000e+000
         vertex 2.019008e+000 -1.297538e+000 2.286829e-001
         vertex 2.019008e+000 -1.297538e+000 0.000000e+000
      endloop
   endfacet
   facet normal -8.412535e-001 5.406409e-001 0.000000e+000
      outer loop
         vertex -2.302783e+000 6.761581e-001 2.286829e-001
         vertex -1.571666e+000 1.813799e+000 0.000000e+000
         vertex -2.302783e+000 6.761581e-001 0.000000e+000
      endloop
   endfacet
   facet normal 9.594929e-001 2.817327e-001 0.000000e+000
      outer loop
         vertex 2.019008e+000 1.297538e+000 2.286829e-001
         vertex 2.400000e+000 0.000000e+000 0.000000e+000
         vertex 2.019008e+000 1.297538e+000 0.000000e+000
      endloop
   endfacet
   facet normal -4.154150e-001 9.096320e-001 0.000000e+000
      outer loop
         vertex -3.415556e-001 2.375571e+000 2.286829e-001
         vertex -1.571666e+000 1.813799e+000 0.000000e+000
         vertex -1.571666e+000 1.813799e+000 2.286829e-001
      endloop
   endfacet
   facet normal 6.548607e-001 -7.557496e-001 0.000000e+000
      outer loop
         vertex 9.969960e-001 -2.183117e+000 2.286829e-001
         vertex 2.019008e+000 -1.297538e+000 0.000000e+000
         vertex 2.019008e+000 -1.297538e+000 2.286829e-001
      endloop
   endfacet
   facet normal -4.154150e-001 -9.096320e-001 0.000000e+000
      outer loop
         vertex -3.415556e-001 -2.375571e+000 2.286829e-001
         vertex -1.571666e+000 -1.813799e+000 2.286829e-001
         vertex -3.415556e-001 -2.375571e+000 0.000000e+000
      endloop
   endfacet
   facet normal 6.548607e-001 7.557496e-001 0.000000e+000
      outer loop
         vertex 9.969960e-001 2.183117e+000 2.286829e-001
         vertex 2.019008e+000 1.297538e+000 2.286829e-001
         vertex 2.019008e+000 1.297538e+000 0.000000e+000
      endloop
   endfacet
   facet normal -8.412535e-001 -5.406409e-001 0.000000e+000
      outer loop
         vertex -2.302783e+000 -6.761581e-001 0.000000e+000
         vertex -1.571666e+000 -1.813799e+000 0.000000e+000
         vertex -1.571666e+000 -1.813799e+000 2.286829e-001
      endloop
   endfacet
   facet normal 1.423149e-001 -9.898214e-001 0.000000e+000
      outer loop
         vertex 9.969960e-001 -2.183117e+000 0.000000e+000
         vertex -3.415556e-001 -2.375571e+000 2.286829e-001
         vertex -3.415556e-001 -2.375571e+000 0.000000e+000
      endloop
   endfacet
   facet normal -1.000000e+000 0.000000e+000 0.000000e+000
      outer loop
         vertex -2.302783e+000 6.761581e-001 0.000000e+000
         vertex -2.302783e+000 -6.761581e-001 2.286829e-001
         vertex -2.302783e+000 6.761581e-001 2.286829e-001
      endloop
   endfacet
   facet normal 1.423149e-001 9.898214e-001 0.000000e+000
      outer loop
         vertex 9.969960e-001 2.183117e+000 0.000000e+000
         vertex -3.415556e-001 2.375571e+000 0.000000e+000
         vertex 9.969960e-001 2.183117e+000 2.286829e-001
      endloop
   endfacet
   facet normal 9.510565e-001 -3.090170e-001 -4.249432e-015
      outer loop
         vertex 1.779837e+000 -1.293128e+000 4.000000e+000
         vertex 2.200000e+000 0.000000e+000 3.980408e+000
         vertex 2.200000e+000 -2.694223e-016 4.000000e+000
      endloop
   endfacet
   facet normal 5.877852e-001 -8.090170e-001 0.000000e+000
      outer loop
         vertex 1.779837e+000 -1.293128e+000 4.000000e+000
         vertex 6.798374e-001 -2.092324e+000 3.980408e+000
         vertex 1.779837e+000 -1.293128e+000 3.980408e+000
      endloop
   endfacet
   facet normal -5.877852e-001 -8.090170e-001 0.000000e+000
      outer loop
         vertex -1.779837e+000 -1.293128e+000 4.000000e+000
         vertex -1.779837e+000 -1.293128e+000 3.980408e+000
         vertex -6.798374e-001 -2.092324e+000 3.980408e+000
      endloop
   endfacet
   facet normal -9.510565e-001 3.090170e-001 0.000000e+000
      outer loop
         vertex -1.779837e+000 1.293128e+000 4.000000e+000
         vertex -1.779837e+000 1.293128e+000 3.980408e+000
         vertex -2.200000e+000 2.694223e-016 3.980408e+000
      endloop
   endfacet
   facet normal 0.000000e+000 1.000000e+000 -0.000000e+000
      outer loop
         vertex 6.798374e-001 2.092324e+000 4.000000e+000
         vertex 6.798374e-001 2.092324e+000 3.980408e+000
         vertex -6.798374e-001 2.092324e+000 3.980408e+000
      endloop
   endfacet
   facet normal 9.510565e-001 3.090170e-001 0.000000e+000
      outer loop
         vertex 1.779837e+000 1.293128e+000 4.000000e+000
         vertex 2.200000e+000 0.000000e+000 3.980408e+000
         vertex 1.779837e+000 1.293128e+000 3.980408e+000
      endloop
   endfacet
   facet normal 9.510565e-001 3.090170e-001 4.167639e-015
      outer loop
         vertex 2.200000e+000 0.000000e+000 3.980408e+000
         vertex 1.779837e+000 1.293128e+000 4.000000e+000
         vertex 2.200000e+000 -2.694223e-016 4.000000e+000
      endloop
   endfacet
   facet normal -5.877852e-001 8.090170e-001 0.000000e+000
      outer loop
         vertex -6.798374e-001 2.092324e+000 3.980408e+000
         vertex -1.779837e+000 1.293128e+000 4.000000e+000
         vertex -6.798374e-001 2.092324e+000 4.000000e+000
      endloop
   endfacet
   facet normal -9.510565e-001 -3.090170e-001 -0.000000e+000
      outer loop
         vertex -1.779837e+000 -1.293128e+000 3.980408e+000
         vertex -1.779837e+000 -1.293128e+000 4.000000e+000
         vertex -2.200000e+000 2.694223e-016 4.000000e+000
      endloop
   endfacet
   facet normal -0.000000e+000 -1.000000e+000 -0.000000e+000
      outer loop
         vertex 6.798374e-001 -2.092324e+000 3.980408e+000
         vertex 6.798374e-001 -2.092324e+000 4.000000e+000
         vertex -6.798374e-001 -2.092324e+000 4.000000e+000
      endloop
   endfacet
   facet normal 9.510565e-001 -3.090170e-001 0.000000e+000
      outer loop
         vertex 1.779837e+000 -1.293128e+000 3.980408e+000
         vertex 2.200000e+000 0.000000e+000 3.980408e+000
         vertex 1.779837e+000 -1.293128e+000 4.000000e+000
      endloop
   endfacet
   facet normal -9.510565e-001 3.090170e-001 0.000000e+000
      outer loop
         vertex -2.200000e+000 2.694223e-016 4.000000e+000
         vertex -1.779837e+000 1.293128e+000 4.000000e+000
         vertex -2.200000e+000 2.694223e-016 3.980408e+000
      endloop
   endfacet
   facet normal 5.877852e-001 8.090170e-001 -0.000000e+000
      outer loop
         vertex 1.779837e+000 1.293128e+000 4.000000e+000
         vertex 6.798374e-001 2.092324e+000 3.980408e+000
         vertex 6.798374e-001 2.092324e+000 4.000000e+000
      endloop
   endfacet
   facet normal -5.877852e-001 8.090170e-001 0.000000e+000
      outer loop
         vertex -1.779837e+000 1.293128e+000 3.980408e+000
         vertex -1.779837e+000 1.293128e+000 4.000000e+000
         vertex -6.798374e-001 2.092324e+000 3.980408e+000
      endloop
   endfacet
   facet normal -9.510565e-001 -3.090170e-001 -0.000000e+000
      outer loop
         vertex -1.779837e+000 -1.293128e+000 3.980408e+000
         vertex -2.200000e+000 2.694223e-016 4.000000e+000
         vertex -2.200000e+000 2.694223e-016 3.980408e+000
      endloop
   endfacet
   facet normal 0.000000e+000 -1.000000e+000 0.000000e+000
      outer loop
         vertex -6.798374e-001 -2.092324e+000 4.000000e+000
         vertex -6.798374e-001 -2.092324e+000 3.980408e+000
         vertex 6.798374e-001 -2.092324e+000 3.980408e+000
      endloop
   endfacet
   facet normal -0.000000e+000 1.000000e+000 0.000000e+000
      outer loop
         vertex -6.798374e-001 2.092324e+000 3.980408e+000
         vertex -6.798374e-001 2.092324e+000 4.000000e+000
         vertex 6.798374e-001 2.092324e+000 4.000000e+000
      endloop
   endfacet
   facet normal 5.877852e-001 -8.090170e-001 0.000000e+000
      outer loop
         vertex 6.798374e-001 -2.092324e+000 3.980408e+000
         vertex 1.779837e+000 -1.293128e+000 4.000000e+000
         vertex 6.798374e-001 -2.092324e+000 4.000000e+000
      endloop
   endfacet
   facet normal 5.877852e-001 8.090170e-001 0.000000e+000
      outer loop
         vertex 6.798374e-001 2.092324e+000 3.980408e+000
         vertex 1.779837e+000 1.293128e+000 4.000000e+000
         vertex 1.779837e+000 1.293128e+000 3.980408e+000
      endloop
   endfacet
   facet normal -5.877852e-001 -8.090170e-001 -0.000000e+000
      outer loop
         vertex -6.798374e-001 -2.092324e+000 3.980408e+000
         vertex -6.798374e-001 -2.092324e+000 4.000000e+000
         vertex -1.779837e+000 -1.293128e+000 4.000000e+000
      endloop
   endfacet
   facet normal 9.582402e-001 2.813649e-001 5.108266e-002
      outer loop
         vertex 2.019008e+000 1.297538e+000 2.286829e-001
         vertex 2.200000e+000 0.000000e+000 3.980408e+000
         vertex 2.400000e+000 -2.939152e-016 2.286829e-001
      endloop
   endfacet
   facet normal 5.863802e-001 8.070831e-001 6.910223e-002
      outer loop
         vertex 9.969960e-001 2.183117e+000 2.286829e-001
         vertex 6.798374e-001 2.092324e+000 3.980408e+000
         vertex 1.779837e+000 1.293128e+000 3.980408e+000
      endloop
   endfacet
   facet normal -5.859290e-001 8.064621e-001 7.941095e-002
      outer loop
         vertex -1.571666e+000 1.813799e+000 2.286829e-001
         vertex -1.779837e+000 1.293128e+000 3.980408e+000
         vertex -6.798374e-001 2.092324e+000 3.980408e+000
      endloop
   endfacet
   facet normal -9.478945e-001 -3.079896e-001 8.147648e-002
      outer loop
         vertex -2.302783e+000 -6.761581e-001 2.286829e-001
         vertex -1.779837e+000 -1.293128e+000 3.980408e+000
         vertex -2.200000e+000 2.694223e-016 3.980408e+000
      endloop
   endfacet
   facet normal 0.000000e+000 -9.971622e-001 7.528362e-002
      outer loop
         vertex -3.415556e-001 -2.375571e+000 2.286829e-001
         vertex 6.798374e-001 -2.092324e+000 3.980408e+000
         vertex -6.798374e-001 -2.092324e+000 3.980408e+000
      endloop
   endfacet
   facet normal 9.492924e-001 -3.084439e-001 6.087962e-002
      outer loop
         vertex 2.019008e+000 -1.297538e+000 2.286829e-001
         vertex 2.200000e+000 0.000000e+000 3.980408e+000
         vertex 1.779837e+000 -1.293128e+000 3.980408e+000
      endloop
   endfacet
   facet normal 9.582402e-001 -2.813649e-001 5.108266e-002
      outer loop
         vertex 2.200000e+000 0.000000e+000 3.980408e+000
         vertex 2.019008e+000 -1.297538e+000 2.286829e-001
         vertex 2.400000e+000 -2.939152e-016 2.286829e-001
      endloop
   endfacet
   facet normal -4.152127e-001 -9.091891e-001 3.120335e-002
      outer loop
         vertex -6.798374e-001 -2.092324e+000 3.980408e+000
         vertex -1.571666e+000 -1.813799e+000 2.286829e-001
         vertex -3.415556e-001 -2.375571e+000 2.286829e-001
      endloop
   endfacet
   facet normal -9.996249e-001 0.000000e+000 2.738598e-002
      outer loop
         vertex -2.200000e+000 2.694223e-016 3.980408e+000
         vertex -2.302783e+000 6.761581e-001 2.286829e-001
         vertex -2.302783e+000 -6.761581e-001 2.286829e-001
      endloop
   endfacet
   facet normal -4.152127e-001 9.091891e-001 3.120335e-002
      outer loop
         vertex -6.798374e-001 2.092324e+000 3.980408e+000
         vertex -3.415556e-001 2.375571e+000 2.286829e-001
         vertex -1.571666e+000 1.813799e+000 2.286829e-001
      endloop
   endfacet
   facet normal 6.542663e-001 7.550636e-001 4.259685e-002
      outer loop
         vertex 1.779837e+000 1.293128e+000 3.980408e+000
         vertex 2.019008e+000 1.297538e+000 2.286829e-001
         vertex 9.969960e-001 2.183117e+000 2.286829e-001
      endloop
   endfacet
   facet normal 1.422229e-001 9.891812e-001 3.596142e-002
      outer loop
         vertex -3.415556e-001 2.375571e+000 2.286829e-001
         vertex 6.798374e-001 2.092324e+000 3.980408e+000
         vertex 9.969960e-001 2.183117e+000 2.286829e-001
      endloop
   endfacet
   facet normal 1.422229e-001 -9.891812e-001 3.596142e-002
      outer loop
         vertex 9.969960e-001 -2.183117e+000 2.286829e-001
         vertex 6.798374e-001 -2.092324e+000 3.980408e+000
         vertex -3.415556e-001 -2.375571e+000 2.286829e-001
      endloop
   endfacet
   facet normal -9.478945e-001 3.079896e-001 8.147648e-002
      outer loop
         vertex -1.779837e+000 1.293128e+000 3.980408e+000
         vertex -2.302783e+000 6.761581e-001 2.286829e-001
         vertex -2.200000e+000 2.694223e-016 3.980408e+000
      endloop
   endfacet
   facet normal 0.000000e+000 9.971622e-001 7.528362e-002
      outer loop
         vertex -6.798374e-001 2.092324e+000 3.980408e+000
         vertex 6.798374e-001 2.092324e+000 3.980408e+000
         vertex -3.415556e-001 2.375571e+000 2.286829e-001
      endloop
   endfacet
   facet normal 9.492924e-001 3.084439e-001 6.087962e-002
      outer loop
         vertex 2.019008e+000 1.297538e+000 2.286829e-001
         vertex 1.779837e+000 1.293128e+000 3.980408e+000
         vertex 2.200000e+000 0.000000e+000 3.980408e+000
      endloop
   endfacet
   facet normal 5.863802e-001 -8.070831e-001 6.910223e-002
      outer loop
         vertex 9.969960e-001 -2.183117e+000 2.286829e-001
         vertex 1.779837e+000 -1.293128e+000 3.980408e+000
         vertex 6.798374e-001 -2.092324e+000 3.980408e+000
      endloop
   endfacet
   facet normal -8.409156e-001 -5.404237e-001 2.834122e-002
      outer loop
         vertex -1.779837e+000 -1.293128e+000 3.980408e+000
         vertex -2.302783e+000 -6.761581e-001 2.286829e-001
         vertex -1.571666e+000 -1.813799e+000 2.286829e-001
      endloop
   endfacet
   facet normal -8.409156e-001 5.404237e-001 2.834122e-002
      outer loop
         vertex -2.302783e+000 6.761581e-001 2.286829e-001
         vertex -1.779837e+000 1.293128e+000 3.980408e+000
         vertex -1.571666e+000 1.813799e+000 2.286829e-001
      endloop
   endfacet
   facet normal 6.542663e-001 -7.550636e-001 4.259685e-002
      outer loop
         vertex 2.019008e+000 -1.297538e+000 2.286829e-001
         vertex 1.779837e+000 -1.293128e+000 3.980408e+000
         vertex 9.969960e-001 -2.183117e+000 2.286829e-001
      endloop
   endfacet
   facet normal -5.859290e-001 -8.064621e-001 7.941095e-002
      outer loop
         vertex -1.571666e+000 -1.813799e+000 2.286829e-001
         vertex -6.798374e-001 -2.092324e+000 3.980408e+000
         vertex -1.779837e+000 -1.293128e+000 3.980408e+000
      endloop
   endfacet
   facet normal -0.000000e+000 0.000000e+000 1.000000e+000
      outer loop
         vertex 1.100000e+001 2.000000e+000 0.000000e+000
         vertex 1.100000e+001 1.000000e+000 0.000000e+000
         vertex 1.150000e+001 9.673762e-001 0.000000e+000
      endloop
   endfacet
   facet normal 0.000000e+000 0.000000e+000 1.000000e+000
      outer loop
         vertex 2.828427e+000 1.000000e+000 0.000000e+000
         vertex 1.981646e+000 2.252350e+000 0.000000e+000
         vertex 2.019008e+000 1.297538e+000 0.000000e+000
      endloop
   endfacet
   facet normal -0.000000e+000 0.000000e+000 1.000000e+000
      outer loop
         vertex 6.316547e-001 2.932748e+000 0.000000e+000
         vertex -8.787360e-001 2.868418e+000 0.000000e+000
         vertex -3.415556e-001 2.375571e+000 0.000000e+000
      endloop
   endfacet
   facet normal -0.000000e+000 0.000000e+000 1.000000e+000
      outer loop
         vertex -2.165984e+000 2.075695e+000 0.000000e+000
         vertex -2.903213e+000 7.558800e-001 0.000000e+000
         vertex -2.302783e+000 6.761581e-001 0.000000e+000
      endloop
   endfacet
   facet normal 0.000000e+000 0.000000e+000 1.000000e+000
      outer loop
         vertex -2.903213e+000 -7.558800e-001 0.000000e+000
         vertex -2.165984e+000 -2.075695e+000 0.000000e+000
         vertex -2.302783e+000 -6.761581e-001 0.000000e+000
      endloop
   endfacet
   facet normal 0.000000e+000 0.000000e+000 1.000000e+000
      outer loop
         vertex -8.787360e-001 -2.868418e+000 0.000000e+000
         vertex 6.316547e-001 -2.932748e+000 0.000000e+000
         vertex -3.415556e-001 -2.375571e+000 0.000000e+000
      endloop
   endfacet
   facet normal 0.000000e+000 0.000000e+000 1.000000e+000
      outer loop
         vertex 1.981646e+000 -2.252350e+000 0.000000e+000
         vertex 2.828427e+000 -1.000000e+000 0.000000e+000
         vertex 2.019008e+000 -1.297538e+000 0.000000e+000
      endloop
   endfacet
   facet normal 0.000000e+000 0.000000e+000 1.000000e+000
      outer loop
         vertex 1.100000e+001 -1.000000e+000 0.000000e+000
         vertex 1.100000e+001 -2.000000e+000 0.000000e+000
         vertex 1.150000e+001 -9.673762e-001 0.000000e+000
      endloop
   endfacet
   facet normal 0.000000e+000 0.000000e+000 1.000000e+000
      outer loop
         vertex 1.500000e+001 0.000000e+000 0.000000e+000
         vertex 1.100000e+001 2.000000e+000 0.000000e+000
         vertex 1.343475e+001 0.000000e+000 0.000000e+000
      endloop
   endfacet
   facet normal 0.000000e+000 0.000000e+000 1.000000e+000
      outer loop
         vertex 2.400000e+000 0.000000e+000 0.000000e+000
         vertex 2.019008e+000 -1.297538e+000 0.000000e+000
         vertex 2.828427e+000 -1.000000e+000 0.000000e+000
      endloop
   endfacet
   facet normal -0.000000e+000 0.000000e+000 1.000000e+000
      outer loop
         vertex 9.969960e-001 -2.183117e+000 0.000000e+000
         vertex -3.415556e-001 -2.375571e+000 0.000000e+000
         vertex 6.316547e-001 -2.932748e+000 0.000000e+000
      endloop
   endfacet
   facet normal 0.000000e+000 0.000000e+000 1.000000e+000
      outer loop
         vertex -1.571666e+000 -1.813799e+000 0.000000e+000
         vertex -2.302783e+000 -6.761581e-001 0.000000e+000
         vertex -2.165984e+000 -2.075695e+000 0.000000e+000
      endloop
   endfacet
   facet normal 0.000000e+000 0.000000e+000 1.000000e+000
      outer loop
         vertex -2.302783e+000 6.761581e-001 0.000000e+000
         vertex -1.571666e+000 1.813799e+000 0.000000e+000
         vertex -2.165984e+000 2.075695e+000 0.000000e+000
      endloop
   endfacet
   facet normal 0.000000e+000 0.000000e+000 1.000000e+000
      outer loop
         vertex -3.415556e-001 2.375571e+000 0.000000e+000
         vertex 9.969960e-001 2.183117e+000 0.000000e+000
         vertex 6.316547e-001 2.932748e+000 0.000000e+000
      endloop
   endfacet
   facet normal -0.000000e+000 0.000000e+000 1.000000e+000
      outer loop
         vertex 1.343475e+001 0.000000e+000 0.000000e+000
         vertex 1.150000e+001 -9.673762e-001 0.000000e+000
         vertex 1.100000e+001 -2.000000e+000 0.000000e+000
      endloop
   endfacet
   facet normal 0.000000e+000 0.000000e+000 1.000000e+000
      outer loop
         vertex 1.150000e+001 9.673762e-001 0.000000e+000
         vertex 1.343475e+001 0.000000e+000 0.000000e+000
         vertex 1.100000e+001 2.000000e+000 0.000000e+000
      endloop
   endfacet
   facet normal 0.000000e+000 0.000000e+000 1.000000e+000
      outer loop
         vertex 2.828427e+000 1.000000e+000 0.000000e+000
         vertex 2.019008e+000 1.297538e+000 0.000000e+000
         vertex 2.400000e+000 0.000000e+000 0.000000e+000
      endloop
   endfacet
   facet normal 0.000000e+000 0.000000e+000 1.000000e+000
      outer loop
         vertex -2.302783e+000 6.761581e-001 0.000000e+000
         vertex -2.903213e+000 7.558800e-001 0.000000e+000
         vertex -2.302783e+000 -6.761581e-001 0.000000e+000
      endloop
   endfacet
   facet normal 0.000000e+000 0.000000e+000 1.000000e+000
      outer loop
         vertex 1.981646e+000 -2.252350e+000 0.000000e+000
         vertex 2.019008e+000 -1.297538e+000 0.000000e+000
         vertex 9.969960e-001 -2.183117e+000 0.000000e+000
      endloop
   endfacet
   facet normal 0.000000e+000 -0.000000e+000 1.000000e+000
      outer loop
         vertex 2.400000e+000 0.000000e+000 0.000000e+000
         vertex 2.828427e+000 -1.000000e+000 0.000000e+000
         vertex 2.828427e+000 1.000000e+000 0.000000e+000
      endloop
   endfacet
   facet normal -0.000000e+000 0.000000e+000 1.000000e+000
      outer loop
         vertex -1.571666e+000 -1.813799e+000 0.000000e+000
         vertex -2.165984e+000 -2.075695e+000 0.000000e+000
         vertex -8.787360e-001 -2.868418e+000 0.000000e+000
      endloop
   endfacet
   facet normal 0.000000e+000 0.000000e+000 1.000000e+000
      outer loop
         vertex 1.343475e+001 0.000000e+000 0.000000e+000
         vertex 1.100000e+001 -2.000000e+000 0.000000e+000
         vertex 1.500000e+001 0.000000e+000 0.000000e+000
      endloop
   endfacet
   facet normal 0.000000e+000 -0.000000e+000 1.000000e+000
      outer loop
         vertex -1.571666e+000 -1.813799e+000 0.000000e+000
         vertex -8.787360e-001 -2.868418e+000 0.000000e+000
         vertex -3.415556e-001 -2.375571e+000 0.000000e+000
      endloop
   endfacet
   facet normal -0.000000e+000 0.000000e+000 1.000000e+000
      outer loop
         vertex 1.100000e+001 1.000000e+000 0.000000e+000
         vertex 2.828427e+000 1.000000e+000 0.000000e+000
         vertex 2.828427e+000 -1.000000e+000 0.000000e+000
      endloop
   endfacet
   facet normal -0.000000e+000 0.000000e+000 1.000000e+000
      outer loop
         vertex -8.787360e-001 2.868418e+000 0.000000e+000
         vertex -2.165984e+000 2.075695e+000 0.000000e+000
         vertex -1.571666e+000 1.813799e+000 0.000000e+000
      endloop
   endfacet
   facet normal 0.000000e+000 0.000000e+000 1.000000e+000
      outer loop
         vertex 6.316547e-001 -2.932748e+000 0.000000e+000
         vertex 1.981646e+000 -2.252350e+000 0.000000e+000
         vertex 9.969960e-001 -2.183117e+000 0.000000e+000
      endloop
   endfacet
   facet normal 0.000000e+000 0.000000e+000 1.000000e+000
      outer loop
         vertex -1.571666e+000 1.813799e+000 0.000000e+000
         vertex -3.415556e-001 2.375571e+000 0.000000e+000
         vertex -8.787360e-001 2.868418e+000 0.000000e+000
      endloop
   endfacet
   facet normal 0.000000e+000 0.000000e+000 1.000000e+000
      outer loop
         vertex 1.150000e+001 -9.673762e-001 0.000000e+000
         vertex 1.150000e+001 9.673762e-001 0.000000e+000
         vertex 1.100000e+001 -1.000000e+000 0.000000e+000
      endloop
   endfacet
   facet normal 0.000000e+000 0.000000e+000 1.000000e+000
      outer loop
         vertex 2.019008e+000 1.297538e+000 0.000000e+000
         vertex 1.981646e+000 2.252350e+000 0.000000e+000
         vertex 9.969960e-001 2.183117e+000 0.000000e+000
      endloop
   endfacet
   facet normal 0.000000e+000 0.000000e+000 1.000000e+000
      outer loop
         vertex -2.302783e+000 -6.761581e-001 0.000000e+000
         vertex -2.903213e+000 7.558800e-001 0.000000e+000
         vertex -2.903213e+000 -7.558800e-001 0.000000e+000
      endloop
   endfacet
   facet normal 0.000000e+000 0.000000e+000 1.000000e+000
      outer loop
         vertex 1.981646e+000 2.252350e+000 0.000000e+000
         vertex 6.316547e-001 2.932748e+000 0.000000e+000
         vertex 9.969960e-001 2.183117e+000 0.000000e+000
      endloop
   endfacet
   facet normal 0.000000e+000 0.000000e+000 1.000000e+000
      outer loop
         vertex 1.150000e+001 9.673762e-001 0.000000e+000
         vertex 1.100000e+001 1.000000e+000 0.000000e+000
         vertex 1.100000e+001 -1.000000e+000 0.000000e+000
      endloop
   endfacet
   facet normal 0.000000e+000 0.000000e+000 1.000000e+000
      outer loop
         vertex 1.100000e+001 -1.000000e+000 0.000000e+000
         vertex 1.100000e+001 1.000000e+000 0.000000e+000
         vertex 2.828427e+000 -1.000000e+000 0.000000e+000
      endloop
   endfacet
   facet normal 0.000000e+000 1.000000e+000 -0.000000e+000
      outer loop
         vertex 1.100000e+001 1.000000e+000 0.000000e+000
         vertex 1.100000e+001 1.000000e+000 -2.000000e+000
         vertex 2.828427e+000 1.000000e+000 -2.000000e+000
      endloop
   endfacet
   facet normal 0.000000e+000 1.000000e+000 0.000000e+000
      outer loop
         vertex 2.828427e+000 1.000000e+000 0.000000e+000
         vertex 1.100000e+001 1.000000e+000 0.000000e+000
         vertex 2.828427e+000 1.000000e+000 -2.000000e+000
      endloop
   endfacet
   facet normal 8.284052e-001 5.601293e-001 -0.000000e+000
      outer loop
         vertex 2.828427e+000 1.000000e+000 0.000000e+000
         vertex 2.828427e+000 1.000000e+000 -2.000000e+000
         vertex 1.981646e+000 2.252350e+000 -2.000000e+000
      endloop
   endfacet
   facet normal -4.255312e-002 9.990942e-001 0.000000e+000
      outer loop
         vertex 6.316547e-001 2.932748e+000 -2.000000e+000
         vertex -8.787360e-001 2.868418e+000 -2.000000e+000
         vertex -8.787360e-001 2.868418e+000 0.000000e+000
      endloop
   endfacet
   facet normal -8.730323e-001 4.876625e-001 0.000000e+000
      outer loop
         vertex -2.165984e+000 2.075695e+000 -2.000000e+000
         vertex -2.903213e+000 7.558800e-001 -2.000000e+000
         vertex -2.903213e+000 7.558800e-001 0.000000e+000
      endloop
   endfacet
   facet normal -8.730323e-001 -4.876625e-001 0.000000e+000
      outer loop
         vertex -2.903213e+000 -7.558800e-001 -2.000000e+000
         vertex -2.165984e+000 -2.075695e+000 -2.000000e+000
         vertex -2.165984e+000 -2.075695e+000 0.000000e+000
      endloop
   endfacet
   facet normal -4.255312e-002 -9.990942e-001 0.000000e+000
      outer loop
         vertex -8.787360e-001 -2.868418e+000 -2.000000e+000
         vertex 6.316547e-001 -2.932748e+000 -2.000000e+000
         vertex 6.316547e-001 -2.932748e+000 0.000000e+000
      endloop
   endfacet
   facet normal 8.284052e-001 -5.601293e-001 0.000000e+000
      outer loop
         vertex 1.981646e+000 -2.252350e+000 -2.000000e+000
         vertex 2.828427e+000 -1.000000e+000 -2.000000e+000
         vertex 2.828427e+000 -1.000000e+000 0.000000e+000
      endloop
   endfacet
   facet normal 4.500704e-001 -8.929931e-001 0.000000e+000
      outer loop
         vertex 1.981646e+000 -2.252350e+000 0.000000e+000
         vertex 6.316547e-001 -2.932748e+000 0.000000e+000
         vertex 6.316547e-001 -2.932748e+000 -2.000000e+000
      endloop
   endfacet
   facet normal -5.243709e-001 -8.514900e-001 -0.000000e+000
      outer loop
         vertex -8.787360e-001 -2.868418e+000 0.000000e+000
         vertex -2.165984e+000 -2.075695e+000 0.000000e+000
         vertex -2.165984e+000 -2.075695e+000 -2.000000e+000
      endloop
   endfacet
   facet normal -1.000000e+000 -0.000000e+000 -0.000000e+000
      outer loop
         vertex -2.903213e+000 -7.558800e-001 0.000000e+000
         vertex -2.903213e+000 7.558800e-001 0.000000e+000
         vertex -2.903213e+000 7.558800e-001 -2.000000e+000
      endloop
   endfacet
   facet normal -5.243709e-001 8.514900e-001 0.000000e+000
      outer loop
         vertex -2.165984e+000 2.075695e+000 0.000000e+000
         vertex -8.787360e-001 2.868418e+000 0.000000e+000
         vertex -8.787360e-001 2.868418e+000 -2.000000e+000
      endloop
   endfacet
   facet normal 4.500704e-001 8.929931e-001 0.000000e+000
      outer loop
         vertex 6.316547e-001 2.932748e+000 0.000000e+000
         vertex 1.981646e+000 2.252350e+000 0.000000e+000
         vertex 1.981646e+000 2.252350e+000 -2.000000e+000
      endloop
   endfacet
   facet normal 8.284052e-001 5.601293e-001 -0.000000e+000
      outer loop
         vertex 2.828427e+000 1.000000e+000 0.000000e+000
         vertex 1.981646e+000 2.252350e+000 -2.000000e+000
         vertex 1.981646e+000 2.252350e+000 0.000000e+000
      endloop
   endfacet
   facet normal -8.730323e-001 -4.876625e-001 0.000000e+000
      outer loop
         vertex -2.903213e+000 -7.558800e-001 -2.000000e+000
         vertex -2.165984e+000 -2.075695e+000 0.000000e+000
         vertex -2.903213e+000 -7.558800e-001 0.000000e+000
      endloop
   endfacet
   facet normal 4.500704e-001 -8.929931e-001 0.000000e+000
      outer loop
         vertex 1.981646e+000 -2.252350e+000 0.000000e+000
         vertex 6.316547e-001 -2.932748e+000 -2.000000e+000
         vertex 1.981646e+000 -2.252350e+000 -2.000000e+000
      endloop
   endfacet
   facet normal -5.243709e-001 8.514900e-001 0.000000e+000
      outer loop
         vertex -2.165984e+000 2.075695e+000 0.000000e+000
         vertex -8.787360e-001 2.868418e+000 -2.000000e+000
         vertex -2.165984e+000 2.075695e+000 -2.000000e+000
      endloop
   endfacet
   facet normal 8.284052e-001 -5.601293e-001 0.000000e+000
      outer loop
         vertex 1.981646e+000 -2.252350e+000 0.000000e+000
         vertex 1.981646e+000 -2.252350e+000 -2.000000e+000
         vertex 2.828427e+000 -1.000000e+000 0.000000e+000
      endloop
   endfacet
   facet normal 4.500704e-001 8.929931e-001 -0.000000e+000
      outer loop
         vertex 1.981646e+000 2.252350e+000 -2.000000e+000
         vertex 6.316547e-001 2.932748e+000 -2.000000e+000
         vertex 6.316547e-001 2.932748e+000 0.000000e+000
      endloop
   endfacet
   facet normal -5.243709e-001 -8.514900e-001 0.000000e+000
      outer loop
         vertex -2.165984e+000 -2.075695e+000 -2.000000e+000
         vertex -8.787360e-001 -2.868418e+000 -2.000000e+000
         vertex -8.787360e-001 -2.868418e+000 0.000000e+000
      endloop
   endfacet
   facet normal -8.730323e-001 4.876625e-001 0.000000e+000
      outer loop
         vertex -2.903213e+000 7.558800e-001 0.000000e+000
         vertex -2.165984e+000 2.075695e+000 0.000000e+000
         vertex -2.165984e+000 2.075695e+000 -2.000000e+000
      endloop
   endfacet
   facet normal -4.255312e-002 9.990942e-001 0.000000e+000
      outer loop
         vertex 6.316547e-001 2.932748e+000 -2.000000e+000
         vertex -8.787360e-001 2.868418e+000 0.000000e+000
         vertex 6.316547e-001 2.932748e+000 0.000000e+000
      endloop
   endfacet
   facet normal -1.000000e+000 0.000000e+000 0.000000e+000
      outer loop
         vertex -2.903213e+000 -7.558800e-001 -2.000000e+000
         vertex -2.903213e+000 -7.558800e-001 0.000000e+000
         vertex -2.903213e+000 7.558800e-001 -2.000000e+000
      endloop
   endfacet
   facet normal -4.255312e-002 -9.990942e-001 -0.000000e+000
      outer loop
         vertex 6.316547e-001 -2.932748e+000 0.000000e+000
         vertex -8.787360e-001 -2.868418e+000 0.000000e+000
         vertex -8.787360e-001 -2.868418e+000 -2.000000e+000
      endloop
   endfacet
   facet normal 0.000000e+000 -1.000000e+000 0.000000e+000
      outer loop
         vertex 2.828427e+000 -1.000000e+000 0.000000e+000
         vertex 2.828427e+000 -1.000000e+000 -2.000000e+000
         vertex 1.100000e+001 -1.000000e+000 -2.000000e+000
      endloop
   endfacet
   facet normal 0.000000e+000 -1.000000e+000 0.000000e+000
      outer loop
         vertex 1.100000e+001 -1.000000e+000 0.000000e+000
         vertex 2.828427e+000 -1.000000e+000 0.000000e+000
         vertex 1.100000e+001 -1.000000e+000 -2.000000e+000
      endloop
   endfacet
   facet normal -1.000000e+000 0.000000e+000 0.000000e+000
      outer loop
         vertex 1.100000e+001 -1.000000e+000 0.000000e+000
         vertex 1.100000e+001 -1.000000e+000 -2.000000e+000
         vertex 1.100000e+001 -2.000000e+000 -2.000000e+000
      endloop
   endfacet
   facet normal -1.000000e+000 -0.000000e+000 0.000000e+000
      outer loop
         vertex 1.100000e+001 -2.000000e+000 0.000000e+000
         vertex 1.100000e+001 -1.000000e+000 0.000000e+000
         vertex 1.100000e+001 -2.000000e+000 -2.000000e+000
      endloop
   endfacet
   facet normal 4.472136e-001 -8.944272e-001 0.000000e+000
      outer loop
         vertex 1.100000e+001 -2.000000e+000 0.000000e+000
         vertex 1.100000e+001 -2.000000e+000 -2.000000e+000
         vertex 1.500000e+001 0.000000e+000 -2.000000e+000
      endloop
   endfacet
   facet normal 4.472136e-001 -8.944272e-001 0.000000e+000
      outer loop
         vertex 1.500000e+001 0.000000e+000 0.000000e+000
         vertex 1.100000e+001 -2.000000e+000 0.000000e+000
         vertex 1.500000e+001 0.000000e+000 -2.000000e+000
      endloop
   endfacet
   facet normal 4.472136e-001 8.944272e-001 -0.000000e+000
      outer loop
         vertex 1.500000e+001 0.000000e+000 0.000000e+000
         vertex 1.500000e+001 0.000000e+000 -2.000000e+000
         vertex 1.100000e+001 2.000000e+000 -2.000000e+000
      endloop
   endfacet
   facet normal 4.472136e-001 8.944272e-001 0.000000e+000
      outer loop
         vertex 1.100000e+001 2.000000e+000 0.000000e+000
         vertex 1.500000e+001 0.000000e+000 0.000000e+000
         vertex 1.100000e+001 2.000000e+000 -2.000000e+000
      endloop
   endfacet
   facet normal -1.000000e+000 0.000000e+000 0.000000e+000
      outer loop
         vertex 1.100000e+001 2.000000e+000 0.000000e+000
         vertex 1.100000e+001 2.000000e+000 -2.000000e+000
         vertex 1.100000e+001 1.000000e+000 -2.000000e+000
      endloop
   endfacet
   facet normal -1.000000e+000 -0.000000e+000 0.000000e+000
      outer loop
         vertex 1.100000e+001 1.000000e+000 0.000000e+000
         vertex 1.100000e+001 2.000000e+000 0.000000e+000
         vertex 1.100000e+001 1.000000e+000 -2.000000e+000
      endloop
   endfacet
   facet normal 1.000000e+000 0.000000e+000 -0.000000e+000
      outer loop
         vertex 1.150000e+001 -9.673762e-001 -2.000000e+000
         vertex 1.150000e+001 9.673762e-001 -2.000000e+000
         vertex 1.150000e+001 9.673762e-001 0.000000e+000
      endloop
   endfacet
   facet normal 1.000000e+000 0.000000e+000 0.000000e+000
      outer loop
         vertex 1.150000e+001 -9.673762e-001 -2.000000e+000
         vertex 1.150000e+001 9.673762e-001 0.000000e+000
         vertex 1.150000e+001 -9.673762e-001 0.000000e+000
      endloop
   endfacet
   facet normal -4.472136e-001 -8.944272e-001 0.000000e+000
      outer loop
         vertex 1.150000e+001 9.673762e-001 -2.000000e+000
         vertex 1.343475e+001 0.000000e+000 -2.000000e+000
         vertex 1.343475e+001 0.000000e+000 0.000000e+000
      endloop
   endfacet
   facet normal -4.472136e-001 -8.944272e-001 0.000000e+000
      outer loop
         vertex 1.150000e+001 9.673762e-001 -2.000000e+000
         vertex 1.343475e+001 0.000000e+000 0.000000e+000
         vertex 1.150000e+001 9.673762e-001 0.000000e+000
      endloop
   endfacet
   facet normal -4.472136e-001 8.944272e-001 0.000000e+000
      outer loop
         vertex 1.343475e+001 0.000000e+000 -2.000000e+000
         vertex 1.150000e+001 -9.673762e-001 -2.000000e+000
         vertex 1.150000e+001 -9.673762e-001 0.000000e+000
      endloop
   endfacet
   facet normal -4.472136e-001 8.944272e-001 0.000000e+000
      outer loop
         vertex 1.343475e+001 0.000000e+000 -2.000000e+000
         vertex 1.150000e+001 -9.673762e-001 0.000000e+000
         vertex 1.343475e+001 0.000000e+000 0.000000e+000
      endloop
   endfacet
   facet normal 0.000000e+000 0.000000e+000 -1.000000e+000
      outer loop
         vertex 2.828427e+000 -1.000000e+000 -2.000000e+000
         vertex 2.828427e+000 1.000000e+000 -2.000000e+000
         vertex 1.100000e+001 1.000000e+000 -2.000000e+000
      endloop
   endfacet
   facet normal 0.000000e+000 0.000000e+000 -1.000000e+000
      outer loop
         vertex 2.828427e+000 1.000000e+000 -2.000000e+000
         vertex 6.316547e-001 2.932748e+000 -2.000000e+000
         vertex 1.981646e+000 2.252350e+000 -2.000000e+000
      endloop
   endfacet
   facet normal 0.000000e+000 0.000000e+000 -1.000000e+000
      outer loop
         vertex -2.903213e+000 -7.558800e-001 -2.000000e+000
         vertex -2.903213e+000 7.558800e-001 -2.000000e+000
         vertex -2.165984e+000 2.075695e+000 -2.000000e+000
      endloop
   endfacet
   facet normal 0.000000e+000 0.000000e+000 -1.000000e+000
      outer loop
         vertex -2.903213e+000 -7.558800e-001 -2.000000e+000
         vertex -8.787360e-001 -2.868418e+000 -2.000000e+000
         vertex -2.165984e+000 -2.075695e+000 -2.000000e+000
      endloop
   endfacet
   facet normal 0.000000e+000 0.000000e+000 -1.000000e+000
      outer loop
         vertex 6.316547e-001 -2.932748e+000 -2.000000e+000
         vertex 2.828427e+000 -1.000000e+000 -2.000000e+000
         vertex 1.981646e+000 -2.252350e+000 -2.000000e+000
      endloop
   endfacet
   facet normal -0.000000e+000 0.000000e+000 -1.000000e+000
      outer loop
         vertex 1.343475e+001 0.000000e+000 -2.000000e+000
         vertex 1.500000e+001 0.000000e+000 -2.000000e+000
         vertex 1.100000e+001 -2.000000e+000 -2.000000e+000
      endloop
   endfacet
   facet normal 0.000000e+000 0.000000e+000 -1.000000e+000
      outer loop
         vertex 1.150000e+001 9.673762e-001 -2.000000e+000
         vertex 1.100000e+001 1.000000e+000 -2.000000e+000
         vertex 1.100000e+001 2.000000e+000 -2.000000e+000
      endloop
   endfacet
   facet normal 0.000000e+000 -0.000000e+000 -1.000000e+000
      outer loop
         vertex 1.100000e+001 -2.000000e+000 -2.000000e+000
         vertex 1.150000e+001 -9.673762e-001 -2.000000e+000
         vertex 1.343475e+001 0.000000e+000 -2.000000e+000
      endloop
   endfacet
   facet normal 0.000000e+000 0.000000e+000 -1.000000e+000
      outer loop
         vertex 1.100000e+001 -1.000000e+000 -2.000000e+000
         vertex 2.828427e+000 -1.000000e+000 -2.000000e+000
         vertex 1.100000e+001 1.000000e+000 -2.000000e+000
      endloop
   endfacet
   facet normal 0.000000e+000 0.000000e+000 -1.000000e+000
      outer loop
         vertex 2.828427e+000 1.000000e+000 -2.000000e+000
         vertex -2.903213e+000 -7.558800e-001 -2.000000e+000
         vertex -2.165984e+000 2.075695e+000 -2.000000e+000
      endloop
   endfacet
   facet normal -0.000000e+000 0.000000e+000 -1.000000e+000
      outer loop
         vertex 2.828427e+000 1.000000e+000 -2.000000e+000
         vertex 2.828427e+000 -1.000000e+000 -2.000000e+000
         vertex 6.316547e-001 -2.932748e+000 -2.000000e+000
      endloop
   endfacet
   facet normal 0.000000e+000 0.000000e+000 -1.000000e+000
      outer loop
         vertex 1.100000e+001 -1.000000e+000 -2.000000e+000
         vertex 1.100000e+001 1.000000e+000 -2.000000e+000
         vertex 1.150000e+001 9.673762e-001 -2.000000e+000
      endloop
   endfacet
   facet normal 0.000000e+000 0.000000e+000 -1.000000e+000
      outer loop
         vertex 6.316547e-001 2.932748e+000 -2.000000e+000
         vertex 2.828427e+000 1.000000e+000 -2.000000e+000
         vertex -2.165984e+000 2.075695e+000 -2.000000e+000
      endloop
   endfacet
   facet normal 0.000000e+000 0.000000e+000 -1.000000e+000
      outer loop
         vertex 1.150000e+001 -9.673762e-001 -2.000000e+000
         vertex 1.100000e+001 -1.000000e+000 -2.000000e+000
         vertex 1.150000e+001 9.673762e-001 -2.000000e+000
      endloop
   endfacet
   facet normal 0.000000e+000 0.000000e+000 -1.000000e+000
      outer loop
         vertex 6.316547e-001 2.932748e+000 -2.000000e+000
         vertex -2.165984e+000 2.075695e+000 -2.000000e+000
         vertex -8.787360e-001 2.868418e+000 -2.000000e+000
      endloop
   endfacet
   facet normal 0.000000e+000 0.000000e+000 -1.000000e+000
      outer loop
         vertex 1.343475e+001 0.000000e+000 -2.000000e+000
         vertex 1.100000e+001 2.000000e+000 -2.000000e+000
         vertex 1.500000e+001 0.000000e+000 -2.000000e+000
      endloop
   endfacet
   facet normal 0.000000e+000 0.000000e+000 -1.000000e+000
      outer loop
         vertex 2.828427e+000 1.000000e+000 -2.000000e+000
         vertex -8.787360e-001 -2.868418e+000 -2.000000e+000
         vertex -2.903213e+000 -7.558800e-001 -2.000000e+000
      endloop
   endfacet
   facet normal 0.000000e+000 0.000000e+000 -1.000000e+000
      outer loop
         vertex 1.100000e+001 -1.000000e+000 -2.000000e+000
         vertex 1.150000e+001 -9.673762e-001 -2.000000e+000
         vertex 1.100000e+001 -2.000000e+000 -2.000000e+000
      endloop
   endfacet
   facet normal 0.000000e+000 0.000000e+000 -1.000000e+000
      outer loop
         vertex 6.316547e-001 -2.932748e+000 -2.000000e+000
         vertex -8.787360e-001 -2.868418e+000 -2.000000e+000
         vertex 2.828427e+000 1.000000e+000 -2.000000e+000
      endloop
   endfacet
   facet normal 0.000000e+000 0.000000e+000 -1.000000e+000
      outer loop
         vertex 1.100000e+001 2.000000e+000 -2.000000e+000
         vertex 1.343475e+001 0.000000e+000 -2.000000e+000
         vertex 1.150000e+001 9.673762e-001 -2.000000e+000
      endloop
   endfacet
endsolid
