solid 
   facet normal 9.594930e-001 2.817326e-001 -0.000000e+000
      outer loop
         vertex -1.500000e+000 -4.000000e+000 1.600000e+000
         vertex -1.500000e+000 -4.000000e+000 0.000000e+000
         vertex -1.896866e+000 -2.648398e+000 0.000000e+000
      endloop
   endfacet
   facet normal 1.423148e-001 9.898215e-001 -0.000000e+000
      outer loop
         vertex -2.961462e+000 -1.725920e+000 0.000000e+000
         vertex -4.355787e+000 -1.525446e+000 0.000000e+000
         vertex -4.355787e+000 -1.525446e+000 1.600000e+000
      endloop
   endfacet
   facet normal -8.412534e-001 5.406410e-001 0.000000e+000
      outer loop
         vertex -5.637152e+000 -2.110626e+000 0.000000e+000
         vertex -6.398733e+000 -3.295669e+000 0.000000e+000
         vertex -5.637152e+000 -2.110626e+000 1.600000e+000
      endloop
   endfacet
   facet normal -8.412534e-001 -5.406410e-001 0.000000e+000
      outer loop
         vertex -6.398733e+000 -4.704331e+000 0.000000e+000
         vertex -5.637152e+000 -5.889374e+000 0.000000e+000
         vertex -5.637152e+000 -5.889374e+000 1.600000e+000
      endloop
   endfacet
   facet normal 1.423149e-001 -9.898214e-001 0.000000e+000
      outer loop
         vertex -4.355787e+000 -6.474554e+000 0.000000e+000
         vertex -2.961462e+000 -6.274080e+000 0.000000e+000
         vertex -4.355787e+000 -6.474554e+000 1.600000e+000
      endloop
   endfacet
   facet normal 9.594930e-001 -2.817326e-001 0.000000e+000
      outer loop
         vertex -1.896866e+000 -5.351602e+000 0.000000e+000
         vertex -1.500000e+000 -4.000000e+000 0.000000e+000
         vertex -1.896866e+000 -5.351602e+000 1.600000e+000
      endloop
   endfacet
   facet normal 9.594930e-001 -2.817326e-001 0.000000e+000
      outer loop
         vertex -1.500000e+000 -4.000000e+000 1.600000e+000
         vertex -1.896866e+000 -5.351602e+000 1.600000e+000
         vertex -1.500000e+000 -4.000000e+000 0.000000e+000
      endloop
   endfacet
   facet normal -4.154152e-001 -9.096319e-001 0.000000e+000
      outer loop
         vertex -4.355787e+000 -6.474554e+000 1.600000e+000
         vertex -5.637152e+000 -5.889374e+000 1.600000e+000
         vertex -4.355787e+000 -6.474554e+000 0.000000e+000
      endloop
   endfacet
   facet normal -1.000000e+000 -0.000000e+000 -0.000000e+000
      outer loop
         vertex -6.398733e+000 -4.704331e+000 1.600000e+000
         vertex -6.398733e+000 -3.295669e+000 1.600000e+000
         vertex -6.398733e+000 -3.295669e+000 0.000000e+000
      endloop
   endfacet
   facet normal -4.154150e-001 9.096320e-001 0.000000e+000
      outer loop
         vertex -5.637152e+000 -2.110626e+000 1.600000e+000
         vertex -4.355787e+000 -1.525446e+000 1.600000e+000
         vertex -4.355787e+000 -1.525446e+000 0.000000e+000
      endloop
   endfacet
   facet normal 6.548607e-001 7.557496e-001 0.000000e+000
      outer loop
         vertex -2.961462e+000 -1.725920e+000 1.600000e+000
         vertex -1.896866e+000 -2.648398e+000 1.600000e+000
         vertex -2.961462e+000 -1.725920e+000 0.000000e+000
      endloop
   endfacet
   facet normal 9.594930e-001 2.817326e-001 -0.000000e+000
      outer loop
         vertex -1.500000e+000 -4.000000e+000 1.600000e+000
         vertex -1.896866e+000 -2.648398e+000 0.000000e+000
         vertex -1.896866e+000 -2.648398e+000 1.600000e+000
      endloop
   endfacet
   facet normal -8.412534e-001 5.406410e-001 0.000000e+000
      outer loop
         vertex -5.637152e+000 -2.110626e+000 1.600000e+000
         vertex -6.398733e+000 -3.295669e+000 0.000000e+000
         vertex -6.398733e+000 -3.295669e+000 1.600000e+000
      endloop
   endfacet
   facet normal 1.423149e-001 -9.898214e-001 0.000000e+000
      outer loop
         vertex -4.355787e+000 -6.474554e+000 1.600000e+000
         vertex -2.961462e+000 -6.274080e+000 0.000000e+000
         vertex -2.961462e+000 -6.274080e+000 1.600000e+000
      endloop
   endfacet
   facet normal -1.000000e+000 0.000000e+000 0.000000e+000
      outer loop
         vertex -6.398733e+000 -4.704331e+000 1.600000e+000
         vertex -6.398733e+000 -3.295669e+000 0.000000e+000
         vertex -6.398733e+000 -4.704331e+000 0.000000e+000
      endloop
   endfacet
   facet normal 6.548607e-001 7.557496e-001 0.000000e+000
      outer loop
         vertex -2.961462e+000 -1.725920e+000 0.000000e+000
         vertex -1.896866e+000 -2.648398e+000 1.600000e+000
         vertex -1.896866e+000 -2.648398e+000 0.000000e+000
      endloop
   endfacet
   facet normal -4.154150e-001 9.096320e-001 0.000000e+000
      outer loop
         vertex -4.355787e+000 -1.525446e+000 0.000000e+000
         vertex -5.637152e+000 -2.110626e+000 0.000000e+000
         vertex -5.637152e+000 -2.110626e+000 1.600000e+000
      endloop
   endfacet
   facet normal 6.548606e-001 -7.557497e-001 0.000000e+000
      outer loop
         vertex -2.961462e+000 -6.274080e+000 0.000000e+000
         vertex -1.896866e+000 -5.351602e+000 0.000000e+000
         vertex -2.961462e+000 -6.274080e+000 1.600000e+000
      endloop
   endfacet
   facet normal -8.412534e-001 -5.406410e-001 -0.000000e+000
      outer loop
         vertex -5.637152e+000 -5.889374e+000 1.600000e+000
         vertex -6.398733e+000 -4.704331e+000 1.600000e+000
         vertex -6.398733e+000 -4.704331e+000 0.000000e+000
      endloop
   endfacet
   facet normal 1.423148e-001 9.898215e-001 0.000000e+000
      outer loop
         vertex -2.961462e+000 -1.725920e+000 0.000000e+000
         vertex -4.355787e+000 -1.525446e+000 1.600000e+000
         vertex -2.961462e+000 -1.725920e+000 1.600000e+000
      endloop
   endfacet
   facet normal -4.154152e-001 -9.096319e-001 -0.000000e+000
      outer loop
         vertex -4.355787e+000 -6.474554e+000 0.000000e+000
         vertex -5.637152e+000 -5.889374e+000 1.600000e+000
         vertex -5.637152e+000 -5.889374e+000 0.000000e+000
      endloop
   endfacet
   facet normal 6.548606e-001 -7.557497e-001 0.000000e+000
      outer loop
         vertex -1.896866e+000 -5.351602e+000 1.600000e+000
         vertex -2.961462e+000 -6.274080e+000 1.600000e+000
         vertex -1.896866e+000 -5.351602e+000 0.000000e+000
      endloop
   endfacet
   facet normal 9.594929e-001 2.817327e-001 -0.000000e+000
      outer loop
         vertex 6.500000e+000 -4.000000e+000 1.600000e+000
         vertex 6.500000e+000 -4.000000e+000 0.000000e+000
         vertex 6.103134e+000 -2.648398e+000 0.000000e+000
      endloop
   endfacet
   facet normal 1.423148e-001 9.898214e-001 -0.000000e+000
      outer loop
         vertex 5.038538e+000 -1.725920e+000 0.000000e+000
         vertex 3.644213e+000 -1.525446e+000 0.000000e+000
         vertex 3.644213e+000 -1.525446e+000 1.600000e+000
      endloop
   endfacet
   facet normal -8.412535e-001 5.406408e-001 0.000000e+000
      outer loop
         vertex 2.362848e+000 -2.110626e+000 0.000000e+000
         vertex 1.601268e+000 -3.295669e+000 0.000000e+000
         vertex 2.362848e+000 -2.110626e+000 1.600000e+000
      endloop
   endfacet
   facet normal -8.412535e-001 -5.406409e-001 0.000000e+000
      outer loop
         vertex 1.601268e+000 -4.704331e+000 0.000000e+000
         vertex 2.362848e+000 -5.889374e+000 0.000000e+000
         vertex 2.362848e+000 -5.889374e+000 1.600000e+000
      endloop
   endfacet
   facet normal 1.423150e-001 -9.898214e-001 0.000000e+000
      outer loop
         vertex 3.644213e+000 -6.474554e+000 0.000000e+000
         vertex 5.038538e+000 -6.274080e+000 0.000000e+000
         vertex 3.644213e+000 -6.474554e+000 1.600000e+000
      endloop
   endfacet
   facet normal 9.594929e-001 -2.817327e-001 0.000000e+000
      outer loop
         vertex 6.103134e+000 -5.351602e+000 0.000000e+000
         vertex 6.500000e+000 -4.000000e+000 0.000000e+000
         vertex 6.103134e+000 -5.351602e+000 1.600000e+000
      endloop
   endfacet
   facet normal 9.594929e-001 -2.817327e-001 0.000000e+000
      outer loop
         vertex 6.500000e+000 -4.000000e+000 1.600000e+000
         vertex 6.103134e+000 -5.351602e+000 1.600000e+000
         vertex 6.500000e+000 -4.000000e+000 0.000000e+000
      endloop
   endfacet
   facet normal -4.154151e-001 -9.096320e-001 0.000000e+000
      outer loop
         vertex 3.644213e+000 -6.474554e+000 1.600000e+000
         vertex 2.362848e+000 -5.889374e+000 1.600000e+000
         vertex 3.644213e+000 -6.474554e+000 0.000000e+000
      endloop
   endfacet
   facet normal -1.000000e+000 -0.000000e+000 -0.000000e+000
      outer loop
         vertex 1.601268e+000 -4.704331e+000 1.600000e+000
         vertex 1.601268e+000 -3.295669e+000 1.600000e+000
         vertex 1.601268e+000 -3.295669e+000 0.000000e+000
      endloop
   endfacet
   facet normal -4.154150e-001 9.096320e-001 0.000000e+000
      outer loop
         vertex 2.362848e+000 -2.110626e+000 1.600000e+000
         vertex 3.644213e+000 -1.525446e+000 1.600000e+000
         vertex 3.644213e+000 -1.525446e+000 0.000000e+000
      endloop
   endfacet
   facet normal 6.548608e-001 7.557495e-001 0.000000e+000
      outer loop
         vertex 5.038538e+000 -1.725920e+000 1.600000e+000
         vertex 6.103134e+000 -2.648398e+000 1.600000e+000
         vertex 5.038538e+000 -1.725920e+000 0.000000e+000
      endloop
   endfacet
   facet normal 9.594929e-001 2.817327e-001 -0.000000e+000
      outer loop
         vertex 6.500000e+000 -4.000000e+000 1.600000e+000
         vertex 6.103134e+000 -2.648398e+000 0.000000e+000
         vertex 6.103134e+000 -2.648398e+000 1.600000e+000
      endloop
   endfacet
   facet normal -8.412535e-001 5.406408e-001 0.000000e+000
      outer loop
         vertex 2.362848e+000 -2.110626e+000 1.600000e+000
         vertex 1.601268e+000 -3.295669e+000 0.000000e+000
         vertex 1.601268e+000 -3.295669e+000 1.600000e+000
      endloop
   endfacet
   facet normal 1.423150e-001 -9.898214e-001 0.000000e+000
      outer loop
         vertex 3.644213e+000 -6.474554e+000 1.600000e+000
         vertex 5.038538e+000 -6.274080e+000 0.000000e+000
         vertex 5.038538e+000 -6.274080e+000 1.600000e+000
      endloop
   endfacet
   facet normal -1.000000e+000 0.000000e+000 0.000000e+000
      outer loop
         vertex 1.601268e+000 -4.704331e+000 1.600000e+000
         vertex 1.601268e+000 -3.295669e+000 0.000000e+000
         vertex 1.601268e+000 -4.704331e+000 0.000000e+000
      endloop
   endfacet
   facet normal 6.548608e-001 7.557495e-001 0.000000e+000
      outer loop
         vertex 5.038538e+000 -1.725920e+000 0.000000e+000
         vertex 6.103134e+000 -2.648398e+000 1.600000e+000
         vertex 6.103134e+000 -2.648398e+000 0.000000e+000
      endloop
   endfacet
   facet normal -4.154150e-001 9.096320e-001 0.000000e+000
      outer loop
         vertex 3.644213e+000 -1.525446e+000 0.000000e+000
         vertex 2.362848e+000 -2.110626e+000 0.000000e+000
         vertex 2.362848e+000 -2.110626e+000 1.600000e+000
      endloop
   endfacet
   facet normal 6.548607e-001 -7.557496e-001 0.000000e+000
      outer loop
         vertex 5.038538e+000 -6.274080e+000 0.000000e+000
         vertex 6.103134e+000 -5.351602e+000 0.000000e+000
         vertex 5.038538e+000 -6.274080e+000 1.600000e+000
      endloop
   endfacet
   facet normal -8.412535e-001 -5.406409e-001 -0.000000e+000
      outer loop
         vertex 2.362848e+000 -5.889374e+000 1.600000e+000
         vertex 1.601268e+000 -4.704331e+000 1.600000e+000
         vertex 1.601268e+000 -4.704331e+000 0.000000e+000
      endloop
   endfacet
   facet normal 1.423148e-001 9.898214e-001 0.000000e+000
      outer loop
         vertex 5.038538e+000 -1.725920e+000 0.000000e+000
         vertex 3.644213e+000 -1.525446e+000 1.600000e+000
         vertex 5.038538e+000 -1.725920e+000 1.600000e+000
      endloop
   endfacet
   facet normal -4.154151e-001 -9.096320e-001 -0.000000e+000
      outer loop
         vertex 3.644213e+000 -6.474554e+000 0.000000e+000
         vertex 2.362848e+000 -5.889374e+000 1.600000e+000
         vertex 2.362848e+000 -5.889374e+000 0.000000e+000
      endloop
   endfacet
   facet normal 6.548607e-001 -7.557496e-001 0.000000e+000
      outer loop
         vertex 6.103134e+000 -5.351602e+000 1.600000e+000
         vertex 5.038538e+000 -6.274080e+000 1.600000e+000
         vertex 6.103134e+000 -5.351602e+000 0.000000e+000
      endloop
   endfacet
   facet normal 9.594929e-001 2.817327e-001 -0.000000e+000
      outer loop
         vertex 6.500000e+000 4.000000e+000 1.600000e+000
         vertex 6.500000e+000 4.000000e+000 0.000000e+000
         vertex 6.103134e+000 5.351602e+000 0.000000e+000
      endloop
   endfacet
   facet normal 1.423150e-001 9.898214e-001 -0.000000e+000
      outer loop
         vertex 5.038538e+000 6.274080e+000 0.000000e+000
         vertex 3.644213e+000 6.474554e+000 0.000000e+000
         vertex 3.644213e+000 6.474554e+000 1.600000e+000
      endloop
   endfacet
   facet normal -8.412535e-001 5.406409e-001 0.000000e+000
      outer loop
         vertex 2.362848e+000 5.889374e+000 0.000000e+000
         vertex 1.601268e+000 4.704331e+000 0.000000e+000
         vertex 2.362848e+000 5.889374e+000 1.600000e+000
      endloop
   endfacet
   facet normal -8.412535e-001 -5.406408e-001 0.000000e+000
      outer loop
         vertex 1.601268e+000 3.295669e+000 0.000000e+000
         vertex 2.362848e+000 2.110626e+000 0.000000e+000
         vertex 2.362848e+000 2.110626e+000 1.600000e+000
      endloop
   endfacet
   facet normal 1.423148e-001 -9.898214e-001 0.000000e+000
      outer loop
         vertex 3.644213e+000 1.525446e+000 0.000000e+000
         vertex 5.038538e+000 1.725920e+000 0.000000e+000
         vertex 3.644213e+000 1.525446e+000 1.600000e+000
      endloop
   endfacet
   facet normal 9.594929e-001 -2.817327e-001 0.000000e+000
      outer loop
         vertex 6.103134e+000 2.648398e+000 0.000000e+000
         vertex 6.500000e+000 4.000000e+000 0.000000e+000
         vertex 6.103134e+000 2.648398e+000 1.600000e+000
      endloop
   endfacet
   facet normal 9.594929e-001 -2.817327e-001 0.000000e+000
      outer loop
         vertex 6.500000e+000 4.000000e+000 1.600000e+000
         vertex 6.103134e+000 2.648398e+000 1.600000e+000
         vertex 6.500000e+000 4.000000e+000 0.000000e+000
      endloop
   endfacet
   facet normal -4.154150e-001 -9.096320e-001 0.000000e+000
      outer loop
         vertex 3.644213e+000 1.525446e+000 1.600000e+000
         vertex 2.362848e+000 2.110626e+000 1.600000e+000
         vertex 3.644213e+000 1.525446e+000 0.000000e+000
      endloop
   endfacet
   facet normal -1.000000e+000 -0.000000e+000 -0.000000e+000
      outer loop
         vertex 1.601268e+000 3.295669e+000 1.600000e+000
         vertex 1.601268e+000 4.704331e+000 1.600000e+000
         vertex 1.601268e+000 4.704331e+000 0.000000e+000
      endloop
   endfacet
   facet normal -4.154151e-001 9.096320e-001 0.000000e+000
      outer loop
         vertex 2.362848e+000 5.889374e+000 1.600000e+000
         vertex 3.644213e+000 6.474554e+000 1.600000e+000
         vertex 3.644213e+000 6.474554e+000 0.000000e+000
      endloop
   endfacet
   facet normal 6.548607e-001 7.557496e-001 0.000000e+000
      outer loop
         vertex 5.038538e+000 6.274080e+000 1.600000e+000
         vertex 6.103134e+000 5.351602e+000 1.600000e+000
         vertex 5.038538e+000 6.274080e+000 0.000000e+000
      endloop
   endfacet
   facet normal 9.594929e-001 2.817327e-001 -0.000000e+000
      outer loop
         vertex 6.500000e+000 4.000000e+000 1.600000e+000
         vertex 6.103134e+000 5.351602e+000 0.000000e+000
         vertex 6.103134e+000 5.351602e+000 1.600000e+000
      endloop
   endfacet
   facet normal -8.412535e-001 5.406409e-001 0.000000e+000
      outer loop
         vertex 2.362848e+000 5.889374e+000 1.600000e+000
         vertex 1.601268e+000 4.704331e+000 0.000000e+000
         vertex 1.601268e+000 4.704331e+000 1.600000e+000
      endloop
   endfacet
   facet normal 1.423148e-001 -9.898214e-001 0.000000e+000
      outer loop
         vertex 3.644213e+000 1.525446e+000 1.600000e+000
         vertex 5.038538e+000 1.725920e+000 0.000000e+000
         vertex 5.038538e+000 1.725920e+000 1.600000e+000
      endloop
   endfacet
   facet normal -1.000000e+000 0.000000e+000 0.000000e+000
      outer loop
         vertex 1.601268e+000 3.295669e+000 1.600000e+000
         vertex 1.601268e+000 4.704331e+000 0.000000e+000
         vertex 1.601268e+000 3.295669e+000 0.000000e+000
      endloop
   endfacet
   facet normal 6.548607e-001 7.557496e-001 0.000000e+000
      outer loop
         vertex 5.038538e+000 6.274080e+000 0.000000e+000
         vertex 6.103134e+000 5.351602e+000 1.600000e+000
         vertex 6.103134e+000 5.351602e+000 0.000000e+000
      endloop
   endfacet
   facet normal -4.154151e-001 9.096320e-001 0.000000e+000
      outer loop
         vertex 3.644213e+000 6.474554e+000 0.000000e+000
         vertex 2.362848e+000 5.889374e+000 0.000000e+000
         vertex 2.362848e+000 5.889374e+000 1.600000e+000
      endloop
   endfacet
   facet normal 6.548608e-001 -7.557495e-001 0.000000e+000
      outer loop
         vertex 5.038538e+000 1.725920e+000 0.000000e+000
         vertex 6.103134e+000 2.648398e+000 0.000000e+000
         vertex 5.038538e+000 1.725920e+000 1.600000e+000
      endloop
   endfacet
   facet normal -8.412535e-001 -5.406408e-001 -0.000000e+000
      outer loop
         vertex 2.362848e+000 2.110626e+000 1.600000e+000
         vertex 1.601268e+000 3.295669e+000 1.600000e+000
         vertex 1.601268e+000 3.295669e+000 0.000000e+000
      endloop
   endfacet
   facet normal 1.423150e-001 9.898214e-001 0.000000e+000
      outer loop
         vertex 5.038538e+000 6.274080e+000 0.000000e+000
         vertex 3.644213e+000 6.474554e+000 1.600000e+000
         vertex 5.038538e+000 6.274080e+000 1.600000e+000
      endloop
   endfacet
   facet normal -4.154150e-001 -9.096320e-001 -0.000000e+000
      outer loop
         vertex 3.644213e+000 1.525446e+000 0.000000e+000
         vertex 2.362848e+000 2.110626e+000 1.600000e+000
         vertex 2.362848e+000 2.110626e+000 0.000000e+000
      endloop
   endfacet
   facet normal 6.548608e-001 -7.557495e-001 0.000000e+000
      outer loop
         vertex 6.103134e+000 2.648398e+000 1.600000e+000
         vertex 5.038538e+000 1.725920e+000 1.600000e+000
         vertex 6.103134e+000 2.648398e+000 0.000000e+000
      endloop
   endfacet
   facet normal 9.594930e-001 2.817326e-001 -0.000000e+000
      outer loop
         vertex -1.500000e+000 4.000000e+000 1.600000e+000
         vertex -1.500000e+000 4.000000e+000 0.000000e+000
         vertex -1.896866e+000 5.351602e+000 0.000000e+000
      endloop
   endfacet
   facet normal 1.423149e-001 9.898214e-001 -0.000000e+000
      outer loop
         vertex -2.961462e+000 6.274080e+000 0.000000e+000
         vertex -4.355787e+000 6.474554e+000 0.000000e+000
         vertex -4.355787e+000 6.474554e+000 1.600000e+000
      endloop
   endfacet
   facet normal -8.412534e-001 5.406410e-001 0.000000e+000
      outer loop
         vertex -5.637152e+000 5.889374e+000 0.000000e+000
         vertex -6.398733e+000 4.704331e+000 0.000000e+000
         vertex -5.637152e+000 5.889374e+000 1.600000e+000
      endloop
   endfacet
   facet normal -8.412534e-001 -5.406410e-001 0.000000e+000
      outer loop
         vertex -6.398733e+000 3.295669e+000 0.000000e+000
         vertex -5.637152e+000 2.110626e+000 0.000000e+000
         vertex -5.637152e+000 2.110626e+000 1.600000e+000
      endloop
   endfacet
   facet normal 1.423148e-001 -9.898215e-001 0.000000e+000
      outer loop
         vertex -4.355787e+000 1.525446e+000 0.000000e+000
         vertex -2.961462e+000 1.725920e+000 0.000000e+000
         vertex -4.355787e+000 1.525446e+000 1.600000e+000
      endloop
   endfacet
   facet normal 9.594930e-001 -2.817326e-001 0.000000e+000
      outer loop
         vertex -1.896866e+000 2.648398e+000 0.000000e+000
         vertex -1.500000e+000 4.000000e+000 0.000000e+000
         vertex -1.896866e+000 2.648398e+000 1.600000e+000
      endloop
   endfacet
   facet normal 9.594930e-001 -2.817326e-001 0.000000e+000
      outer loop
         vertex -1.500000e+000 4.000000e+000 1.600000e+000
         vertex -1.896866e+000 2.648398e+000 1.600000e+000
         vertex -1.500000e+000 4.000000e+000 0.000000e+000
      endloop
   endfacet
   facet normal -4.154150e-001 -9.096320e-001 0.000000e+000
      outer loop
         vertex -4.355787e+000 1.525446e+000 1.600000e+000
         vertex -5.637152e+000 2.110626e+000 1.600000e+000
         vertex -4.355787e+000 1.525446e+000 0.000000e+000
      endloop
   endfacet
   facet normal -1.000000e+000 -0.000000e+000 -0.000000e+000
      outer loop
         vertex -6.398733e+000 3.295669e+000 1.600000e+000
         vertex -6.398733e+000 4.704331e+000 1.600000e+000
         vertex -6.398733e+000 4.704331e+000 0.000000e+000
      endloop
   endfacet
   facet normal -4.154152e-001 9.096319e-001 0.000000e+000
      outer loop
         vertex -5.637152e+000 5.889374e+000 1.600000e+000
         vertex -4.355787e+000 6.474554e+000 1.600000e+000
         vertex -4.355787e+000 6.474554e+000 0.000000e+000
      endloop
   endfacet
   facet normal 6.548606e-001 7.557497e-001 0.000000e+000
      outer loop
         vertex -2.961462e+000 6.274080e+000 1.600000e+000
         vertex -1.896866e+000 5.351602e+000 1.600000e+000
         vertex -2.961462e+000 6.274080e+000 0.000000e+000
      endloop
   endfacet
   facet normal 9.594930e-001 2.817326e-001 -0.000000e+000
      outer loop
         vertex -1.500000e+000 4.000000e+000 1.600000e+000
         vertex -1.896866e+000 5.351602e+000 0.000000e+000
         vertex -1.896866e+000 5.351602e+000 1.600000e+000
      endloop
   endfacet
   facet normal -8.412534e-001 5.406410e-001 0.000000e+000
      outer loop
         vertex -5.637152e+000 5.889374e+000 1.600000e+000
         vertex -6.398733e+000 4.704331e+000 0.000000e+000
         vertex -6.398733e+000 4.704331e+000 1.600000e+000
      endloop
   endfacet
   facet normal 1.423148e-001 -9.898215e-001 0.000000e+000
      outer loop
         vertex -4.355787e+000 1.525446e+000 1.600000e+000
         vertex -2.961462e+000 1.725920e+000 0.000000e+000
         vertex -2.961462e+000 1.725920e+000 1.600000e+000
      endloop
   endfacet
   facet normal -1.000000e+000 0.000000e+000 0.000000e+000
      outer loop
         vertex -6.398733e+000 3.295669e+000 1.600000e+000
         vertex -6.398733e+000 4.704331e+000 0.000000e+000
         vertex -6.398733e+000 3.295669e+000 0.000000e+000
      endloop
   endfacet
   facet normal 6.548606e-001 7.557497e-001 0.000000e+000
      outer loop
         vertex -2.961462e+000 6.274080e+000 0.000000e+000
         vertex -1.896866e+000 5.351602e+000 1.600000e+000
         vertex -1.896866e+000 5.351602e+000 0.000000e+000
      endloop
   endfacet
   facet normal -4.154152e-001 9.096319e-001 0.000000e+000
      outer loop
         vertex -4.355787e+000 6.474554e+000 0.000000e+000
         vertex -5.637152e+000 5.889374e+000 0.000000e+000
         vertex -5.637152e+000 5.889374e+000 1.600000e+000
      endloop
   endfacet
   facet normal 6.548607e-001 -7.557496e-001 0.000000e+000
      outer loop
         vertex -2.961462e+000 1.725920e+000 0.000000e+000
         vertex -1.896866e+000 2.648398e+000 0.000000e+000
         vertex -2.961462e+000 1.725920e+000 1.600000e+000
      endloop
   endfacet
   facet normal -8.412534e-001 -5.406410e-001 -0.000000e+000
      outer loop
         vertex -5.637152e+000 2.110626e+000 1.600000e+000
         vertex -6.398733e+000 3.295669e+000 1.600000e+000
         vertex -6.398733e+000 3.295669e+000 0.000000e+000
      endloop
   endfacet
   facet normal 1.423149e-001 9.898214e-001 0.000000e+000
      outer loop
         vertex -2.961462e+000 6.274080e+000 0.000000e+000
         vertex -4.355787e+000 6.474554e+000 1.600000e+000
         vertex -2.961462e+000 6.274080e+000 1.600000e+000
      endloop
   endfacet
   facet normal -4.154150e-001 -9.096320e-001 -0.000000e+000
      outer loop
         vertex -4.355787e+000 1.525446e+000 0.000000e+000
         vertex -5.637152e+000 2.110626e+000 1.600000e+000
         vertex -5.637152e+000 2.110626e+000 0.000000e+000
      endloop
   endfacet
   facet normal 6.548607e-001 -7.557496e-001 0.000000e+000
      outer loop
         vertex -1.896866e+000 2.648398e+000 1.600000e+000
         vertex -2.961462e+000 1.725920e+000 1.600000e+000
         vertex -1.896866e+000 2.648398e+000 0.000000e+000
      endloop
   endfacet
   facet normal 0.000000e+000 0.000000e+000 1.000000e+000
      outer loop
         vertex 1.386879e+001 4.765618e-001 0.000000e+000
         vertex 1.054715e+001 7.599843e+000 0.000000e+000
         vertex 6.500000e+000 4.000000e+000 0.000000e+000
      endloop
   endfacet
   facet normal 0.000000e+000 0.000000e+000 1.000000e+000
      outer loop
         vertex 8.322279e+000 9.986975e+000 0.000000e+000
         vertex 5.573032e+000 1.174484e+001 0.000000e+000
         vertex 5.038538e+000 6.274080e+000 0.000000e+000
      endloop
   endfacet
   facet normal 0.000000e+000 0.000000e+000 1.000000e+000
      outer loop
         vertex 2.472636e+000 1.276268e+001 0.000000e+000
         vertex -7.835569e-001 1.297636e+001 0.000000e+000
         vertex 2.362848e+000 5.889374e+000 0.000000e+000
      endloop
   endfacet
   facet normal -0.000000e+000 0.000000e+000 1.000000e+000
      outer loop
         vertex -3.990380e+000 1.237242e+001 0.000000e+000
         vertex -6.945774e+000 1.098891e+001 0.000000e+000
         vertex -4.355787e+000 6.474554e+000 0.000000e+000
      endloop
   endfacet
   facet normal -0.000000e+000 0.000000e+000 1.000000e+000
      outer loop
         vertex -9.463525e+000 8.913008e+000 0.000000e+000
         vertex -1.138499e+001 6.275505e+000 0.000000e+000
         vertex -6.398733e+000 4.704331e+000 0.000000e+000
      endloop
   endfacet
   facet normal 0.000000e+000 0.000000e+000 1.000000e+000
      outer loop
         vertex -1.258911e+001 3.242592e+000 0.000000e+000
         vertex -1.300000e+001 5.367450e-003 0.000000e+000
         vertex -6.398733e+000 3.295669e+000 0.000000e+000
      endloop
   endfacet
   facet normal 0.000000e+000 -0.000000e+000 1.000000e+000
      outer loop
         vertex -1.259178e+001 -3.232195e+000 0.000000e+000
         vertex -1.139017e+001 -6.266102e+000 0.000000e+000
         vertex -6.398733e+000 -3.295669e+000 0.000000e+000
      endloop
   endfacet
   facet normal 0.000000e+000 -0.000000e+000 1.000000e+000
      outer loop
         vertex -9.470881e+000 -8.905190e+000 0.000000e+000
         vertex -6.954845e+000 -1.098317e+001 0.000000e+000
         vertex -5.637152e+000 -5.889374e+000 0.000000e+000
      endloop
   endfacet
   facet normal 0.000000e+000 0.000000e+000 1.000000e+000
      outer loop
         vertex -4.000595e+000 -1.236912e+001 0.000000e+000
         vertex -7.942721e-001 -1.297571e+001 0.000000e+000
         vertex -2.961462e+000 -6.274080e+000 0.000000e+000
      endloop
   endfacet
   facet normal 0.000000e+000 0.000000e+000 1.000000e+000
      outer loop
         vertex 2.462097e+000 -1.276472e+001 0.000000e+000
         vertex 5.563332e+000 -1.174944e+001 0.000000e+000
         vertex 3.644213e+000 -6.474554e+000 0.000000e+000
      endloop
   endfacet
   facet normal 0.000000e+000 0.000000e+000 1.000000e+000
      outer loop
         vertex 8.314030e+000 -9.993844e+000 0.000000e+000
         vertex 1.054087e+001 -7.608549e+000 0.000000e+000
         vertex 6.103134e+000 -5.351602e+000 0.000000e+000
      endloop
   endfacet
   facet normal 0.000000e+000 0.000000e+000 1.000000e+000
      outer loop
         vertex 1.386925e+001 -4.522049e-001 0.000000e+000
         vertex 1.397185e+001 1.222969e-002 0.000000e+000
         vertex 1.386879e+001 4.765618e-001 0.000000e+000
      endloop
   endfacet
   facet normal 0.000000e+000 0.000000e+000 1.000000e+000
      outer loop
         vertex -1.500000e+000 4.000000e+000 0.000000e+000
         vertex -1.896866e+000 2.648398e+000 0.000000e+000
         vertex 1.601268e+000 3.295669e+000 0.000000e+000
      endloop
   endfacet
   facet normal -0.000000e+000 0.000000e+000 1.000000e+000
      outer loop
         vertex -2.961462e+000 1.725920e+000 0.000000e+000
         vertex -4.355787e+000 1.525446e+000 0.000000e+000
         vertex -4.355787e+000 -1.525446e+000 0.000000e+000
      endloop
   endfacet
   facet normal 0.000000e+000 0.000000e+000 1.000000e+000
      outer loop
         vertex -5.637152e+000 2.110626e+000 0.000000e+000
         vertex -6.398733e+000 3.295669e+000 0.000000e+000
         vertex -1.300000e+001 5.367450e-003 0.000000e+000
      endloop
   endfacet
   facet normal 0.000000e+000 0.000000e+000 1.000000e+000
      outer loop
         vertex -6.398733e+000 4.704331e+000 0.000000e+000
         vertex -5.637152e+000 5.889374e+000 0.000000e+000
         vertex -9.463525e+000 8.913008e+000 0.000000e+000
      endloop
   endfacet
   facet normal 0.000000e+000 0.000000e+000 1.000000e+000
      outer loop
         vertex -4.355787e+000 6.474554e+000 0.000000e+000
         vertex -2.961462e+000 6.274080e+000 0.000000e+000
         vertex -3.990380e+000 1.237242e+001 0.000000e+000
      endloop
   endfacet
   facet normal 0.000000e+000 -0.000000e+000 1.000000e+000
      outer loop
         vertex 6.103134e+000 5.351602e+000 0.000000e+000
         vertex 6.500000e+000 4.000000e+000 0.000000e+000
         vertex 1.054715e+001 7.599843e+000 0.000000e+000
      endloop
   endfacet
   facet normal -0.000000e+000 0.000000e+000 1.000000e+000
      outer loop
         vertex 6.103134e+000 2.648398e+000 0.000000e+000
         vertex 5.038538e+000 1.725920e+000 0.000000e+000
         vertex 5.038538e+000 -1.725920e+000 0.000000e+000
      endloop
   endfacet
   facet normal 0.000000e+000 0.000000e+000 1.000000e+000
      outer loop
         vertex 3.644213e+000 1.525446e+000 0.000000e+000
         vertex 2.362848e+000 2.110626e+000 0.000000e+000
         vertex 2.362848e+000 -2.110626e+000 0.000000e+000
      endloop
   endfacet
   facet normal 0.000000e+000 0.000000e+000 1.000000e+000
      outer loop
         vertex 1.601268e+000 3.295669e+000 0.000000e+000
         vertex 1.601268e+000 4.704331e+000 0.000000e+000
         vertex -1.500000e+000 4.000000e+000 0.000000e+000
      endloop
   endfacet
   facet normal 0.000000e+000 0.000000e+000 1.000000e+000
      outer loop
         vertex 2.362848e+000 5.889374e+000 0.000000e+000
         vertex 3.644213e+000 6.474554e+000 0.000000e+000
         vertex 2.472636e+000 1.276268e+001 0.000000e+000
      endloop
   endfacet
   facet normal 0.000000e+000 -0.000000e+000 1.000000e+000
      outer loop
         vertex 5.038538e+000 6.274080e+000 0.000000e+000
         vertex 6.103134e+000 5.351602e+000 0.000000e+000
         vertex 8.322279e+000 9.986975e+000 0.000000e+000
      endloop
   endfacet
   facet normal -0.000000e+000 0.000000e+000 1.000000e+000
      outer loop
         vertex 6.500000e+000 -4.000000e+000 0.000000e+000
         vertex 6.103134e+000 -5.351602e+000 0.000000e+000
         vertex 1.054087e+001 -7.608549e+000 0.000000e+000
      endloop
   endfacet
   facet normal -0.000000e+000 0.000000e+000 1.000000e+000
      outer loop
         vertex 5.038538e+000 -6.274080e+000 0.000000e+000
         vertex 3.644213e+000 -6.474554e+000 0.000000e+000
         vertex 5.563332e+000 -1.174944e+001 0.000000e+000
      endloop
   endfacet
   facet normal 0.000000e+000 0.000000e+000 1.000000e+000
      outer loop
         vertex 2.362848e+000 -5.889374e+000 0.000000e+000
         vertex 1.601268e+000 -4.704331e+000 0.000000e+000
         vertex -1.896866e+000 -5.351602e+000 0.000000e+000
      endloop
   endfacet
   facet normal 0.000000e+000 0.000000e+000 1.000000e+000
      outer loop
         vertex 1.601268e+000 -3.295669e+000 0.000000e+000
         vertex 2.362848e+000 -2.110626e+000 0.000000e+000
         vertex -1.896866e+000 -2.648398e+000 0.000000e+000
      endloop
   endfacet
   facet normal 0.000000e+000 -0.000000e+000 1.000000e+000
      outer loop
         vertex 3.644213e+000 -1.525446e+000 0.000000e+000
         vertex 5.038538e+000 -1.725920e+000 0.000000e+000
         vertex 5.038538e+000 1.725920e+000 0.000000e+000
      endloop
   endfacet
   facet normal 0.000000e+000 -0.000000e+000 1.000000e+000
      outer loop
         vertex -1.896866e+000 -2.648398e+000 0.000000e+000
         vertex -1.500000e+000 -4.000000e+000 0.000000e+000
         vertex 1.601268e+000 -3.295669e+000 0.000000e+000
      endloop
   endfacet
   facet normal 0.000000e+000 0.000000e+000 1.000000e+000
      outer loop
         vertex -1.896866e+000 -5.351602e+000 0.000000e+000
         vertex -2.961462e+000 -6.274080e+000 0.000000e+000
         vertex 2.362848e+000 -5.889374e+000 0.000000e+000
      endloop
   endfacet
   facet normal 0.000000e+000 0.000000e+000 1.000000e+000
      outer loop
         vertex -4.355787e+000 -6.474554e+000 0.000000e+000
         vertex -5.637152e+000 -5.889374e+000 0.000000e+000
         vertex -6.954845e+000 -1.098317e+001 0.000000e+000
      endloop
   endfacet
   facet normal 0.000000e+000 0.000000e+000 1.000000e+000
      outer loop
         vertex -6.398733e+000 -4.704331e+000 0.000000e+000
         vertex -6.398733e+000 -3.295669e+000 0.000000e+000
         vertex -1.139017e+001 -6.266102e+000 0.000000e+000
      endloop
   endfacet
   facet normal 0.000000e+000 0.000000e+000 1.000000e+000
      outer loop
         vertex -5.637152e+000 -2.110626e+000 0.000000e+000
         vertex -4.355787e+000 -1.525446e+000 0.000000e+000
         vertex -5.637152e+000 2.110626e+000 0.000000e+000
      endloop
   endfacet
   facet normal 0.000000e+000 -0.000000e+000 1.000000e+000
      outer loop
         vertex -2.961462e+000 -1.725920e+000 0.000000e+000
         vertex -1.896866e+000 -2.648398e+000 0.000000e+000
         vertex -1.896866e+000 2.648398e+000 0.000000e+000
      endloop
   endfacet
   facet normal 0.000000e+000 0.000000e+000 1.000000e+000
      outer loop
         vertex 5.038538e+000 6.274080e+000 0.000000e+000
         vertex 5.573032e+000 1.174484e+001 0.000000e+000
         vertex 3.644213e+000 6.474554e+000 0.000000e+000
      endloop
   endfacet
   facet normal 0.000000e+000 0.000000e+000 1.000000e+000
      outer loop
         vertex -6.398733e+000 4.704331e+000 0.000000e+000
         vertex -1.138499e+001 6.275505e+000 0.000000e+000
         vertex -6.398733e+000 3.295669e+000 0.000000e+000
      endloop
   endfacet
   facet normal 0.000000e+000 0.000000e+000 1.000000e+000
      outer loop
         vertex -9.470881e+000 -8.905190e+000 0.000000e+000
         vertex -5.637152e+000 -5.889374e+000 0.000000e+000
         vertex -6.398733e+000 -4.704331e+000 0.000000e+000
      endloop
   endfacet
   facet normal 0.000000e+000 0.000000e+000 1.000000e+000
      outer loop
         vertex 2.462097e+000 -1.276472e+001 0.000000e+000
         vertex 3.644213e+000 -6.474554e+000 0.000000e+000
         vertex 2.362848e+000 -5.889374e+000 0.000000e+000
      endloop
   endfacet
   facet normal -0.000000e+000 0.000000e+000 1.000000e+000
      outer loop
         vertex 1.601268e+000 3.295669e+000 0.000000e+000
         vertex -1.896866e+000 2.648398e+000 0.000000e+000
         vertex 2.362848e+000 2.110626e+000 0.000000e+000
      endloop
   endfacet
   facet normal -0.000000e+000 0.000000e+000 1.000000e+000
      outer loop
         vertex -5.637152e+000 2.110626e+000 0.000000e+000
         vertex -1.300000e+001 5.367450e-003 0.000000e+000
         vertex -5.637152e+000 -2.110626e+000 0.000000e+000
      endloop
   endfacet
   facet normal 0.000000e+000 -0.000000e+000 1.000000e+000
      outer loop
         vertex -3.990380e+000 1.237242e+001 0.000000e+000
         vertex -2.961462e+000 6.274080e+000 0.000000e+000
         vertex -7.835569e-001 1.297636e+001 0.000000e+000
      endloop
   endfacet
   facet normal 0.000000e+000 0.000000e+000 1.000000e+000
      outer loop
         vertex 3.644213e+000 1.525446e+000 0.000000e+000
         vertex 2.362848e+000 -2.110626e+000 0.000000e+000
         vertex 3.644213e+000 -1.525446e+000 0.000000e+000
      endloop
   endfacet
   facet normal 0.000000e+000 -0.000000e+000 1.000000e+000
      outer loop
         vertex 2.472636e+000 1.276268e+001 0.000000e+000
         vertex 3.644213e+000 6.474554e+000 0.000000e+000
         vertex 5.573032e+000 1.174484e+001 0.000000e+000
      endloop
   endfacet
   facet normal 0.000000e+000 -0.000000e+000 1.000000e+000
      outer loop
         vertex 5.038538e+000 -6.274080e+000 0.000000e+000
         vertex 5.563332e+000 -1.174944e+001 0.000000e+000
         vertex 8.314030e+000 -9.993844e+000 0.000000e+000
      endloop
   endfacet
   facet normal 0.000000e+000 0.000000e+000 1.000000e+000
      outer loop
         vertex 3.644213e+000 -1.525446e+000 0.000000e+000
         vertex 5.038538e+000 1.725920e+000 0.000000e+000
         vertex 3.644213e+000 1.525446e+000 0.000000e+000
      endloop
   endfacet
   facet normal -0.000000e+000 0.000000e+000 1.000000e+000
      outer loop
         vertex -4.355787e+000 -6.474554e+000 0.000000e+000
         vertex -6.954845e+000 -1.098317e+001 0.000000e+000
         vertex -4.000595e+000 -1.236912e+001 0.000000e+000
      endloop
   endfacet
   facet normal 0.000000e+000 0.000000e+000 1.000000e+000
      outer loop
         vertex -2.961462e+000 -1.725920e+000 0.000000e+000
         vertex -1.896866e+000 2.648398e+000 0.000000e+000
         vertex -2.961462e+000 1.725920e+000 0.000000e+000
      endloop
   endfacet
   facet normal 0.000000e+000 0.000000e+000 1.000000e+000
      outer loop
         vertex -9.470881e+000 -8.905190e+000 0.000000e+000
         vertex -6.398733e+000 -4.704331e+000 0.000000e+000
         vertex -1.139017e+001 -6.266102e+000 0.000000e+000
      endloop
   endfacet
   facet normal -0.000000e+000 0.000000e+000 1.000000e+000
      outer loop
         vertex -7.835569e-001 1.297636e+001 0.000000e+000
         vertex -2.961462e+000 6.274080e+000 0.000000e+000
         vertex 2.362848e+000 5.889374e+000 0.000000e+000
      endloop
   endfacet
   facet normal 0.000000e+000 0.000000e+000 1.000000e+000
      outer loop
         vertex -2.961462e+000 -1.725920e+000 0.000000e+000
         vertex -2.961462e+000 1.725920e+000 0.000000e+000
         vertex -4.355787e+000 -1.525446e+000 0.000000e+000
      endloop
   endfacet
   facet normal 0.000000e+000 0.000000e+000 1.000000e+000
      outer loop
         vertex 1.054715e+001 7.599843e+000 0.000000e+000
         vertex 8.322279e+000 9.986975e+000 0.000000e+000
         vertex 6.103134e+000 5.351602e+000 0.000000e+000
      endloop
   endfacet
   facet normal 0.000000e+000 0.000000e+000 1.000000e+000
      outer loop
         vertex -1.138499e+001 6.275505e+000 0.000000e+000
         vertex -1.258911e+001 3.242592e+000 0.000000e+000
         vertex -6.398733e+000 3.295669e+000 0.000000e+000
      endloop
   endfacet
   facet normal 0.000000e+000 0.000000e+000 1.000000e+000
      outer loop
         vertex -7.942721e-001 -1.297571e+001 0.000000e+000
         vertex 2.462097e+000 -1.276472e+001 0.000000e+000
         vertex 2.362848e+000 -5.889374e+000 0.000000e+000
      endloop
   endfacet
   facet normal 0.000000e+000 -0.000000e+000 1.000000e+000
      outer loop
         vertex -1.896866e+000 5.351602e+000 0.000000e+000
         vertex -1.500000e+000 4.000000e+000 0.000000e+000
         vertex 1.601268e+000 4.704331e+000 0.000000e+000
      endloop
   endfacet
   facet normal 0.000000e+000 0.000000e+000 1.000000e+000
      outer loop
         vertex -5.637152e+000 5.889374e+000 0.000000e+000
         vertex -4.355787e+000 6.474554e+000 0.000000e+000
         vertex -6.945774e+000 1.098891e+001 0.000000e+000
      endloop
   endfacet
   facet normal -0.000000e+000 0.000000e+000 1.000000e+000
      outer loop
         vertex 6.500000e+000 4.000000e+000 0.000000e+000
         vertex 6.103134e+000 2.648398e+000 0.000000e+000
         vertex 1.386879e+001 4.765618e-001 0.000000e+000
      endloop
   endfacet
   facet normal 0.000000e+000 -0.000000e+000 1.000000e+000
      outer loop
         vertex 6.103134e+000 -2.648398e+000 0.000000e+000
         vertex 6.500000e+000 -4.000000e+000 0.000000e+000
         vertex 1.386925e+001 -4.522049e-001 0.000000e+000
      endloop
   endfacet
   facet normal 0.000000e+000 0.000000e+000 1.000000e+000
      outer loop
         vertex 1.601268e+000 -4.704331e+000 0.000000e+000
         vertex 1.601268e+000 -3.295669e+000 0.000000e+000
         vertex -1.500000e+000 -4.000000e+000 0.000000e+000
      endloop
   endfacet
   facet normal 0.000000e+000 0.000000e+000 1.000000e+000
      outer loop
         vertex -1.500000e+000 -4.000000e+000 0.000000e+000
         vertex -1.896866e+000 -5.351602e+000 0.000000e+000
         vertex 1.601268e+000 -4.704331e+000 0.000000e+000
      endloop
   endfacet
   facet normal 0.000000e+000 0.000000e+000 1.000000e+000
      outer loop
         vertex -6.398733e+000 -3.295669e+000 0.000000e+000
         vertex -5.637152e+000 -2.110626e+000 0.000000e+000
         vertex -1.300000e+001 5.367450e-003 0.000000e+000
      endloop
   endfacet
   facet normal 0.000000e+000 0.000000e+000 1.000000e+000
      outer loop
         vertex -4.000595e+000 -1.236912e+001 0.000000e+000
         vertex -2.961462e+000 -6.274080e+000 0.000000e+000
         vertex -4.355787e+000 -6.474554e+000 0.000000e+000
      endloop
   endfacet
   facet normal 0.000000e+000 0.000000e+000 1.000000e+000
      outer loop
         vertex 1.386925e+001 -4.522049e-001 0.000000e+000
         vertex 1.386879e+001 4.765618e-001 0.000000e+000
         vertex 6.103134e+000 2.648398e+000 0.000000e+000
      endloop
   endfacet
   facet normal 0.000000e+000 0.000000e+000 1.000000e+000
      outer loop
         vertex -9.463525e+000 8.913008e+000 0.000000e+000
         vertex -5.637152e+000 5.889374e+000 0.000000e+000
         vertex -6.945774e+000 1.098891e+001 0.000000e+000
      endloop
   endfacet
   facet normal 0.000000e+000 -0.000000e+000 1.000000e+000
      outer loop
         vertex 6.500000e+000 -4.000000e+000 0.000000e+000
         vertex 1.054087e+001 -7.608549e+000 0.000000e+000
         vertex 1.386925e+001 -4.522049e-001 0.000000e+000
      endloop
   endfacet
   facet normal 0.000000e+000 -0.000000e+000 1.000000e+000
      outer loop
         vertex -5.637152e+000 2.110626e+000 0.000000e+000
         vertex -4.355787e+000 -1.525446e+000 0.000000e+000
         vertex -4.355787e+000 1.525446e+000 0.000000e+000
      endloop
   endfacet
   facet normal 0.000000e+000 0.000000e+000 1.000000e+000
      outer loop
         vertex 2.362848e+000 5.889374e+000 0.000000e+000
         vertex -2.961462e+000 6.274080e+000 0.000000e+000
         vertex -1.896866e+000 5.351602e+000 0.000000e+000
      endloop
   endfacet
   facet normal 0.000000e+000 0.000000e+000 1.000000e+000
      outer loop
         vertex 6.103134e+000 -2.648398e+000 0.000000e+000
         vertex 1.386925e+001 -4.522049e-001 0.000000e+000
         vertex 6.103134e+000 2.648398e+000 0.000000e+000
      endloop
   endfacet
   facet normal -0.000000e+000 0.000000e+000 1.000000e+000
      outer loop
         vertex 2.362848e+000 5.889374e+000 0.000000e+000
         vertex -1.896866e+000 5.351602e+000 0.000000e+000
         vertex 1.601268e+000 4.704331e+000 0.000000e+000
      endloop
   endfacet
   facet normal -0.000000e+000 -0.000000e+000 1.000000e+000
      outer loop
         vertex -1.300000e+001 5.367450e-003 0.000000e+000
         vertex -1.259178e+001 -3.232195e+000 0.000000e+000
         vertex -6.398733e+000 -3.295669e+000 0.000000e+000
      endloop
   endfacet
   facet normal 0.000000e+000 -0.000000e+000 1.000000e+000
      outer loop
         vertex 5.038538e+000 -1.725920e+000 0.000000e+000
         vertex 6.103134e+000 -2.648398e+000 0.000000e+000
         vertex 6.103134e+000 2.648398e+000 0.000000e+000
      endloop
   endfacet
   facet normal 0.000000e+000 0.000000e+000 1.000000e+000
      outer loop
         vertex 8.314030e+000 -9.993844e+000 0.000000e+000
         vertex 6.103134e+000 -5.351602e+000 0.000000e+000
         vertex 5.038538e+000 -6.274080e+000 0.000000e+000
      endloop
   endfacet
   facet normal -0.000000e+000 0.000000e+000 1.000000e+000
      outer loop
         vertex 2.362848e+000 -5.889374e+000 0.000000e+000
         vertex -2.961462e+000 -6.274080e+000 0.000000e+000
         vertex -7.942721e-001 -1.297571e+001 0.000000e+000
      endloop
   endfacet
   facet normal 0.000000e+000 0.000000e+000 1.000000e+000
      outer loop
         vertex 2.362848e+000 -2.110626e+000 0.000000e+000
         vertex 2.362848e+000 2.110626e+000 0.000000e+000
         vertex -1.896866e+000 2.648398e+000 0.000000e+000
      endloop
   endfacet
   facet normal 0.000000e+000 0.000000e+000 1.000000e+000
      outer loop
         vertex -1.896866e+000 2.648398e+000 0.000000e+000
         vertex -1.896866e+000 -2.648398e+000 0.000000e+000
         vertex 2.362848e+000 -2.110626e+000 0.000000e+000
      endloop
   endfacet
   facet normal 6.923412e-001 2.032897e-001 6.923416e-001
      outer loop
         vertex -1.700000e+000 -4.000000e+000 1.800000e+000
         vertex -1.500000e+000 -4.000000e+000 1.600000e+000
         vertex -1.896866e+000 -2.648398e+000 1.600000e+000
      endloop
   endfacet
   facet normal 1.026901e-001 7.142255e-001 6.923415e-001
      outer loop
         vertex -2.961462e+000 -1.725920e+000 1.600000e+000
         vertex -4.355787e+000 -1.525446e+000 1.600000e+000
         vertex -4.327324e+000 -1.723411e+000 1.800000e+000
      endloop
   endfacet
   facet normal -6.070230e-001 3.901101e-001 6.923418e-001
      outer loop
         vertex -5.637152e+000 -2.110626e+000 1.600000e+000
         vertex -6.398733e+000 -3.295669e+000 1.600000e+000
         vertex -6.206834e+000 -3.352015e+000 1.800000e+000
      endloop
   endfacet
   facet normal -6.070236e-001 -3.901106e-001 6.923410e-001
      outer loop
         vertex -6.398733e+000 -4.704331e+000 1.600000e+000
         vertex -5.637152e+000 -5.889374e+000 1.600000e+000
         vertex -5.506180e+000 -5.738224e+000 1.800000e+000
      endloop
   endfacet
   facet normal 1.026902e-001 -7.142257e-001 6.923413e-001
      outer loop
         vertex -4.355787e+000 -6.474554e+000 1.600000e+000
         vertex -2.961462e+000 -6.274080e+000 1.600000e+000
         vertex -3.044545e+000 -6.092154e+000 1.800000e+000
      endloop
   endfacet
   facet normal 6.923412e-001 -2.032897e-001 6.923416e-001
      outer loop
         vertex -1.896866e+000 -5.351602e+000 1.600000e+000
         vertex -1.500000e+000 -4.000000e+000 1.600000e+000
         vertex -1.700000e+000 -4.000000e+000 1.800000e+000
      endloop
   endfacet
   facet normal 4.725280e-001 -5.453264e-001 6.923412e-001
      outer loop
         vertex -2.065117e+000 -5.243474e+000 1.800000e+000
         vertex -3.044545e+000 -6.092154e+000 1.800000e+000
         vertex -2.961462e+000 -6.274080e+000 1.600000e+000
      endloop
   endfacet
   facet normal -2.997511e-001 -6.563635e-001 6.923411e-001
      outer loop
         vertex -4.327324e+000 -6.276589e+000 1.800000e+000
         vertex -5.506180e+000 -5.738224e+000 1.800000e+000
         vertex -5.637152e+000 -5.889374e+000 1.600000e+000
      endloop
   endfacet
   facet normal -7.215695e-001 0.000000e+000 6.923420e-001
      outer loop
         vertex -6.206834e+000 -4.647985e+000 1.800000e+000
         vertex -6.206834e+000 -3.352015e+000 1.800000e+000
         vertex -6.398733e+000 -3.295669e+000 1.600000e+000
      endloop
   endfacet
   facet normal -2.997508e-001 6.563628e-001 6.923419e-001
      outer loop
         vertex -5.506180e+000 -2.261776e+000 1.800000e+000
         vertex -4.327324e+000 -1.723411e+000 1.800000e+000
         vertex -4.355787e+000 -1.525446e+000 1.600000e+000
      endloop
   endfacet
   facet normal 4.725278e-001 5.453260e-001 6.923417e-001
      outer loop
         vertex -3.044545e+000 -1.907846e+000 1.800000e+000
         vertex -2.065117e+000 -2.756526e+000 1.800000e+000
         vertex -1.896866e+000 -2.648398e+000 1.600000e+000
      endloop
   endfacet
   facet normal 6.923413e-001 2.032897e-001 6.923416e-001
      outer loop
         vertex -1.700000e+000 -4.000000e+000 1.800000e+000
         vertex -1.896866e+000 -2.648398e+000 1.600000e+000
         vertex -2.065117e+000 -2.756526e+000 1.800000e+000
      endloop
   endfacet
   facet normal -6.070231e-001 -3.901100e-001 6.923418e-001
      outer loop
         vertex -6.398733e+000 -4.704331e+000 1.600000e+000
         vertex -5.506180e+000 -5.738224e+000 1.800000e+000
         vertex -6.206834e+000 -4.647985e+000 1.800000e+000
      endloop
   endfacet
   facet normal 4.725279e-001 -5.453264e-001 6.923414e-001
      outer loop
         vertex -2.065117e+000 -5.243474e+000 1.800000e+000
         vertex -2.961462e+000 -6.274080e+000 1.600000e+000
         vertex -1.896866e+000 -5.351602e+000 1.600000e+000
      endloop
   endfacet
   facet normal -2.997510e-001 6.563632e-001 6.923415e-001
      outer loop
         vertex -5.506180e+000 -2.261776e+000 1.800000e+000
         vertex -4.355787e+000 -1.525446e+000 1.600000e+000
         vertex -5.637152e+000 -2.110626e+000 1.600000e+000
      endloop
   endfacet
   facet normal 6.923414e-001 -2.032897e-001 6.923414e-001
      outer loop
         vertex -2.065117e+000 -5.243474e+000 1.800000e+000
         vertex -1.896866e+000 -5.351602e+000 1.600000e+000
         vertex -1.700000e+000 -4.000000e+000 1.800000e+000
      endloop
   endfacet
   facet normal 4.725278e-001 5.453262e-001 6.923416e-001
      outer loop
         vertex -1.896866e+000 -2.648398e+000 1.600000e+000
         vertex -2.961462e+000 -1.725920e+000 1.600000e+000
         vertex -3.044545e+000 -1.907846e+000 1.800000e+000
      endloop
   endfacet
   facet normal -2.997511e-001 -6.563629e-001 6.923417e-001
      outer loop
         vertex -5.637152e+000 -5.889374e+000 1.600000e+000
         vertex -4.355787e+000 -6.474554e+000 1.600000e+000
         vertex -4.327324e+000 -6.276589e+000 1.800000e+000
      endloop
   endfacet
   facet normal -6.070235e-001 3.901103e-001 6.923412e-001
      outer loop
         vertex -6.206834e+000 -3.352015e+000 1.800000e+000
         vertex -5.506180e+000 -2.261776e+000 1.800000e+000
         vertex -5.637152e+000 -2.110626e+000 1.600000e+000
      endloop
   endfacet
   facet normal 1.026901e-001 7.142253e-001 6.923417e-001
      outer loop
         vertex -2.961462e+000 -1.725920e+000 1.600000e+000
         vertex -4.327324e+000 -1.723411e+000 1.800000e+000
         vertex -3.044545e+000 -1.907846e+000 1.800000e+000
      endloop
   endfacet
   facet normal -7.215695e-001 0.000000e+000 6.923420e-001
      outer loop
         vertex -6.398733e+000 -4.704331e+000 1.600000e+000
         vertex -6.206834e+000 -4.647985e+000 1.800000e+000
         vertex -6.398733e+000 -3.295669e+000 1.600000e+000
      endloop
   endfacet
   facet normal 1.026902e-001 -7.142257e-001 6.923412e-001
      outer loop
         vertex -3.044545e+000 -6.092154e+000 1.800000e+000
         vertex -4.327324e+000 -6.276589e+000 1.800000e+000
         vertex -4.355787e+000 -6.474554e+000 1.600000e+000
      endloop
   endfacet
   facet normal 6.923416e-001 2.032899e-001 6.923412e-001
      outer loop
         vertex 6.300000e+000 -4.000000e+000 1.800000e+000
         vertex 6.500000e+000 -4.000000e+000 1.600000e+000
         vertex 6.103134e+000 -2.648398e+000 1.600000e+000
      endloop
   endfacet
   facet normal 1.026901e-001 7.142253e-001 6.923416e-001
      outer loop
         vertex 5.038538e+000 -1.725920e+000 1.600000e+000
         vertex 3.644213e+000 -1.525446e+000 1.600000e+000
         vertex 3.672676e+000 -1.723411e+000 1.800000e+000
      endloop
   endfacet
   facet normal -6.070233e-001 3.901102e-001 6.923414e-001
      outer loop
         vertex 2.362848e+000 -2.110626e+000 1.600000e+000
         vertex 1.601268e+000 -3.295669e+000 1.600000e+000
         vertex 1.793166e+000 -3.352015e+000 1.800000e+000
      endloop
   endfacet
   facet normal -6.070233e-001 -3.901103e-001 6.923414e-001
      outer loop
         vertex 1.601268e+000 -4.704331e+000 1.600000e+000
         vertex 2.362848e+000 -5.889374e+000 1.600000e+000
         vertex 2.493820e+000 -5.738224e+000 1.800000e+000
      endloop
   endfacet
   facet normal 1.026902e-001 -7.142256e-001 6.923413e-001
      outer loop
         vertex 3.644213e+000 -6.474554e+000 1.600000e+000
         vertex 5.038538e+000 -6.274080e+000 1.600000e+000
         vertex 4.955454e+000 -6.092154e+000 1.800000e+000
      endloop
   endfacet
   facet normal 6.923416e-001 -2.032899e-001 6.923412e-001
      outer loop
         vertex 6.103134e+000 -5.351602e+000 1.600000e+000
         vertex 6.500000e+000 -4.000000e+000 1.600000e+000
         vertex 6.300000e+000 -4.000000e+000 1.800000e+000
      endloop
   endfacet
   facet normal 4.725277e-001 -5.453263e-001 6.923415e-001
      outer loop
         vertex 5.934883e+000 -5.243474e+000 1.800000e+000
         vertex 4.955454e+000 -6.092154e+000 1.800000e+000
         vertex 5.038538e+000 -6.274080e+000 1.600000e+000
      endloop
   endfacet
   facet normal -2.997512e-001 -6.563633e-001 6.923413e-001
      outer loop
         vertex 3.672676e+000 -6.276589e+000 1.800000e+000
         vertex 2.493820e+000 -5.738224e+000 1.800000e+000
         vertex 2.362848e+000 -5.889374e+000 1.600000e+000
      endloop
   endfacet
   facet normal -7.215700e-001 0.000000e+000 6.923415e-001
      outer loop
         vertex 1.793166e+000 -4.647985e+000 1.800000e+000
         vertex 1.793166e+000 -3.352015e+000 1.800000e+000
         vertex 1.601268e+000 -3.295669e+000 1.600000e+000
      endloop
   endfacet
   facet normal -2.997510e-001 6.563631e-001 6.923415e-001
      outer loop
         vertex 2.493820e+000 -2.261776e+000 1.800000e+000
         vertex 3.672676e+000 -1.723411e+000 1.800000e+000
         vertex 3.644213e+000 -1.525446e+000 1.600000e+000
      endloop
   endfacet
   facet normal 4.725278e-001 5.453262e-001 6.923416e-001
      outer loop
         vertex 4.955454e+000 -1.907846e+000 1.800000e+000
         vertex 5.934883e+000 -2.756526e+000 1.800000e+000
         vertex 6.103134e+000 -2.648398e+000 1.600000e+000
      endloop
   endfacet
   facet normal 6.923414e-001 2.032899e-001 6.923414e-001
      outer loop
         vertex 6.300000e+000 -4.000000e+000 1.800000e+000
         vertex 6.103134e+000 -2.648398e+000 1.600000e+000
         vertex 5.934883e+000 -2.756526e+000 1.800000e+000
      endloop
   endfacet
   facet normal -6.070233e-001 -3.901103e-001 6.923414e-001
      outer loop
         vertex 1.601268e+000 -4.704331e+000 1.600000e+000
         vertex 2.493820e+000 -5.738224e+000 1.800000e+000
         vertex 1.793166e+000 -4.647985e+000 1.800000e+000
      endloop
   endfacet
   facet normal 4.725280e-001 -5.453264e-001 6.923412e-001
      outer loop
         vertex 5.934883e+000 -5.243474e+000 1.800000e+000
         vertex 5.038538e+000 -6.274080e+000 1.600000e+000
         vertex 6.103134e+000 -5.351602e+000 1.600000e+000
      endloop
   endfacet
   facet normal -2.997509e-001 6.563630e-001 6.923417e-001
      outer loop
         vertex 2.493820e+000 -2.261776e+000 1.800000e+000
         vertex 3.644213e+000 -1.525446e+000 1.600000e+000
         vertex 2.362848e+000 -2.110626e+000 1.600000e+000
      endloop
   endfacet
   facet normal 6.923415e-001 -2.032899e-001 6.923412e-001
      outer loop
         vertex 5.934883e+000 -5.243474e+000 1.800000e+000
         vertex 6.103134e+000 -5.351602e+000 1.600000e+000
         vertex 6.300000e+000 -4.000000e+000 1.800000e+000
      endloop
   endfacet
   facet normal 4.725277e-001 5.453259e-001 6.923418e-001
      outer loop
         vertex 6.103134e+000 -2.648398e+000 1.600000e+000
         vertex 5.038538e+000 -1.725920e+000 1.600000e+000
         vertex 4.955454e+000 -1.907846e+000 1.800000e+000
      endloop
   endfacet
   facet normal -2.997512e-001 -6.563633e-001 6.923413e-001
      outer loop
         vertex 2.362848e+000 -5.889374e+000 1.600000e+000
         vertex 3.644213e+000 -6.474554e+000 1.600000e+000
         vertex 3.672676e+000 -6.276589e+000 1.800000e+000
      endloop
   endfacet
   facet normal -6.070232e-001 3.901102e-001 6.923416e-001
      outer loop
         vertex 1.793166e+000 -3.352015e+000 1.800000e+000
         vertex 2.493820e+000 -2.261776e+000 1.800000e+000
         vertex 2.362848e+000 -2.110626e+000 1.600000e+000
      endloop
   endfacet
   facet normal 1.026901e-001 7.142252e-001 6.923418e-001
      outer loop
         vertex 5.038538e+000 -1.725920e+000 1.600000e+000
         vertex 3.672676e+000 -1.723411e+000 1.800000e+000
         vertex 4.955454e+000 -1.907846e+000 1.800000e+000
      endloop
   endfacet
   facet normal -7.215700e-001 0.000000e+000 6.923415e-001
      outer loop
         vertex 1.601268e+000 -4.704331e+000 1.600000e+000
         vertex 1.793166e+000 -4.647985e+000 1.800000e+000
         vertex 1.601268e+000 -3.295669e+000 1.600000e+000
      endloop
   endfacet
   facet normal 1.026902e-001 -7.142256e-001 6.923414e-001
      outer loop
         vertex 4.955454e+000 -6.092154e+000 1.800000e+000
         vertex 3.672676e+000 -6.276589e+000 1.800000e+000
         vertex 3.644213e+000 -6.474554e+000 1.600000e+000
      endloop
   endfacet
   facet normal 6.923416e-001 2.032899e-001 6.923412e-001
      outer loop
         vertex 6.300000e+000 4.000000e+000 1.800000e+000
         vertex 6.500000e+000 4.000000e+000 1.600000e+000
         vertex 6.103134e+000 5.351602e+000 1.600000e+000
      endloop
   endfacet
   facet normal 1.026902e-001 7.142256e-001 6.923414e-001
      outer loop
         vertex 5.038538e+000 6.274080e+000 1.600000e+000
         vertex 3.644213e+000 6.474554e+000 1.600000e+000
         vertex 3.672676e+000 6.276589e+000 1.800000e+000
      endloop
   endfacet
   facet normal -6.070233e-001 3.901103e-001 6.923414e-001
      outer loop
         vertex 2.362848e+000 5.889374e+000 1.600000e+000
         vertex 1.601268e+000 4.704331e+000 1.600000e+000
         vertex 1.793166e+000 4.647985e+000 1.800000e+000
      endloop
   endfacet
   facet normal -6.070232e-001 -3.901101e-001 6.923416e-001
      outer loop
         vertex 1.601268e+000 3.295669e+000 1.600000e+000
         vertex 2.362848e+000 2.110626e+000 1.600000e+000
         vertex 2.493820e+000 2.261776e+000 1.800000e+000
      endloop
   endfacet
   facet normal 1.026901e-001 -7.142252e-001 6.923417e-001
      outer loop
         vertex 3.644213e+000 1.525446e+000 1.600000e+000
         vertex 5.038538e+000 1.725920e+000 1.600000e+000
         vertex 4.955454e+000 1.907846e+000 1.800000e+000
      endloop
   endfacet
   facet normal 6.923416e-001 -2.032899e-001 6.923412e-001
      outer loop
         vertex 6.103134e+000 2.648398e+000 1.600000e+000
         vertex 6.500000e+000 4.000000e+000 1.600000e+000
         vertex 6.300000e+000 4.000000e+000 1.800000e+000
      endloop
   endfacet
   facet normal 4.725276e-001 -5.453260e-001 6.923419e-001
      outer loop
         vertex 5.934883e+000 2.756526e+000 1.800000e+000
         vertex 4.955454e+000 1.907846e+000 1.800000e+000
         vertex 5.038538e+000 1.725920e+000 1.600000e+000
      endloop
   endfacet
   facet normal -2.997509e-001 -6.563630e-001 6.923417e-001
      outer loop
         vertex 3.672676e+000 1.723411e+000 1.800000e+000
         vertex 2.493820e+000 2.261776e+000 1.800000e+000
         vertex 2.362848e+000 2.110626e+000 1.600000e+000
      endloop
   endfacet
   facet normal -7.215700e-001 0.000000e+000 6.923415e-001
      outer loop
         vertex 1.793166e+000 3.352015e+000 1.800000e+000
         vertex 1.793166e+000 4.647985e+000 1.800000e+000
         vertex 1.601268e+000 4.704331e+000 1.600000e+000
      endloop
   endfacet
   facet normal -2.997511e-001 6.563633e-001 6.923413e-001
      outer loop
         vertex 2.493820e+000 5.738224e+000 1.800000e+000
         vertex 3.672676e+000 6.276589e+000 1.800000e+000
         vertex 3.644213e+000 6.474554e+000 1.600000e+000
      endloop
   endfacet
   facet normal 4.725279e-001 5.453265e-001 6.923412e-001
      outer loop
         vertex 4.955454e+000 6.092154e+000 1.800000e+000
         vertex 5.934883e+000 5.243474e+000 1.800000e+000
         vertex 6.103134e+000 5.351602e+000 1.600000e+000
      endloop
   endfacet
   facet normal 6.923415e-001 2.032899e-001 6.923412e-001
      outer loop
         vertex 6.300000e+000 4.000000e+000 1.800000e+000
         vertex 6.103134e+000 5.351602e+000 1.600000e+000
         vertex 5.934883e+000 5.243474e+000 1.800000e+000
      endloop
   endfacet
   facet normal -6.070233e-001 -3.901103e-001 6.923414e-001
      outer loop
         vertex 1.601268e+000 3.295669e+000 1.600000e+000
         vertex 2.493820e+000 2.261776e+000 1.800000e+000
         vertex 1.793166e+000 3.352015e+000 1.800000e+000
      endloop
   endfacet
   facet normal 4.725278e-001 -5.453261e-001 6.923416e-001
      outer loop
         vertex 5.934883e+000 2.756526e+000 1.800000e+000
         vertex 5.038538e+000 1.725920e+000 1.600000e+000
         vertex 6.103134e+000 2.648398e+000 1.600000e+000
      endloop
   endfacet
   facet normal -2.997512e-001 6.563633e-001 6.923413e-001
      outer loop
         vertex 2.493820e+000 5.738224e+000 1.800000e+000
         vertex 3.644213e+000 6.474554e+000 1.600000e+000
         vertex 2.362848e+000 5.889374e+000 1.600000e+000
      endloop
   endfacet
   facet normal 6.923414e-001 -2.032899e-001 6.923414e-001
      outer loop
         vertex 5.934883e+000 2.756526e+000 1.800000e+000
         vertex 6.103134e+000 2.648398e+000 1.600000e+000
         vertex 6.300000e+000 4.000000e+000 1.800000e+000
      endloop
   endfacet
   facet normal 4.725278e-001 5.453262e-001 6.923415e-001
      outer loop
         vertex 6.103134e+000 5.351602e+000 1.600000e+000
         vertex 5.038538e+000 6.274080e+000 1.600000e+000
         vertex 4.955454e+000 6.092154e+000 1.800000e+000
      endloop
   endfacet
   facet normal -2.997510e-001 -6.563631e-001 6.923415e-001
      outer loop
         vertex 2.362848e+000 2.110626e+000 1.600000e+000
         vertex 3.644213e+000 1.525446e+000 1.600000e+000
         vertex 3.672676e+000 1.723411e+000 1.800000e+000
      endloop
   endfacet
   facet normal -6.070233e-001 3.901103e-001 6.923414e-001
      outer loop
         vertex 1.793166e+000 4.647985e+000 1.800000e+000
         vertex 2.493820e+000 5.738224e+000 1.800000e+000
         vertex 2.362848e+000 5.889374e+000 1.600000e+000
      endloop
   endfacet
   facet normal 1.026902e-001 7.142256e-001 6.923413e-001
      outer loop
         vertex 5.038538e+000 6.274080e+000 1.600000e+000
         vertex 3.672676e+000 6.276589e+000 1.800000e+000
         vertex 4.955454e+000 6.092154e+000 1.800000e+000
      endloop
   endfacet
   facet normal -7.215700e-001 0.000000e+000 6.923415e-001
      outer loop
         vertex 1.601268e+000 3.295669e+000 1.600000e+000
         vertex 1.793166e+000 3.352015e+000 1.800000e+000
         vertex 1.601268e+000 4.704331e+000 1.600000e+000
      endloop
   endfacet
   facet normal 1.026901e-001 -7.142253e-001 6.923416e-001
      outer loop
         vertex 4.955454e+000 1.907846e+000 1.800000e+000
         vertex 3.672676e+000 1.723411e+000 1.800000e+000
         vertex 3.644213e+000 1.525446e+000 1.600000e+000
      endloop
   endfacet
   facet normal 6.923412e-001 2.032897e-001 6.923416e-001
      outer loop
         vertex -1.700000e+000 4.000000e+000 1.800000e+000
         vertex -1.500000e+000 4.000000e+000 1.600000e+000
         vertex -1.896866e+000 5.351602e+000 1.600000e+000
      endloop
   endfacet
   facet normal 1.026902e-001 7.142257e-001 6.923412e-001
      outer loop
         vertex -2.961462e+000 6.274080e+000 1.600000e+000
         vertex -4.355787e+000 6.474554e+000 1.600000e+000
         vertex -4.327324e+000 6.276589e+000 1.800000e+000
      endloop
   endfacet
   facet normal -6.070230e-001 3.901102e-001 6.923418e-001
      outer loop
         vertex -5.637152e+000 5.889374e+000 1.600000e+000
         vertex -6.398733e+000 4.704331e+000 1.600000e+000
         vertex -6.206834e+000 4.647985e+000 1.800000e+000
      endloop
   endfacet
   facet normal -6.070234e-001 -3.901104e-001 6.923413e-001
      outer loop
         vertex -6.398733e+000 3.295669e+000 1.600000e+000
         vertex -5.637152e+000 2.110626e+000 1.600000e+000
         vertex -5.506180e+000 2.261776e+000 1.800000e+000
      endloop
   endfacet
   facet normal 1.026900e-001 -7.142253e-001 6.923417e-001
      outer loop
         vertex -4.355787e+000 1.525446e+000 1.600000e+000
         vertex -2.961462e+000 1.725920e+000 1.600000e+000
         vertex -3.044545e+000 1.907846e+000 1.800000e+000
      endloop
   endfacet
   facet normal 6.923412e-001 -2.032897e-001 6.923416e-001
      outer loop
         vertex -1.896866e+000 2.648398e+000 1.600000e+000
         vertex -1.500000e+000 4.000000e+000 1.600000e+000
         vertex -1.700000e+000 4.000000e+000 1.800000e+000
      endloop
   endfacet
   facet normal 4.725279e-001 -5.453261e-001 6.923416e-001
      outer loop
         vertex -2.065117e+000 2.756526e+000 1.800000e+000
         vertex -3.044545e+000 1.907846e+000 1.800000e+000
         vertex -2.961462e+000 1.725920e+000 1.600000e+000
      endloop
   endfacet
   facet normal -2.997509e-001 -6.563632e-001 6.923415e-001
      outer loop
         vertex -4.327324e+000 1.723411e+000 1.800000e+000
         vertex -5.506180e+000 2.261776e+000 1.800000e+000
         vertex -5.637152e+000 2.110626e+000 1.600000e+000
      endloop
   endfacet
   facet normal -7.215695e-001 0.000000e+000 6.923420e-001
      outer loop
         vertex -6.206834e+000 3.352015e+000 1.800000e+000
         vertex -6.206834e+000 4.647985e+000 1.800000e+000
         vertex -6.398733e+000 4.704331e+000 1.600000e+000
      endloop
   endfacet
   facet normal -2.997509e-001 6.563630e-001 6.923417e-001
      outer loop
         vertex -5.506180e+000 5.738224e+000 1.800000e+000
         vertex -4.327324e+000 6.276589e+000 1.800000e+000
         vertex -4.355787e+000 6.474554e+000 1.600000e+000
      endloop
   endfacet
   facet normal 4.725279e-001 5.453263e-001 6.923414e-001
      outer loop
         vertex -3.044545e+000 6.092154e+000 1.800000e+000
         vertex -2.065117e+000 5.243474e+000 1.800000e+000
         vertex -1.896866e+000 5.351602e+000 1.600000e+000
      endloop
   endfacet
   facet normal 6.923414e-001 2.032897e-001 6.923414e-001
      outer loop
         vertex -1.700000e+000 4.000000e+000 1.800000e+000
         vertex -1.896866e+000 5.351602e+000 1.600000e+000
         vertex -2.065117e+000 5.243474e+000 1.800000e+000
      endloop
   endfacet
   facet normal -6.070231e-001 -3.901100e-001 6.923418e-001
      outer loop
         vertex -6.398733e+000 3.295669e+000 1.600000e+000
         vertex -5.506180e+000 2.261776e+000 1.800000e+000
         vertex -6.206834e+000 3.352015e+000 1.800000e+000
      endloop
   endfacet
   facet normal 4.725277e-001 -5.453260e-001 6.923417e-001
      outer loop
         vertex -2.065117e+000 2.756526e+000 1.800000e+000
         vertex -2.961462e+000 1.725920e+000 1.600000e+000
         vertex -1.896866e+000 2.648398e+000 1.600000e+000
      endloop
   endfacet
   facet normal -2.997513e-001 6.563635e-001 6.923411e-001
      outer loop
         vertex -5.506180e+000 5.738224e+000 1.800000e+000
         vertex -4.355787e+000 6.474554e+000 1.600000e+000
         vertex -5.637152e+000 5.889374e+000 1.600000e+000
      endloop
   endfacet
   facet normal 6.923413e-001 -2.032897e-001 6.923416e-001
      outer loop
         vertex -2.065117e+000 2.756526e+000 1.800000e+000
         vertex -1.896866e+000 2.648398e+000 1.600000e+000
         vertex -1.700000e+000 4.000000e+000 1.800000e+000
      endloop
   endfacet
   facet normal 4.725280e-001 5.453265e-001 6.923412e-001
      outer loop
         vertex -1.896866e+000 5.351602e+000 1.600000e+000
         vertex -2.961462e+000 6.274080e+000 1.600000e+000
         vertex -3.044545e+000 6.092154e+000 1.800000e+000
      endloop
   endfacet
   facet normal -2.997509e-001 -6.563628e-001 6.923419e-001
      outer loop
         vertex -5.637152e+000 2.110626e+000 1.600000e+000
         vertex -4.355787e+000 1.525446e+000 1.600000e+000
         vertex -4.327324e+000 1.723411e+000 1.800000e+000
      endloop
   endfacet
   facet normal -6.070237e-001 3.901104e-001 6.923410e-001
      outer loop
         vertex -6.206834e+000 4.647985e+000 1.800000e+000
         vertex -5.506180e+000 5.738224e+000 1.800000e+000
         vertex -5.637152e+000 5.889374e+000 1.600000e+000
      endloop
   endfacet
   facet normal 1.026902e-001 7.142257e-001 6.923413e-001
      outer loop
         vertex -2.961462e+000 6.274080e+000 1.600000e+000
         vertex -4.327324e+000 6.276589e+000 1.800000e+000
         vertex -3.044545e+000 6.092154e+000 1.800000e+000
      endloop
   endfacet
   facet normal -7.215695e-001 0.000000e+000 6.923420e-001
      outer loop
         vertex -6.398733e+000 3.295669e+000 1.600000e+000
         vertex -6.206834e+000 3.352015e+000 1.800000e+000
         vertex -6.398733e+000 4.704331e+000 1.600000e+000
      endloop
   endfacet
   facet normal 1.026901e-001 -7.142255e-001 6.923415e-001
      outer loop
         vertex -3.044545e+000 1.907846e+000 1.800000e+000
         vertex -4.327324e+000 1.723411e+000 1.800000e+000
         vertex -4.355787e+000 1.525446e+000 1.600000e+000
      endloop
   endfacet
   facet normal 7.315318e-001 6.818074e-001 -0.000000e+000
      outer loop
         vertex 1.054715e+001 7.599843e+000 0.000000e+000
         vertex 1.054715e+001 7.599843e+000 -2.000000e+000
         vertex 8.322279e+000 9.986975e+000 -2.000000e+000
      endloop
   endfacet
   facet normal 3.119154e-001 9.501099e-001 -0.000000e+000
      outer loop
         vertex 5.573032e+000 1.174484e+001 -2.000000e+000
         vertex 2.472636e+000 1.276268e+001 -2.000000e+000
         vertex 2.472636e+000 1.276268e+001 0.000000e+000
      endloop
   endfacet
   facet normal -1.850762e-001 9.827242e-001 0.000000e+000
      outer loop
         vertex -7.835569e-001 1.297636e+001 -2.000000e+000
         vertex -3.990380e+000 1.237242e+001 -2.000000e+000
         vertex -3.990380e+000 1.237242e+001 0.000000e+000
      endloop
   endfacet
   facet normal -6.361570e-001 7.715596e-001 0.000000e+000
      outer loop
         vertex -6.945774e+000 1.098891e+001 -2.000000e+000
         vertex -9.463525e+000 8.913008e+000 -2.000000e+000
         vertex -9.463525e+000 8.913008e+000 0.000000e+000
      endloop
   endfacet
   facet normal -9.294300e-001 3.689985e-001 0.000000e+000
      outer loop
         vertex -1.138499e+001 6.275505e+000 -2.000000e+000
         vertex -1.258911e+001 3.242592e+000 -2.000000e+000
         vertex -1.258911e+001 3.242592e+000 0.000000e+000
      endloop
   endfacet
   facet normal -9.921444e-001 -1.250980e-001 0.000000e+000
      outer loop
         vertex -1.300000e+001 5.367450e-003 -2.000000e+000
         vertex -1.259178e+001 -3.232195e+000 -2.000000e+000
         vertex -1.259178e+001 -3.232195e+000 0.000000e+000
      endloop
   endfacet
   facet normal -8.087432e-001 -5.881620e-001 0.000000e+000
      outer loop
         vertex -1.139017e+001 -6.266102e+000 -2.000000e+000
         vertex -9.470881e+000 -8.905190e+000 -2.000000e+000
         vertex -9.470881e+000 -8.905190e+000 0.000000e+000
      endloop
   endfacet
   facet normal -4.247215e-001 -9.053240e-001 0.000000e+000
      outer loop
         vertex -6.954845e+000 -1.098317e+001 -2.000000e+000
         vertex -4.000595e+000 -1.236912e+001 -2.000000e+000
         vertex -4.000595e+000 -1.236912e+001 0.000000e+000
      endloop
   endfacet
   facet normal 6.465831e-002 -9.979075e-001 0.000000e+000
      outer loop
         vertex -7.942721e-001 -1.297571e+001 -2.000000e+000
         vertex 2.462097e+000 -1.276472e+001 -2.000000e+000
         vertex 2.462097e+000 -1.276472e+001 0.000000e+000
      endloop
   endfacet
   facet normal 5.379988e-001 -8.429456e-001 0.000000e+000
      outer loop
         vertex 5.563332e+000 -1.174944e+001 -2.000000e+000
         vertex 8.314030e+000 -9.993844e+000 -2.000000e+000
         vertex 8.314030e+000 -9.993844e+000 0.000000e+000
      endloop
   endfacet
   facet normal 7.309686e-001 -6.824111e-001 0.000000e+000
      outer loop
         vertex 1.054087e+001 -7.608549e+000 -2.000000e+000
         vertex 1.054087e+001 -7.608549e+000 0.000000e+000
         vertex 8.314030e+000 -9.993844e+000 -2.000000e+000
      endloop
   endfacet
   facet normal 3.111304e-001 -9.503672e-001 0.000000e+000
      outer loop
         vertex 5.563332e+000 -1.174944e+001 0.000000e+000
         vertex 2.462097e+000 -1.276472e+001 0.000000e+000
         vertex 2.462097e+000 -1.276472e+001 -2.000000e+000
      endloop
   endfacet
   facet normal -1.858878e-001 -9.825710e-001 -0.000000e+000
      outer loop
         vertex -7.942721e-001 -1.297571e+001 0.000000e+000
         vertex -4.000595e+000 -1.236912e+001 0.000000e+000
         vertex -4.000595e+000 -1.236912e+001 -2.000000e+000
      endloop
   endfacet
   facet normal -6.367939e-001 -7.710341e-001 -0.000000e+000
      outer loop
         vertex -6.954845e+000 -1.098317e+001 0.000000e+000
         vertex -9.470881e+000 -8.905190e+000 0.000000e+000
         vertex -9.470881e+000 -8.905190e+000 -2.000000e+000
      endloop
   endfacet
   facet normal -9.297344e-001 -3.682308e-001 -0.000000e+000
      outer loop
         vertex -1.139017e+001 -6.266102e+000 0.000000e+000
         vertex -1.259178e+001 -3.232195e+000 0.000000e+000
         vertex -1.259178e+001 -3.232195e+000 -2.000000e+000
      endloop
   endfacet
   facet normal -9.920408e-001 1.259172e-001 0.000000e+000
      outer loop
         vertex -1.300000e+001 5.367450e-003 0.000000e+000
         vertex -1.258911e+001 3.242592e+000 0.000000e+000
         vertex -1.258911e+001 3.242592e+000 -2.000000e+000
      endloop
   endfacet
   facet normal -8.082572e-001 5.888295e-001 0.000000e+000
      outer loop
         vertex -1.138499e+001 6.275505e+000 0.000000e+000
         vertex -9.463525e+000 8.913008e+000 0.000000e+000
         vertex -9.463525e+000 8.913008e+000 -2.000000e+000
      endloop
   endfacet
   facet normal -4.239740e-001 9.056744e-001 0.000000e+000
      outer loop
         vertex -6.945774e+000 1.098891e+001 0.000000e+000
         vertex -3.990380e+000 1.237242e+001 0.000000e+000
         vertex -3.990380e+000 1.237242e+001 -2.000000e+000
      endloop
   endfacet
   facet normal 6.548217e-002 9.978537e-001 0.000000e+000
      outer loop
         vertex -7.835569e-001 1.297636e+001 0.000000e+000
         vertex 2.472636e+000 1.276268e+001 0.000000e+000
         vertex 2.472636e+000 1.276268e+001 -2.000000e+000
      endloop
   endfacet
   facet normal 5.386947e-001 8.425010e-001 0.000000e+000
      outer loop
         vertex 5.573032e+000 1.174484e+001 0.000000e+000
         vertex 8.322279e+000 9.986975e+000 0.000000e+000
         vertex 8.322279e+000 9.986975e+000 -2.000000e+000
      endloop
   endfacet
   facet normal 7.315318e-001 6.818074e-001 -0.000000e+000
      outer loop
         vertex 1.054715e+001 7.599843e+000 0.000000e+000
         vertex 8.322279e+000 9.986975e+000 -2.000000e+000
         vertex 8.322279e+000 9.986975e+000 0.000000e+000
      endloop
   endfacet
   facet normal -6.361570e-001 7.715596e-001 0.000000e+000
      outer loop
         vertex -6.945774e+000 1.098891e+001 -2.000000e+000
         vertex -9.463525e+000 8.913008e+000 0.000000e+000
         vertex -6.945774e+000 1.098891e+001 0.000000e+000
      endloop
   endfacet
   facet normal -8.087432e-001 -5.881620e-001 0.000000e+000
      outer loop
         vertex -1.139017e+001 -6.266102e+000 -2.000000e+000
         vertex -9.470881e+000 -8.905190e+000 0.000000e+000
         vertex -1.139017e+001 -6.266102e+000 0.000000e+000
      endloop
   endfacet
   facet normal 5.379988e-001 -8.429456e-001 0.000000e+000
      outer loop
         vertex 5.563332e+000 -1.174944e+001 -2.000000e+000
         vertex 8.314030e+000 -9.993844e+000 0.000000e+000
         vertex 5.563332e+000 -1.174944e+001 0.000000e+000
      endloop
   endfacet
   facet normal 3.111304e-001 -9.503672e-001 0.000000e+000
      outer loop
         vertex 5.563332e+000 -1.174944e+001 0.000000e+000
         vertex 2.462097e+000 -1.276472e+001 -2.000000e+000
         vertex 5.563332e+000 -1.174944e+001 -2.000000e+000
      endloop
   endfacet
   facet normal -9.297344e-001 -3.682308e-001 0.000000e+000
      outer loop
         vertex -1.139017e+001 -6.266102e+000 0.000000e+000
         vertex -1.259178e+001 -3.232195e+000 -2.000000e+000
         vertex -1.139017e+001 -6.266102e+000 -2.000000e+000
      endloop
   endfacet
   facet normal -4.239740e-001 9.056744e-001 0.000000e+000
      outer loop
         vertex -6.945774e+000 1.098891e+001 0.000000e+000
         vertex -3.990380e+000 1.237242e+001 -2.000000e+000
         vertex -6.945774e+000 1.098891e+001 -2.000000e+000
      endloop
   endfacet
   facet normal 5.386947e-001 8.425010e-001 -0.000000e+000
      outer loop
         vertex 8.322279e+000 9.986975e+000 -2.000000e+000
         vertex 5.573032e+000 1.174484e+001 -2.000000e+000
         vertex 5.573032e+000 1.174484e+001 0.000000e+000
      endloop
   endfacet
   facet normal -8.082572e-001 5.888295e-001 0.000000e+000
      outer loop
         vertex -9.463525e+000 8.913008e+000 -2.000000e+000
         vertex -1.138499e+001 6.275505e+000 -2.000000e+000
         vertex -1.138499e+001 6.275505e+000 0.000000e+000
      endloop
   endfacet
   facet normal -6.367939e-001 -7.710341e-001 0.000000e+000
      outer loop
         vertex -9.470881e+000 -8.905190e+000 -2.000000e+000
         vertex -6.954845e+000 -1.098317e+001 -2.000000e+000
         vertex -6.954845e+000 -1.098317e+001 0.000000e+000
      endloop
   endfacet
   facet normal 7.309686e-001 -6.824111e-001 0.000000e+000
      outer loop
         vertex 1.054087e+001 -7.608549e+000 0.000000e+000
         vertex 8.314030e+000 -9.993844e+000 0.000000e+000
         vertex 8.314030e+000 -9.993844e+000 -2.000000e+000
      endloop
   endfacet
   facet normal -4.247215e-001 -9.053240e-001 -0.000000e+000
      outer loop
         vertex -4.000595e+000 -1.236912e+001 0.000000e+000
         vertex -6.954845e+000 -1.098317e+001 0.000000e+000
         vertex -6.954845e+000 -1.098317e+001 -2.000000e+000
      endloop
   endfacet
   facet normal -9.294300e-001 3.689985e-001 0.000000e+000
      outer loop
         vertex -1.258911e+001 3.242592e+000 0.000000e+000
         vertex -1.138499e+001 6.275505e+000 0.000000e+000
         vertex -1.138499e+001 6.275505e+000 -2.000000e+000
      endloop
   endfacet
   facet normal 3.119154e-001 9.501099e-001 0.000000e+000
      outer loop
         vertex 2.472636e+000 1.276268e+001 0.000000e+000
         vertex 5.573032e+000 1.174484e+001 0.000000e+000
         vertex 5.573032e+000 1.174484e+001 -2.000000e+000
      endloop
   endfacet
   facet normal -9.921444e-001 -1.250980e-001 0.000000e+000
      outer loop
         vertex -1.300000e+001 5.367450e-003 -2.000000e+000
         vertex -1.259178e+001 -3.232195e+000 0.000000e+000
         vertex -1.300000e+001 5.367450e-003 0.000000e+000
      endloop
   endfacet
   facet normal -9.920408e-001 1.259172e-001 0.000000e+000
      outer loop
         vertex -1.300000e+001 5.367450e-003 0.000000e+000
         vertex -1.258911e+001 3.242592e+000 -2.000000e+000
         vertex -1.300000e+001 5.367450e-003 -2.000000e+000
      endloop
   endfacet
   facet normal 6.548217e-002 9.978537e-001 -0.000000e+000
      outer loop
         vertex 2.472636e+000 1.276268e+001 -2.000000e+000
         vertex -7.835569e-001 1.297636e+001 -2.000000e+000
         vertex -7.835569e-001 1.297636e+001 0.000000e+000
      endloop
   endfacet
   facet normal 6.465831e-002 -9.979075e-001 0.000000e+000
      outer loop
         vertex 2.462097e+000 -1.276472e+001 0.000000e+000
         vertex -7.942721e-001 -1.297571e+001 0.000000e+000
         vertex -7.942721e-001 -1.297571e+001 -2.000000e+000
      endloop
   endfacet
   facet normal -1.850762e-001 9.827242e-001 0.000000e+000
      outer loop
         vertex -7.835569e-001 1.297636e+001 -2.000000e+000
         vertex -3.990380e+000 1.237242e+001 0.000000e+000
         vertex -7.835569e-001 1.297636e+001 0.000000e+000
      endloop
   endfacet
   facet normal -1.858878e-001 -9.825710e-001 0.000000e+000
      outer loop
         vertex -4.000595e+000 -1.236912e+001 -2.000000e+000
         vertex -7.942721e-001 -1.297571e+001 -2.000000e+000
         vertex -7.942721e-001 -1.297571e+001 0.000000e+000
      endloop
   endfacet
   facet normal 9.067284e-001 -4.217152e-001 0.000000e+000
      outer loop
         vertex 1.054087e+001 -7.608549e+000 0.000000e+000
         vertex 1.054087e+001 -7.608549e+000 -2.000000e+000
         vertex 1.386925e+001 -4.522049e-001 -2.000000e+000
      endloop
   endfacet
   facet normal 9.067284e-001 -4.217152e-001 0.000000e+000
      outer loop
         vertex 1.386925e+001 -4.522049e-001 0.000000e+000
         vertex 1.054087e+001 -7.608549e+000 0.000000e+000
         vertex 1.386925e+001 -4.522049e-001 -2.000000e+000
      endloop
   endfacet
   facet normal 9.764577e-001 -2.157092e-001 0.000000e+000
      outer loop
         vertex 1.386925e+001 -4.522049e-001 0.000000e+000
         vertex 1.386925e+001 -4.522049e-001 -2.000000e+000
         vertex 1.397185e+001 1.222969e-002 -2.000000e+000
      endloop
   endfacet
   facet normal 9.762423e-001 2.166816e-001 0.000000e+000
      outer loop
         vertex 1.386879e+001 4.765618e-001 -2.000000e+000
         vertex 1.386879e+001 4.765618e-001 0.000000e+000
         vertex 1.397185e+001 1.222969e-002 -2.000000e+000
      endloop
   endfacet
   facet normal 9.764577e-001 -2.157092e-001 0.000000e+000
      outer loop
         vertex 1.386925e+001 -4.522049e-001 0.000000e+000
         vertex 1.397185e+001 1.222969e-002 -2.000000e+000
         vertex 1.397185e+001 1.222969e-002 0.000000e+000
      endloop
   endfacet
   facet normal 9.762423e-001 2.166816e-001 0.000000e+000
      outer loop
         vertex 1.386879e+001 4.765618e-001 0.000000e+000
         vertex 1.397185e+001 1.222969e-002 0.000000e+000
         vertex 1.397185e+001 1.222969e-002 -2.000000e+000
      endloop
   endfacet
   facet normal 9.063078e-001 4.226183e-001 -0.000000e+000
      outer loop
         vertex 1.386879e+001 4.765618e-001 0.000000e+000
         vertex 1.386879e+001 4.765618e-001 -2.000000e+000
         vertex 1.054715e+001 7.599843e+000 -2.000000e+000
      endloop
   endfacet
   facet normal 9.063078e-001 4.226183e-001 0.000000e+000
      outer loop
         vertex 1.054715e+001 7.599843e+000 0.000000e+000
         vertex 1.386879e+001 4.765618e-001 0.000000e+000
         vertex 1.054715e+001 7.599843e+000 -2.000000e+000
      endloop
   endfacet
   facet normal 0.000000e+000 0.000000e+000 1.000000e+000
      outer loop
         vertex -2.065117e+000 -5.243474e+000 1.800000e+000
         vertex -1.700000e+000 -4.000000e+000 1.800000e+000
         vertex -3.044545e+000 -6.092154e+000 1.800000e+000
      endloop
   endfacet
   facet normal 0.000000e+000 0.000000e+000 1.000000e+000
      outer loop
         vertex -2.065117e+000 -2.756526e+000 1.800000e+000
         vertex -3.044545e+000 -1.907846e+000 1.800000e+000
         vertex -1.700000e+000 -4.000000e+000 1.800000e+000
      endloop
   endfacet
   facet normal 0.000000e+000 0.000000e+000 1.000000e+000
      outer loop
         vertex -5.506180e+000 -2.261776e+000 1.800000e+000
         vertex -6.206834e+000 -3.352015e+000 1.800000e+000
         vertex -3.044545e+000 -1.907846e+000 1.800000e+000
      endloop
   endfacet
   facet normal -0.000000e+000 -0.000000e+000 1.000000e+000
      outer loop
         vertex -6.206834e+000 -4.647985e+000 1.800000e+000
         vertex -5.506180e+000 -5.738224e+000 1.800000e+000
         vertex -3.044545e+000 -6.092154e+000 1.800000e+000
      endloop
   endfacet
   facet normal 0.000000e+000 0.000000e+000 1.000000e+000
      outer loop
         vertex -4.327324e+000 -6.276589e+000 1.800000e+000
         vertex -3.044545e+000 -6.092154e+000 1.800000e+000
         vertex -5.506180e+000 -5.738224e+000 1.800000e+000
      endloop
   endfacet
   facet normal 0.000000e+000 0.000000e+000 1.000000e+000
      outer loop
         vertex -5.506180e+000 -2.261776e+000 1.800000e+000
         vertex -3.044545e+000 -1.907846e+000 1.800000e+000
         vertex -4.327324e+000 -1.723411e+000 1.800000e+000
      endloop
   endfacet
   facet normal 0.000000e+000 0.000000e+000 1.000000e+000
      outer loop
         vertex -6.206834e+000 -3.352015e+000 1.800000e+000
         vertex -6.206834e+000 -4.647985e+000 1.800000e+000
         vertex -1.700000e+000 -4.000000e+000 1.800000e+000
      endloop
   endfacet
   facet normal 0.000000e+000 0.000000e+000 1.000000e+000
      outer loop
         vertex -1.700000e+000 -4.000000e+000 1.800000e+000
         vertex -3.044545e+000 -1.907846e+000 1.800000e+000
         vertex -6.206834e+000 -3.352015e+000 1.800000e+000
      endloop
   endfacet
   facet normal -0.000000e+000 0.000000e+000 1.000000e+000
      outer loop
         vertex -1.700000e+000 -4.000000e+000 1.800000e+000
         vertex -6.206834e+000 -4.647985e+000 1.800000e+000
         vertex -3.044545e+000 -6.092154e+000 1.800000e+000
      endloop
   endfacet
   facet normal 0.000000e+000 0.000000e+000 1.000000e+000
      outer loop
         vertex 5.934883e+000 -5.243474e+000 1.800000e+000
         vertex 6.300000e+000 -4.000000e+000 1.800000e+000
         vertex 4.955454e+000 -6.092154e+000 1.800000e+000
      endloop
   endfacet
   facet normal 0.000000e+000 0.000000e+000 1.000000e+000
      outer loop
         vertex 5.934883e+000 -2.756526e+000 1.800000e+000
         vertex 4.955454e+000 -1.907846e+000 1.800000e+000
         vertex 6.300000e+000 -4.000000e+000 1.800000e+000
      endloop
   endfacet
   facet normal 0.000000e+000 0.000000e+000 1.000000e+000
      outer loop
         vertex 2.493820e+000 -2.261776e+000 1.800000e+000
         vertex 1.793166e+000 -3.352015e+000 1.800000e+000
         vertex 4.955454e+000 -1.907846e+000 1.800000e+000
      endloop
   endfacet
   facet normal -0.000000e+000 -0.000000e+000 1.000000e+000
      outer loop
         vertex 1.793166e+000 -4.647985e+000 1.800000e+000
         vertex 2.493820e+000 -5.738224e+000 1.800000e+000
         vertex 4.955454e+000 -6.092154e+000 1.800000e+000
      endloop
   endfacet
   facet normal 0.000000e+000 0.000000e+000 1.000000e+000
      outer loop
         vertex 3.672676e+000 -6.276589e+000 1.800000e+000
         vertex 4.955454e+000 -6.092154e+000 1.800000e+000
         vertex 2.493820e+000 -5.738224e+000 1.800000e+000
      endloop
   endfacet
   facet normal 0.000000e+000 0.000000e+000 1.000000e+000
      outer loop
         vertex 2.493820e+000 -2.261776e+000 1.800000e+000
         vertex 4.955454e+000 -1.907846e+000 1.800000e+000
         vertex 3.672676e+000 -1.723411e+000 1.800000e+000
      endloop
   endfacet
   facet normal 0.000000e+000 0.000000e+000 1.000000e+000
      outer loop
         vertex 1.793166e+000 -3.352015e+000 1.800000e+000
         vertex 1.793166e+000 -4.647985e+000 1.800000e+000
         vertex 6.300000e+000 -4.000000e+000 1.800000e+000
      endloop
   endfacet
   facet normal 0.000000e+000 0.000000e+000 1.000000e+000
      outer loop
         vertex 6.300000e+000 -4.000000e+000 1.800000e+000
         vertex 4.955454e+000 -1.907846e+000 1.800000e+000
         vertex 1.793166e+000 -3.352015e+000 1.800000e+000
      endloop
   endfacet
   facet normal -0.000000e+000 0.000000e+000 1.000000e+000
      outer loop
         vertex 6.300000e+000 -4.000000e+000 1.800000e+000
         vertex 1.793166e+000 -4.647985e+000 1.800000e+000
         vertex 4.955454e+000 -6.092154e+000 1.800000e+000
      endloop
   endfacet
   facet normal 0.000000e+000 0.000000e+000 1.000000e+000
      outer loop
         vertex 5.934883e+000 2.756526e+000 1.800000e+000
         vertex 6.300000e+000 4.000000e+000 1.800000e+000
         vertex 1.793166e+000 4.647985e+000 1.800000e+000
      endloop
   endfacet
   facet normal 0.000000e+000 0.000000e+000 1.000000e+000
      outer loop
         vertex 5.934883e+000 5.243474e+000 1.800000e+000
         vertex 4.955454e+000 6.092154e+000 1.800000e+000
         vertex 3.672676e+000 6.276589e+000 1.800000e+000
      endloop
   endfacet
   facet normal -0.000000e+000 0.000000e+000 1.000000e+000
      outer loop
         vertex 2.493820e+000 5.738224e+000 1.800000e+000
         vertex 1.793166e+000 4.647985e+000 1.800000e+000
         vertex 6.300000e+000 4.000000e+000 1.800000e+000
      endloop
   endfacet
   facet normal -0.000000e+000 -0.000000e+000 1.000000e+000
      outer loop
         vertex 1.793166e+000 3.352015e+000 1.800000e+000
         vertex 2.493820e+000 2.261776e+000 1.800000e+000
         vertex 3.672676e+000 1.723411e+000 1.800000e+000
      endloop
   endfacet
   facet normal 0.000000e+000 0.000000e+000 1.000000e+000
      outer loop
         vertex 4.955454e+000 1.907846e+000 1.800000e+000
         vertex 5.934883e+000 2.756526e+000 1.800000e+000
         vertex 3.672676e+000 1.723411e+000 1.800000e+000
      endloop
   endfacet
   facet normal 0.000000e+000 0.000000e+000 1.000000e+000
      outer loop
         vertex 2.493820e+000 5.738224e+000 1.800000e+000
         vertex 6.300000e+000 4.000000e+000 1.800000e+000
         vertex 3.672676e+000 6.276589e+000 1.800000e+000
      endloop
   endfacet
   facet normal 0.000000e+000 0.000000e+000 1.000000e+000
      outer loop
         vertex 3.672676e+000 6.276589e+000 1.800000e+000
         vertex 6.300000e+000 4.000000e+000 1.800000e+000
         vertex 5.934883e+000 5.243474e+000 1.800000e+000
      endloop
   endfacet
   facet normal -0.000000e+000 0.000000e+000 1.000000e+000
      outer loop
         vertex 1.793166e+000 4.647985e+000 1.800000e+000
         vertex 1.793166e+000 3.352015e+000 1.800000e+000
         vertex 3.672676e+000 1.723411e+000 1.800000e+000
      endloop
   endfacet
   facet normal 0.000000e+000 0.000000e+000 1.000000e+000
      outer loop
         vertex 3.672676e+000 1.723411e+000 1.800000e+000
         vertex 5.934883e+000 2.756526e+000 1.800000e+000
         vertex 1.793166e+000 4.647985e+000 1.800000e+000
      endloop
   endfacet
   facet normal 0.000000e+000 0.000000e+000 1.000000e+000
      outer loop
         vertex -2.065117e+000 2.756526e+000 1.800000e+000
         vertex -1.700000e+000 4.000000e+000 1.800000e+000
         vertex -4.327324e+000 1.723411e+000 1.800000e+000
      endloop
   endfacet
   facet normal 0.000000e+000 0.000000e+000 1.000000e+000
      outer loop
         vertex -2.065117e+000 5.243474e+000 1.800000e+000
         vertex -3.044545e+000 6.092154e+000 1.800000e+000
         vertex -4.327324e+000 6.276589e+000 1.800000e+000
      endloop
   endfacet
   facet normal -0.000000e+000 0.000000e+000 1.000000e+000
      outer loop
         vertex -5.506180e+000 5.738224e+000 1.800000e+000
         vertex -6.206834e+000 4.647985e+000 1.800000e+000
         vertex -1.700000e+000 4.000000e+000 1.800000e+000
      endloop
   endfacet
   facet normal -0.000000e+000 -0.000000e+000 1.000000e+000
      outer loop
         vertex -6.206834e+000 3.352015e+000 1.800000e+000
         vertex -5.506180e+000 2.261776e+000 1.800000e+000
         vertex -4.327324e+000 1.723411e+000 1.800000e+000
      endloop
   endfacet
   facet normal 0.000000e+000 0.000000e+000 1.000000e+000
      outer loop
         vertex -3.044545e+000 1.907846e+000 1.800000e+000
         vertex -2.065117e+000 2.756526e+000 1.800000e+000
         vertex -4.327324e+000 1.723411e+000 1.800000e+000
      endloop
   endfacet
   facet normal 0.000000e+000 0.000000e+000 1.000000e+000
      outer loop
         vertex -5.506180e+000 5.738224e+000 1.800000e+000
         vertex -1.700000e+000 4.000000e+000 1.800000e+000
         vertex -4.327324e+000 6.276589e+000 1.800000e+000
      endloop
   endfacet
   facet normal 0.000000e+000 0.000000e+000 1.000000e+000
      outer loop
         vertex -4.327324e+000 6.276589e+000 1.800000e+000
         vertex -1.700000e+000 4.000000e+000 1.800000e+000
         vertex -2.065117e+000 5.243474e+000 1.800000e+000
      endloop
   endfacet
   facet normal -0.000000e+000 0.000000e+000 1.000000e+000
      outer loop
         vertex -6.206834e+000 4.647985e+000 1.800000e+000
         vertex -6.206834e+000 3.352015e+000 1.800000e+000
         vertex -4.327324e+000 1.723411e+000 1.800000e+000
      endloop
   endfacet
   facet normal 0.000000e+000 0.000000e+000 1.000000e+000
      outer loop
         vertex -1.700000e+000 4.000000e+000 1.800000e+000
         vertex -6.206834e+000 4.647985e+000 1.800000e+000
         vertex -4.327324e+000 1.723411e+000 1.800000e+000
      endloop
   endfacet
   facet normal -0.000000e+000 -0.000000e+000 -1.000000e+000
      outer loop
         vertex 5.573032e+000 1.174484e+001 -2.000000e+000
         vertex 8.322279e+000 9.986975e+000 -2.000000e+000
         vertex 1.054715e+001 7.599843e+000 -2.000000e+000
      endloop
   endfacet
   facet normal 0.000000e+000 -0.000000e+000 -1.000000e+000
      outer loop
         vertex -3.990380e+000 1.237242e+001 -2.000000e+000
         vertex -7.835569e-001 1.297636e+001 -2.000000e+000
         vertex 2.472636e+000 1.276268e+001 -2.000000e+000
      endloop
   endfacet
   facet normal 0.000000e+000 0.000000e+000 -1.000000e+000
      outer loop
         vertex -3.990380e+000 1.237242e+001 -2.000000e+000
         vertex -9.463525e+000 8.913008e+000 -2.000000e+000
         vertex -6.945774e+000 1.098891e+001 -2.000000e+000
      endloop
   endfacet
   facet normal 0.000000e+000 0.000000e+000 -1.000000e+000
      outer loop
         vertex 5.573032e+000 1.174484e+001 -2.000000e+000
         vertex -1.300000e+001 5.367450e-003 -2.000000e+000
         vertex -1.258911e+001 3.242592e+000 -2.000000e+000
      endloop
   endfacet
   facet normal 0.000000e+000 0.000000e+000 -1.000000e+000
      outer loop
         vertex -9.470881e+000 -8.905190e+000 -2.000000e+000
         vertex -1.139017e+001 -6.266102e+000 -2.000000e+000
         vertex -1.259178e+001 -3.232195e+000 -2.000000e+000
      endloop
   endfacet
   facet normal 0.000000e+000 0.000000e+000 -1.000000e+000
      outer loop
         vertex -7.942721e-001 -1.297571e+001 -2.000000e+000
         vertex -4.000595e+000 -1.236912e+001 -2.000000e+000
         vertex -6.954845e+000 -1.098317e+001 -2.000000e+000
      endloop
   endfacet
   facet normal -0.000000e+000 0.000000e+000 -1.000000e+000
      outer loop
         vertex 8.314030e+000 -9.993844e+000 -2.000000e+000
         vertex 5.563332e+000 -1.174944e+001 -2.000000e+000
         vertex 2.462097e+000 -1.276472e+001 -2.000000e+000
      endloop
   endfacet
   facet normal -0.000000e+000 0.000000e+000 -1.000000e+000
      outer loop
         vertex 1.054715e+001 7.599843e+000 -2.000000e+000
         vertex 1.386925e+001 -4.522049e-001 -2.000000e+000
         vertex 1.054087e+001 -7.608549e+000 -2.000000e+000
      endloop
   endfacet
   facet normal 0.000000e+000 0.000000e+000 -1.000000e+000
      outer loop
         vertex 1.386925e+001 -4.522049e-001 -2.000000e+000
         vertex 1.386879e+001 4.765618e-001 -2.000000e+000
         vertex 1.397185e+001 1.222969e-002 -2.000000e+000
      endloop
   endfacet
   facet normal 0.000000e+000 -0.000000e+000 -1.000000e+000
      outer loop
         vertex -1.258911e+001 3.242592e+000 -2.000000e+000
         vertex -9.463525e+000 8.913008e+000 -2.000000e+000
         vertex -3.990380e+000 1.237242e+001 -2.000000e+000
      endloop
   endfacet
   facet normal 0.000000e+000 0.000000e+000 -1.000000e+000
      outer loop
         vertex -7.942721e-001 -1.297571e+001 -2.000000e+000
         vertex -1.300000e+001 5.367450e-003 -2.000000e+000
         vertex 5.573032e+000 1.174484e+001 -2.000000e+000
      endloop
   endfacet
   facet normal 0.000000e+000 0.000000e+000 -1.000000e+000
      outer loop
         vertex -1.300000e+001 5.367450e-003 -2.000000e+000
         vertex -7.942721e-001 -1.297571e+001 -2.000000e+000
         vertex -6.954845e+000 -1.098317e+001 -2.000000e+000
      endloop
   endfacet
   facet normal -0.000000e+000 0.000000e+000 -1.000000e+000
      outer loop
         vertex 5.573032e+000 1.174484e+001 -2.000000e+000
         vertex 1.054715e+001 7.599843e+000 -2.000000e+000
         vertex 1.054087e+001 -7.608549e+000 -2.000000e+000
      endloop
   endfacet
   facet normal 0.000000e+000 0.000000e+000 -1.000000e+000
      outer loop
         vertex -1.138499e+001 6.275505e+000 -2.000000e+000
         vertex -9.463525e+000 8.913008e+000 -2.000000e+000
         vertex -1.258911e+001 3.242592e+000 -2.000000e+000
      endloop
   endfacet
   facet normal 0.000000e+000 0.000000e+000 -1.000000e+000
      outer loop
         vertex -9.470881e+000 -8.905190e+000 -2.000000e+000
         vertex -1.259178e+001 -3.232195e+000 -2.000000e+000
         vertex -1.300000e+001 5.367450e-003 -2.000000e+000
      endloop
   endfacet
   facet normal 0.000000e+000 0.000000e+000 -1.000000e+000
      outer loop
         vertex 2.462097e+000 -1.276472e+001 -2.000000e+000
         vertex 1.054087e+001 -7.608549e+000 -2.000000e+000
         vertex 8.314030e+000 -9.993844e+000 -2.000000e+000
      endloop
   endfacet
   facet normal -0.000000e+000 0.000000e+000 -1.000000e+000
      outer loop
         vertex 2.472636e+000 1.276268e+001 -2.000000e+000
         vertex 5.573032e+000 1.174484e+001 -2.000000e+000
         vertex -1.258911e+001 3.242592e+000 -2.000000e+000
      endloop
   endfacet
   facet normal 0.000000e+000 0.000000e+000 -1.000000e+000
      outer loop
         vertex 2.462097e+000 -1.276472e+001 -2.000000e+000
         vertex -7.942721e-001 -1.297571e+001 -2.000000e+000
         vertex 5.573032e+000 1.174484e+001 -2.000000e+000
      endloop
   endfacet
   facet normal 0.000000e+000 0.000000e+000 -1.000000e+000
      outer loop
         vertex -3.990380e+000 1.237242e+001 -2.000000e+000
         vertex 2.472636e+000 1.276268e+001 -2.000000e+000
         vertex -1.258911e+001 3.242592e+000 -2.000000e+000
      endloop
   endfacet
   facet normal 0.000000e+000 0.000000e+000 -1.000000e+000
      outer loop
         vertex 1.386925e+001 -4.522049e-001 -2.000000e+000
         vertex 1.054715e+001 7.599843e+000 -2.000000e+000
         vertex 1.386879e+001 4.765618e-001 -2.000000e+000
      endloop
   endfacet
   facet normal 0.000000e+000 0.000000e+000 -1.000000e+000
      outer loop
         vertex -6.954845e+000 -1.098317e+001 -2.000000e+000
         vertex -9.470881e+000 -8.905190e+000 -2.000000e+000
         vertex -1.300000e+001 5.367450e-003 -2.000000e+000
      endloop
   endfacet
   facet normal 0.000000e+000 -0.000000e+000 -1.000000e+000
      outer loop
         vertex 2.462097e+000 -1.276472e+001 -2.000000e+000
         vertex 5.573032e+000 1.174484e+001 -2.000000e+000
         vertex 1.054087e+001 -7.608549e+000 -2.000000e+000
      endloop
   endfacet
endsolid
