solid 
   facet normal 7.808688e-001 6.246950e-001 0.000000e+000
      outer loop
         vertex 1.300000e+001 -1.500000e+000 -2.000000e+000
         vertex 1.300000e+001 -1.500000e+000 0.000000e+000
         vertex 1.500000e+001 -4.000000e+000 -7.142857e-001
      endloop
   endfacet
   facet normal 7.808688e-001 6.246950e-001 0.000000e+000
      outer loop
         vertex 1.500000e+001 -4.000000e+000 -2.000000e+000
         vertex 1.300000e+001 -1.500000e+000 -2.000000e+000
         vertex 1.500000e+001 -4.000000e+000 -7.142857e-001
      endloop
   endfacet
   facet normal -4.658208e-001 -8.839247e-001 4.108716e-002
      outer loop
         vertex 8.820799e+000 -5.677132e+000 -1.000000e+000
         vertex 7.535898e+000 -5.000000e+000 -1.000000e+000
         vertex 8.550255e+000 -5.581040e+000 -2.000000e+000
      endloop
   endfacet
   facet normal -7.760308e-001 -6.305937e-001 1.130651e-002
      outer loop
         vertex 7.468843e+000 -4.939538e+000 -9.827251e-001
         vertex 7.154936e+000 -4.551244e+000 -8.717840e-001
         vertex 7.393386e+000 -4.864919e+000 -2.000000e+000
      endloop
   endfacet
   facet normal -9.626972e-001 -2.705811e-001 0.000000e+000
      outer loop
         vertex 7.000000e+000 -4.000000e+000 -7.142857e-001
         vertex 7.000000e+000 -4.000000e+000 -2.000000e+000
         vertex 7.154936e+000 -4.551244e+000 -8.717840e-001
      endloop
   endfacet
   facet normal -2.051449e-001 -9.779751e-001 -3.847459e-002
      outer loop
         vertex 8.550255e+000 -5.581040e+000 -2.000000e+000
         vertex 1.046038e+001 -5.981717e+000 -2.000000e+000
         vertex 8.820799e+000 -5.677132e+000 -1.000000e+000
      endloop
   endfacet
   facet normal 4.336121e-001 -8.991458e-001 -5.930718e-002
      outer loop
         vertex 1.287824e+001 -5.765801e+000 -2.000000e+000
         vertex 1.446143e+001 -5.002308e+000 -2.000000e+000
         vertex 1.324220e+001 -5.656242e+000 -1.000000e+000
      endloop
   endfacet
   facet normal 9.985565e-001 -5.369918e-002 -1.110301e-003
      outer loop
         vertex 1.499422e+001 -4.107468e+000 -2.000000e+000
         vertex 1.500000e+001 -4.000000e+000 -2.000000e+000
         vertex 1.499807e+001 -4.062093e+000 -7.320265e-001
      endloop
   endfacet
   facet normal 9.995176e-001 -3.105599e-002 0.000000e+000
      outer loop
         vertex 1.500000e+001 -4.000000e+000 -7.142857e-001
         vertex 1.499807e+001 -4.062093e+000 -7.320265e-001
         vertex 1.500000e+001 -4.000000e+000 -2.000000e+000
      endloop
   endfacet
   facet normal 7.016400e-001 -7.125316e-001 -2.284657e-004
      outer loop
         vertex 1.465861e+001 -4.808486e+000 -9.452817e-001
         vertex 1.446410e+001 -5.000000e+000 -1.000000e+000
         vertex 1.446143e+001 -5.002308e+000 -2.000000e+000
      endloop
   endfacet
   facet normal 1.416333e-001 -9.882925e-001 5.672778e-002
      outer loop
         vertex 1.324220e+001 -5.656242e+000 -1.000000e+000
         vertex 1.085295e+001 -5.998648e+000 -1.000000e+000
         vertex 1.287824e+001 -5.765801e+000 -2.000000e+000
      endloop
   endfacet
   facet normal -5.259184e-001 -8.496026e-001 -3.981581e-002
      outer loop
         vertex 8.550255e+000 -5.581040e+000 -2.000000e+000
         vertex 7.535898e+000 -5.000000e+000 -1.000000e+000
         vertex 7.393386e+000 -4.864919e+000 -2.000000e+000
      endloop
   endfacet
   facet normal -9.075646e-001 -4.127828e-001 -7.705072e-002
      outer loop
         vertex 7.154936e+000 -4.551244e+000 -8.717840e-001
         vertex 7.000000e+000 -4.000000e+000 -2.000000e+000
         vertex 7.393386e+000 -4.864919e+000 -2.000000e+000
      endloop
   endfacet
   facet normal 8.573314e-001 -5.104555e-001 -6.646900e-002
      outer loop
         vertex 1.465861e+001 -4.808486e+000 -9.452817e-001
         vertex 1.446143e+001 -5.002308e+000 -2.000000e+000
         vertex 1.499422e+001 -4.107468e+000 -2.000000e+000
      endloop
   endfacet
   facet normal -6.703108e-001 -7.420655e-001 -4.711938e-003
      outer loop
         vertex 7.393386e+000 -4.864919e+000 -2.000000e+000
         vertex 7.535898e+000 -5.000000e+000 -1.000000e+000
         vertex 7.468843e+000 -4.939538e+000 -9.827251e-001
      endloop
   endfacet
   facet normal 8.882726e-002 -9.947037e-001 -5.171274e-002
      outer loop
         vertex 1.046038e+001 -5.981717e+000 -2.000000e+000
         vertex 1.287824e+001 -5.765801e+000 -2.000000e+000
         vertex 1.085295e+001 -5.998648e+000 -1.000000e+000
      endloop
   endfacet
   facet normal 8.264100e-001 -5.532404e-001 -1.047452e-001
      outer loop
         vertex 1.486325e+001 -4.518490e+000 -8.624258e-001
         vertex 1.465861e+001 -4.808486e+000 -9.452817e-001
         vertex 1.499422e+001 -4.107468e+000 -2.000000e+000
      endloop
   endfacet
   facet normal -1.561160e-001 -9.867322e-001 4.457949e-002
      outer loop
         vertex 1.085295e+001 -5.998648e+000 -1.000000e+000
         vertex 8.820799e+000 -5.677132e+000 -1.000000e+000
         vertex 1.046038e+001 -5.981717e+000 -2.000000e+000
      endloop
   endfacet
   facet normal 9.584353e-001 -2.852168e-001 7.296459e-003
      outer loop
         vertex 1.499422e+001 -4.107468e+000 -2.000000e+000
         vertex 1.499807e+001 -4.062093e+000 -7.320265e-001
         vertex 1.486325e+001 -4.518490e+000 -8.624258e-001
      endloop
   endfacet
   facet normal 4.731457e-001 -8.809839e-001 7.702314e-004
      outer loop
         vertex 1.446410e+001 -5.000000e+000 -1.000000e+000
         vertex 1.324220e+001 -5.656242e+000 -1.000000e+000
         vertex 1.446143e+001 -5.002308e+000 -2.000000e+000
      endloop
   endfacet
   facet normal -7.808688e-001 6.246950e-001 0.000000e+000
      outer loop
         vertex 7.000000e+000 -4.000000e+000 -2.000000e+000
         vertex 7.000000e+000 -4.000000e+000 -7.142857e-001
         vertex 9.000000e+000 -1.500000e+000 -2.000000e+000
      endloop
   endfacet
   facet normal -7.808688e-001 6.246950e-001 0.000000e+000
      outer loop
         vertex 9.000000e+000 -1.500000e+000 0.000000e+000
         vertex 9.000000e+000 -1.500000e+000 -2.000000e+000
         vertex 7.000000e+000 -4.000000e+000 -7.142857e-001
      endloop
   endfacet
   facet normal -7.808688e-001 -6.246950e-001 -0.000000e+000
      outer loop
         vertex 9.000000e+000 1.500000e+000 -2.000000e+000
         vertex 9.000000e+000 1.500000e+000 0.000000e+000
         vertex 7.000000e+000 4.000000e+000 -7.142857e-001
      endloop
   endfacet
   facet normal -7.808688e-001 -6.246950e-001 0.000000e+000
      outer loop
         vertex 7.000000e+000 4.000000e+000 -2.000000e+000
         vertex 9.000000e+000 1.500000e+000 -2.000000e+000
         vertex 7.000000e+000 4.000000e+000 -7.142857e-001
      endloop
   endfacet
   facet normal 4.658208e-001 8.839247e-001 4.108716e-002
      outer loop
         vertex 1.317920e+001 5.677132e+000 -1.000000e+000
         vertex 1.446410e+001 5.000000e+000 -1.000000e+000
         vertex 1.344975e+001 5.581040e+000 -2.000000e+000
      endloop
   endfacet
   facet normal 7.760307e-001 6.305938e-001 1.130687e-002
      outer loop
         vertex 1.453116e+001 4.939538e+000 -9.827251e-001
         vertex 1.484506e+001 4.551244e+000 -8.717840e-001
         vertex 1.460661e+001 4.864919e+000 -2.000000e+000
      endloop
   endfacet
   facet normal 9.626972e-001 2.705811e-001 -0.000000e+000
      outer loop
         vertex 1.500000e+001 4.000000e+000 -7.142857e-001
         vertex 1.500000e+001 4.000000e+000 -2.000000e+000
         vertex 1.484506e+001 4.551244e+000 -8.717840e-001
      endloop
   endfacet
   facet normal 2.051449e-001 9.779751e-001 -3.847459e-002
      outer loop
         vertex 1.344975e+001 5.581040e+000 -2.000000e+000
         vertex 1.153962e+001 5.981717e+000 -2.000000e+000
         vertex 1.317920e+001 5.677132e+000 -1.000000e+000
      endloop
   endfacet
   facet normal -4.336121e-001 8.991458e-001 -5.930718e-002
      outer loop
         vertex 9.121760e+000 5.765801e+000 -2.000000e+000
         vertex 7.538568e+000 5.002308e+000 -2.000000e+000
         vertex 8.757802e+000 5.656242e+000 -1.000000e+000
      endloop
   endfacet
   facet normal -9.985568e-001 5.369476e-002 -1.109709e-003
      outer loop
         vertex 7.005779e+000 4.107468e+000 -2.000000e+000
         vertex 7.000000e+000 4.000000e+000 -2.000000e+000
         vertex 7.001930e+000 4.062093e+000 -7.320265e-001
      endloop
   endfacet
   facet normal -9.995174e-001 3.106365e-002 0.000000e+000
      outer loop
         vertex 7.000000e+000 4.000000e+000 -7.142857e-001
         vertex 7.001930e+000 4.062093e+000 -7.320265e-001
         vertex 7.000000e+000 4.000000e+000 -2.000000e+000
      endloop
   endfacet
   facet normal -7.016400e-001 7.125316e-001 -2.284657e-004
      outer loop
         vertex 7.341393e+000 4.808486e+000 -9.452817e-001
         vertex 7.535898e+000 5.000000e+000 -1.000000e+000
         vertex 7.538568e+000 5.002308e+000 -2.000000e+000
      endloop
   endfacet
   facet normal -1.416333e-001 9.882925e-001 5.672778e-002
      outer loop
         vertex 8.757802e+000 5.656242e+000 -1.000000e+000
         vertex 1.114705e+001 5.998648e+000 -1.000000e+000
         vertex 9.121760e+000 5.765801e+000 -2.000000e+000
      endloop
   endfacet
   facet normal 5.259183e-001 8.496027e-001 -3.981560e-002
      outer loop
         vertex 1.344975e+001 5.581040e+000 -2.000000e+000
         vertex 1.446410e+001 5.000000e+000 -1.000000e+000
         vertex 1.460661e+001 4.864919e+000 -2.000000e+000
      endloop
   endfacet
   facet normal 9.075648e-001 4.127824e-001 -7.705049e-002
      outer loop
         vertex 1.484506e+001 4.551244e+000 -8.717840e-001
         vertex 1.500000e+001 4.000000e+000 -2.000000e+000
         vertex 1.460661e+001 4.864919e+000 -2.000000e+000
      endloop
   endfacet
   facet normal -8.573312e-001 5.104558e-001 -6.646890e-002
      outer loop
         vertex 7.341393e+000 4.808486e+000 -9.452817e-001
         vertex 7.538568e+000 5.002308e+000 -2.000000e+000
         vertex 7.005779e+000 4.107468e+000 -2.000000e+000
      endloop
   endfacet
   facet normal 6.703108e-001 7.420656e-001 -4.711630e-003
      outer loop
         vertex 1.460661e+001 4.864919e+000 -2.000000e+000
         vertex 1.446410e+001 5.000000e+000 -1.000000e+000
         vertex 1.453116e+001 4.939538e+000 -9.827251e-001
      endloop
   endfacet
   facet normal -8.882726e-002 9.947037e-001 -5.171274e-002
      outer loop
         vertex 1.153962e+001 5.981717e+000 -2.000000e+000
         vertex 9.121760e+000 5.765801e+000 -2.000000e+000
         vertex 1.114705e+001 5.998648e+000 -1.000000e+000
      endloop
   endfacet
   facet normal -8.264100e-001 5.532405e-001 -1.047449e-001
      outer loop
         vertex 7.136754e+000 4.518490e+000 -8.624258e-001
         vertex 7.341393e+000 4.808486e+000 -9.452817e-001
         vertex 7.005779e+000 4.107468e+000 -2.000000e+000
      endloop
   endfacet
   facet normal 1.561160e-001 9.867322e-001 4.457949e-002
      outer loop
         vertex 1.114705e+001 5.998648e+000 -1.000000e+000
         vertex 1.317920e+001 5.677132e+000 -1.000000e+000
         vertex 1.153962e+001 5.981717e+000 -2.000000e+000
      endloop
   endfacet
   facet normal -9.584355e-001 2.852161e-001 7.297152e-003
      outer loop
         vertex 7.005779e+000 4.107468e+000 -2.000000e+000
         vertex 7.001930e+000 4.062093e+000 -7.320265e-001
         vertex 7.136754e+000 4.518490e+000 -8.624258e-001
      endloop
   endfacet
   facet normal -4.731457e-001 8.809839e-001 7.702314e-004
      outer loop
         vertex 7.535898e+000 5.000000e+000 -1.000000e+000
         vertex 8.757802e+000 5.656242e+000 -1.000000e+000
         vertex 7.538568e+000 5.002308e+000 -2.000000e+000
      endloop
   endfacet
   facet normal 7.808688e-001 -6.246950e-001 0.000000e+000
      outer loop
         vertex 1.500000e+001 4.000000e+000 -2.000000e+000
         vertex 1.500000e+001 4.000000e+000 -7.142857e-001
         vertex 1.300000e+001 1.500000e+000 -2.000000e+000
      endloop
   endfacet
   facet normal 7.808688e-001 -6.246950e-001 0.000000e+000
      outer loop
         vertex 1.300000e+001 1.500000e+000 0.000000e+000
         vertex 1.300000e+001 1.500000e+000 -2.000000e+000
         vertex 1.500000e+001 4.000000e+000 -7.142857e-001
      endloop
   endfacet
   facet normal -0.000000e+000 0.000000e+000 1.000000e+000
      outer loop
         vertex 1.500000e+001 1.500000e+000 0.000000e+000
         vertex 1.300000e+001 1.500000e+000 0.000000e+000
         vertex 1.500000e+001 -1.500000e+000 0.000000e+000
      endloop
   endfacet
   facet normal -0.000000e+000 0.000000e+000 1.000000e+000
      outer loop
         vertex 9.000000e+000 1.500000e+000 0.000000e+000
         vertex 2.598076e+000 1.500000e+000 0.000000e+000
         vertex 2.400000e+000 0.000000e+000 0.000000e+000
      endloop
   endfacet
   facet normal 0.000000e+000 0.000000e+000 1.000000e+000
      outer loop
         vertex 1.500000e+000 2.598076e+000 0.000000e+000
         vertex 6.469600e-016 3.000000e+000 0.000000e+000
         vertex 9.969960e-001 2.183117e+000 0.000000e+000
      endloop
   endfacet
   facet normal 0.000000e+000 0.000000e+000 1.000000e+000
      outer loop
         vertex -1.500000e+000 2.598076e+000 0.000000e+000
         vertex -2.598076e+000 1.500000e+000 0.000000e+000
         vertex -1.571666e+000 1.813799e+000 0.000000e+000
      endloop
   endfacet
   facet normal 0.000000e+000 -0.000000e+000 1.000000e+000
      outer loop
         vertex -3.000000e+000 2.182099e-015 0.000000e+000
         vertex -2.598076e+000 -1.500000e+000 0.000000e+000
         vertex -2.302783e+000 -6.761581e-001 0.000000e+000
      endloop
   endfacet
   facet normal 0.000000e+000 0.000000e+000 1.000000e+000
      outer loop
         vertex -1.500000e+000 -2.598076e+000 0.000000e+000
         vertex -2.273947e-015 -3.000000e+000 0.000000e+000
         vertex -3.415556e-001 -2.375571e+000 0.000000e+000
      endloop
   endfacet
   facet normal 0.000000e+000 0.000000e+000 1.000000e+000
      outer loop
         vertex 1.500000e+000 -2.598076e+000 0.000000e+000
         vertex 2.598076e+000 -1.500000e+000 0.000000e+000
         vertex 2.019008e+000 -1.297538e+000 0.000000e+000
      endloop
   endfacet
   facet normal 0.000000e+000 0.000000e+000 1.000000e+000
      outer loop
         vertex 9.000000e+000 -1.500000e+000 0.000000e+000
         vertex 1.300000e+001 -1.500000e+000 0.000000e+000
         vertex 9.000000e+000 1.500000e+000 0.000000e+000
      endloop
   endfacet
   facet normal 0.000000e+000 -0.000000e+000 1.000000e+000
      outer loop
         vertex 2.019008e+000 1.297538e+000 0.000000e+000
         vertex 2.400000e+000 0.000000e+000 0.000000e+000
         vertex 2.598076e+000 1.500000e+000 0.000000e+000
      endloop
   endfacet
   facet normal -0.000000e+000 0.000000e+000 1.000000e+000
      outer loop
         vertex 2.019008e+000 -1.297538e+000 0.000000e+000
         vertex 9.969960e-001 -2.183117e+000 0.000000e+000
         vertex 1.500000e+000 -2.598076e+000 0.000000e+000
      endloop
   endfacet
   facet normal 0.000000e+000 0.000000e+000 1.000000e+000
      outer loop
         vertex -3.415556e-001 -2.375571e+000 0.000000e+000
         vertex -1.571666e+000 -1.813799e+000 0.000000e+000
         vertex -1.500000e+000 -2.598076e+000 0.000000e+000
      endloop
   endfacet
   facet normal 0.000000e+000 0.000000e+000 1.000000e+000
      outer loop
         vertex -2.302783e+000 -6.761581e-001 0.000000e+000
         vertex -2.302783e+000 6.761581e-001 0.000000e+000
         vertex -3.000000e+000 2.182099e-015 0.000000e+000
      endloop
   endfacet
   facet normal 0.000000e+000 0.000000e+000 1.000000e+000
      outer loop
         vertex -1.571666e+000 1.813799e+000 0.000000e+000
         vertex -3.415556e-001 2.375571e+000 0.000000e+000
         vertex -1.500000e+000 2.598076e+000 0.000000e+000
      endloop
   endfacet
   facet normal 0.000000e+000 0.000000e+000 1.000000e+000
      outer loop
         vertex 9.969960e-001 2.183117e+000 0.000000e+000
         vertex 2.019008e+000 1.297538e+000 0.000000e+000
         vertex 1.500000e+000 2.598076e+000 0.000000e+000
      endloop
   endfacet
   facet normal -0.000000e+000 0.000000e+000 1.000000e+000
      outer loop
         vertex 9.000000e+000 1.500000e+000 0.000000e+000
         vertex 2.400000e+000 0.000000e+000 0.000000e+000
         vertex 9.000000e+000 -1.500000e+000 0.000000e+000
      endloop
   endfacet
   facet normal -0.000000e+000 0.000000e+000 1.000000e+000
      outer loop
         vertex -1.571666e+000 1.813799e+000 0.000000e+000
         vertex -2.598076e+000 1.500000e+000 0.000000e+000
         vertex -2.302783e+000 6.761581e-001 0.000000e+000
      endloop
   endfacet
   facet normal 0.000000e+000 0.000000e+000 1.000000e+000
      outer loop
         vertex 2.019008e+000 -1.297538e+000 0.000000e+000
         vertex 2.598076e+000 -1.500000e+000 0.000000e+000
         vertex 2.400000e+000 0.000000e+000 0.000000e+000
      endloop
   endfacet
   facet normal 0.000000e+000 0.000000e+000 1.000000e+000
      outer loop
         vertex 1.500000e+000 -2.598076e+000 0.000000e+000
         vertex 9.969960e-001 -2.183117e+000 0.000000e+000
         vertex -2.273947e-015 -3.000000e+000 0.000000e+000
      endloop
   endfacet
   facet normal 0.000000e+000 -0.000000e+000 1.000000e+000
      outer loop
         vertex -1.500000e+000 2.598076e+000 0.000000e+000
         vertex -3.415556e-001 2.375571e+000 0.000000e+000
         vertex 6.469600e-016 3.000000e+000 0.000000e+000
      endloop
   endfacet
   facet normal 0.000000e+000 0.000000e+000 1.000000e+000
      outer loop
         vertex -2.302783e+000 6.761581e-001 0.000000e+000
         vertex -2.598076e+000 1.500000e+000 0.000000e+000
         vertex -3.000000e+000 2.182099e-015 0.000000e+000
      endloop
   endfacet
   facet normal -0.000000e+000 0.000000e+000 1.000000e+000
      outer loop
         vertex 1.300000e+001 1.500000e+000 0.000000e+000
         vertex 9.000000e+000 1.500000e+000 0.000000e+000
         vertex 1.300000e+001 -1.500000e+000 0.000000e+000
      endloop
   endfacet
   facet normal 0.000000e+000 0.000000e+000 1.000000e+000
      outer loop
         vertex -2.598076e+000 -1.500000e+000 0.000000e+000
         vertex -1.500000e+000 -2.598076e+000 0.000000e+000
         vertex -1.571666e+000 -1.813799e+000 0.000000e+000
      endloop
   endfacet
   facet normal 0.000000e+000 0.000000e+000 1.000000e+000
      outer loop
         vertex 1.300000e+001 -1.500000e+000 0.000000e+000
         vertex 1.500000e+001 -1.500000e+000 0.000000e+000
         vertex 1.300000e+001 1.500000e+000 0.000000e+000
      endloop
   endfacet
   facet normal 0.000000e+000 0.000000e+000 1.000000e+000
      outer loop
         vertex -1.571666e+000 -1.813799e+000 0.000000e+000
         vertex -2.302783e+000 -6.761581e-001 0.000000e+000
         vertex -2.598076e+000 -1.500000e+000 0.000000e+000
      endloop
   endfacet
   facet normal 0.000000e+000 0.000000e+000 1.000000e+000
      outer loop
         vertex 9.969960e-001 2.183117e+000 0.000000e+000
         vertex 6.469600e-016 3.000000e+000 0.000000e+000
         vertex -3.415556e-001 2.375571e+000 0.000000e+000
      endloop
   endfacet
   facet normal 0.000000e+000 -0.000000e+000 1.000000e+000
      outer loop
         vertex 1.500000e+000 2.598076e+000 0.000000e+000
         vertex 2.019008e+000 1.297538e+000 0.000000e+000
         vertex 2.598076e+000 1.500000e+000 0.000000e+000
      endloop
   endfacet
   facet normal 0.000000e+000 0.000000e+000 1.000000e+000
      outer loop
         vertex 2.598076e+000 -1.500000e+000 0.000000e+000
         vertex 9.000000e+000 -1.500000e+000 0.000000e+000
         vertex 2.400000e+000 0.000000e+000 0.000000e+000
      endloop
   endfacet
   facet normal 0.000000e+000 -0.000000e+000 1.000000e+000
      outer loop
         vertex -3.415556e-001 -2.375571e+000 0.000000e+000
         vertex -2.273947e-015 -3.000000e+000 0.000000e+000
         vertex 9.969960e-001 -2.183117e+000 0.000000e+000
      endloop
   endfacet
   facet normal 0.000000e+000 0.000000e+000 1.000000e+000
      outer loop
         vertex 1.085295e+001 -5.998648e+000 -1.000000e+000
         vertex 1.446410e+001 -5.000000e+000 -1.000000e+000
         vertex 7.535898e+000 -5.000000e+000 -1.000000e+000
      endloop
   endfacet
   facet normal 0.000000e+000 0.000000e+000 1.000000e+000
      outer loop
         vertex 1.446410e+001 -5.000000e+000 -1.000000e+000
         vertex 1.085295e+001 -5.998648e+000 -1.000000e+000
         vertex 1.324220e+001 -5.656242e+000 -1.000000e+000
      endloop
   endfacet
   facet normal 0.000000e+000 0.000000e+000 1.000000e+000
      outer loop
         vertex 8.820799e+000 -5.677132e+000 -1.000000e+000
         vertex 1.085295e+001 -5.998648e+000 -1.000000e+000
         vertex 7.535898e+000 -5.000000e+000 -1.000000e+000
      endloop
   endfacet
   facet normal 1.716038e-008 -2.747211e-001 9.615239e-001
      outer loop
         vertex 1.446410e+001 -5.000000e+000 -1.000000e+000
         vertex 1.500000e+001 -4.000000e+000 -7.142857e-001
         vertex 1.300000e+001 -1.500000e+000 0.000000e+000
      endloop
   endfacet
   facet normal -4.309503e-007 -2.747210e-001 9.615240e-001
      outer loop
         vertex 1.500000e+001 -4.000000e+000 -7.142857e-001
         vertex 1.486325e+001 -4.518490e+000 -8.624258e-001
         vertex 1.499807e+001 -4.062093e+000 -7.320265e-001
      endloop
   endfacet
   facet normal 0.000000e+000 -2.747211e-001 9.615239e-001
      outer loop
         vertex 1.300000e+001 -1.500000e+000 0.000000e+000
         vertex 7.535898e+000 -5.000000e+000 -1.000000e+000
         vertex 1.446410e+001 -5.000000e+000 -1.000000e+000
      endloop
   endfacet
   facet normal 1.171806e-007 -2.747210e-001 9.615240e-001
      outer loop
         vertex 7.000000e+000 -4.000000e+000 -7.142857e-001
         vertex 7.154936e+000 -4.551244e+000 -8.717840e-001
         vertex 7.468843e+000 -4.939538e+000 -9.827251e-001
      endloop
   endfacet
   facet normal 0.000000e+000 -2.747211e-001 9.615239e-001
      outer loop
         vertex 7.535898e+000 -5.000000e+000 -1.000000e+000
         vertex 1.300000e+001 -1.500000e+000 0.000000e+000
         vertex 9.000000e+000 -1.500000e+000 0.000000e+000
      endloop
   endfacet
   facet normal -3.270166e-007 -2.747210e-001 9.615240e-001
      outer loop
         vertex 1.465861e+001 -4.808486e+000 -9.452817e-001
         vertex 1.486325e+001 -4.518490e+000 -8.624258e-001
         vertex 1.500000e+001 -4.000000e+000 -7.142857e-001
      endloop
   endfacet
   facet normal 3.223300e-007 -2.747213e-001 9.615239e-001
      outer loop
         vertex 1.446410e+001 -5.000000e+000 -1.000000e+000
         vertex 1.465861e+001 -4.808486e+000 -9.452817e-001
         vertex 1.500000e+001 -4.000000e+000 -7.142857e-001
      endloop
   endfacet
   facet normal 1.682374e-006 -2.747203e-001 9.615242e-001
      outer loop
         vertex 7.000000e+000 -4.000000e+000 -7.142857e-001
         vertex 7.468843e+000 -4.939538e+000 -9.827251e-001
         vertex 7.535898e+000 -5.000000e+000 -1.000000e+000
      endloop
   endfacet
   facet normal -1.716038e-008 -2.747211e-001 9.615239e-001
      outer loop
         vertex 7.000000e+000 -4.000000e+000 -7.142857e-001
         vertex 7.535898e+000 -5.000000e+000 -1.000000e+000
         vertex 9.000000e+000 -1.500000e+000 0.000000e+000
      endloop
   endfacet
   facet normal 0.000000e+000 0.000000e+000 1.000000e+000
      outer loop
         vertex 1.114705e+001 5.998648e+000 -1.000000e+000
         vertex 7.535898e+000 5.000000e+000 -1.000000e+000
         vertex 1.446410e+001 5.000000e+000 -1.000000e+000
      endloop
   endfacet
   facet normal 0.000000e+000 0.000000e+000 1.000000e+000
      outer loop
         vertex 7.535898e+000 5.000000e+000 -1.000000e+000
         vertex 1.114705e+001 5.998648e+000 -1.000000e+000
         vertex 8.757802e+000 5.656242e+000 -1.000000e+000
      endloop
   endfacet
   facet normal 0.000000e+000 0.000000e+000 1.000000e+000
      outer loop
         vertex 1.317920e+001 5.677132e+000 -1.000000e+000
         vertex 1.114705e+001 5.998648e+000 -1.000000e+000
         vertex 1.446410e+001 5.000000e+000 -1.000000e+000
      endloop
   endfacet
   facet normal -1.716038e-008 2.747211e-001 9.615239e-001
      outer loop
         vertex 7.535898e+000 5.000000e+000 -1.000000e+000
         vertex 7.000000e+000 4.000000e+000 -7.142857e-001
         vertex 9.000000e+000 1.500000e+000 0.000000e+000
      endloop
   endfacet
   facet normal 4.309646e-007 2.747210e-001 9.615240e-001
      outer loop
         vertex 7.000000e+000 4.000000e+000 -7.142857e-001
         vertex 7.136754e+000 4.518490e+000 -8.624258e-001
         vertex 7.001930e+000 4.062093e+000 -7.320265e-001
      endloop
   endfacet
   facet normal 0.000000e+000 2.747211e-001 9.615239e-001
      outer loop
         vertex 1.300000e+001 1.500000e+000 0.000000e+000
         vertex 1.446410e+001 5.000000e+000 -1.000000e+000
         vertex 7.535898e+000 5.000000e+000 -1.000000e+000
      endloop
   endfacet
   facet normal -1.171806e-007 2.747210e-001 9.615240e-001
      outer loop
         vertex 1.500000e+001 4.000000e+000 -7.142857e-001
         vertex 1.484506e+001 4.551244e+000 -8.717840e-001
         vertex 1.453116e+001 4.939538e+000 -9.827251e-001
      endloop
   endfacet
   facet normal -0.000000e+000 2.747211e-001 9.615239e-001
      outer loop
         vertex 7.535898e+000 5.000000e+000 -1.000000e+000
         vertex 9.000000e+000 1.500000e+000 0.000000e+000
         vertex 1.300000e+001 1.500000e+000 0.000000e+000
      endloop
   endfacet
   facet normal 3.270166e-007 2.747210e-001 9.615240e-001
      outer loop
         vertex 7.341393e+000 4.808486e+000 -9.452817e-001
         vertex 7.136754e+000 4.518490e+000 -8.624258e-001
         vertex 7.000000e+000 4.000000e+000 -7.142857e-001
      endloop
   endfacet
   facet normal -3.223300e-007 2.747213e-001 9.615239e-001
      outer loop
         vertex 7.535898e+000 5.000000e+000 -1.000000e+000
         vertex 7.341393e+000 4.808486e+000 -9.452817e-001
         vertex 7.000000e+000 4.000000e+000 -7.142857e-001
      endloop
   endfacet
   facet normal -1.682374e-006 2.747203e-001 9.615242e-001
      outer loop
         vertex 1.500000e+001 4.000000e+000 -7.142857e-001
         vertex 1.453116e+001 4.939538e+000 -9.827251e-001
         vertex 1.446410e+001 5.000000e+000 -1.000000e+000
      endloop
   endfacet
   facet normal 1.716038e-008 2.747211e-001 9.615239e-001
      outer loop
         vertex 1.500000e+001 4.000000e+000 -7.142857e-001
         vertex 1.446410e+001 5.000000e+000 -1.000000e+000
         vertex 1.300000e+001 1.500000e+000 0.000000e+000
      endloop
   endfacet
   facet normal -0.000000e+000 0.000000e+000 -1.000000e+000
      outer loop
         vertex 1.344975e+001 5.581040e+000 -2.000000e+000
         vertex 1.500000e+001 4.000000e+000 -2.000000e+000
         vertex 1.300000e+001 1.500000e+000 -2.000000e+000
      endloop
   endfacet
   facet normal 0.000000e+000 0.000000e+000 -1.000000e+000
      outer loop
         vertex 1.500000e+001 4.000000e+000 -2.000000e+000
         vertex 1.344975e+001 5.581040e+000 -2.000000e+000
         vertex 1.460661e+001 4.864919e+000 -2.000000e+000
      endloop
   endfacet
   facet normal 0.000000e+000 0.000000e+000 -1.000000e+000
      outer loop
         vertex 9.000000e+000 1.500000e+000 -2.000000e+000
         vertex 7.538568e+000 5.002308e+000 -2.000000e+000
         vertex 9.121760e+000 5.765801e+000 -2.000000e+000
      endloop
   endfacet
   facet normal 0.000000e+000 0.000000e+000 -1.000000e+000
      outer loop
         vertex 7.538568e+000 5.002308e+000 -2.000000e+000
         vertex 7.000000e+000 4.000000e+000 -2.000000e+000
         vertex 7.005779e+000 4.107468e+000 -2.000000e+000
      endloop
   endfacet
   facet normal -0.000000e+000 -0.000000e+000 -1.000000e+000
      outer loop
         vertex 6.469600e-016 3.000000e+000 -2.000000e+000
         vertex 1.500000e+000 2.598076e+000 -2.000000e+000
         vertex 2.598076e+000 1.500000e+000 -2.000000e+000
      endloop
   endfacet
   facet normal 0.000000e+000 -0.000000e+000 -1.000000e+000
      outer loop
         vertex -3.000000e+000 2.182099e-015 -2.000000e+000
         vertex -2.598076e+000 1.500000e+000 -2.000000e+000
         vertex -1.500000e+000 2.598076e+000 -2.000000e+000
      endloop
   endfacet
   facet normal 0.000000e+000 0.000000e+000 -1.000000e+000
      outer loop
         vertex 2.598076e+000 -1.500000e+000 -2.000000e+000
         vertex -1.500000e+000 -2.598076e+000 -2.000000e+000
         vertex -2.598076e+000 -1.500000e+000 -2.000000e+000
      endloop
   endfacet
   facet normal -0.000000e+000 0.000000e+000 -1.000000e+000
      outer loop
         vertex 2.598076e+000 -1.500000e+000 -2.000000e+000
         vertex 1.500000e+000 -2.598076e+000 -2.000000e+000
         vertex -2.273947e-015 -3.000000e+000 -2.000000e+000
      endloop
   endfacet
   facet normal 0.000000e+000 0.000000e+000 -1.000000e+000
      outer loop
         vertex 8.550255e+000 -5.581040e+000 -2.000000e+000
         vertex 7.000000e+000 -4.000000e+000 -2.000000e+000
         vertex 9.000000e+000 -1.500000e+000 -2.000000e+000
      endloop
   endfacet
   facet normal 0.000000e+000 0.000000e+000 -1.000000e+000
      outer loop
         vertex 7.000000e+000 -4.000000e+000 -2.000000e+000
         vertex 8.550255e+000 -5.581040e+000 -2.000000e+000
         vertex 7.393386e+000 -4.864919e+000 -2.000000e+000
      endloop
   endfacet
   facet normal -0.000000e+000 0.000000e+000 -1.000000e+000
      outer loop
         vertex 1.300000e+001 -1.500000e+000 -2.000000e+000
         vertex 1.446143e+001 -5.002308e+000 -2.000000e+000
         vertex 1.287824e+001 -5.765801e+000 -2.000000e+000
      endloop
   endfacet
   facet normal 0.000000e+000 0.000000e+000 -1.000000e+000
      outer loop
         vertex 1.446143e+001 -5.002308e+000 -2.000000e+000
         vertex 1.500000e+001 -4.000000e+000 -2.000000e+000
         vertex 1.499422e+001 -4.107468e+000 -2.000000e+000
      endloop
   endfacet
   facet normal -0.000000e+000 -0.000000e+000 -1.000000e+000
      outer loop
         vertex 1.300000e+001 1.500000e+000 -2.000000e+000
         vertex 1.500000e+001 1.500000e+000 -2.000000e+000
         vertex 1.500000e+001 -1.500000e+000 -2.000000e+000
      endloop
   endfacet
   facet normal 0.000000e+000 0.000000e+000 -1.000000e+000
      outer loop
         vertex 1.153962e+001 5.981717e+000 -2.000000e+000
         vertex 9.000000e+000 1.500000e+000 -2.000000e+000
         vertex 9.121760e+000 5.765801e+000 -2.000000e+000
      endloop
   endfacet
   facet normal 0.000000e+000 -0.000000e+000 -1.000000e+000
      outer loop
         vertex -1.500000e+000 2.598076e+000 -2.000000e+000
         vertex 6.469600e-016 3.000000e+000 -2.000000e+000
         vertex 2.598076e+000 1.500000e+000 -2.000000e+000
      endloop
   endfacet
   facet normal 0.000000e+000 0.000000e+000 -1.000000e+000
      outer loop
         vertex -2.273947e-015 -3.000000e+000 -2.000000e+000
         vertex -1.500000e+000 -2.598076e+000 -2.000000e+000
         vertex 2.598076e+000 -1.500000e+000 -2.000000e+000
      endloop
   endfacet
   facet normal 0.000000e+000 0.000000e+000 -1.000000e+000
      outer loop
         vertex 1.500000e+001 -4.000000e+000 -2.000000e+000
         vertex 1.446143e+001 -5.002308e+000 -2.000000e+000
         vertex 1.300000e+001 -1.500000e+000 -2.000000e+000
      endloop
   endfacet
   facet normal 0.000000e+000 -0.000000e+000 -1.000000e+000
      outer loop
         vertex -2.598076e+000 -1.500000e+000 -2.000000e+000
         vertex -1.500000e+000 2.598076e+000 -2.000000e+000
         vertex 2.598076e+000 1.500000e+000 -2.000000e+000
      endloop
   endfacet
   facet normal 0.000000e+000 0.000000e+000 -1.000000e+000
      outer loop
         vertex -3.000000e+000 2.182099e-015 -2.000000e+000
         vertex -1.500000e+000 2.598076e+000 -2.000000e+000
         vertex -2.598076e+000 -1.500000e+000 -2.000000e+000
      endloop
   endfacet
   facet normal 0.000000e+000 0.000000e+000 -1.000000e+000
      outer loop
         vertex 1.300000e+001 1.500000e+000 -2.000000e+000
         vertex 1.153962e+001 5.981717e+000 -2.000000e+000
         vertex 1.344975e+001 5.581040e+000 -2.000000e+000
      endloop
   endfacet
   facet normal 0.000000e+000 0.000000e+000 -1.000000e+000
      outer loop
         vertex 9.000000e+000 -1.500000e+000 -2.000000e+000
         vertex 2.598076e+000 1.500000e+000 -2.000000e+000
         vertex 9.000000e+000 1.500000e+000 -2.000000e+000
      endloop
   endfacet
   facet normal 0.000000e+000 0.000000e+000 -1.000000e+000
      outer loop
         vertex 9.000000e+000 -1.500000e+000 -2.000000e+000
         vertex 1.046038e+001 -5.981717e+000 -2.000000e+000
         vertex 8.550255e+000 -5.581040e+000 -2.000000e+000
      endloop
   endfacet
   facet normal 0.000000e+000 0.000000e+000 -1.000000e+000
      outer loop
         vertex 1.300000e+001 1.500000e+000 -2.000000e+000
         vertex 1.500000e+001 -1.500000e+000 -2.000000e+000
         vertex 1.300000e+001 -1.500000e+000 -2.000000e+000
      endloop
   endfacet
   facet normal 0.000000e+000 0.000000e+000 -1.000000e+000
      outer loop
         vertex 9.000000e+000 1.500000e+000 -2.000000e+000
         vertex 7.000000e+000 4.000000e+000 -2.000000e+000
         vertex 7.538568e+000 5.002308e+000 -2.000000e+000
      endloop
   endfacet
   facet normal 0.000000e+000 0.000000e+000 -1.000000e+000
      outer loop
         vertex 2.598076e+000 -1.500000e+000 -2.000000e+000
         vertex -2.598076e+000 -1.500000e+000 -2.000000e+000
         vertex 2.598076e+000 1.500000e+000 -2.000000e+000
      endloop
   endfacet
   facet normal 0.000000e+000 0.000000e+000 -1.000000e+000
      outer loop
         vertex 2.598076e+000 -1.500000e+000 -2.000000e+000
         vertex 2.598076e+000 1.500000e+000 -2.000000e+000
         vertex 9.000000e+000 -1.500000e+000 -2.000000e+000
      endloop
   endfacet
   facet normal -0.000000e+000 0.000000e+000 -1.000000e+000
      outer loop
         vertex 1.300000e+001 -1.500000e+000 -2.000000e+000
         vertex 1.287824e+001 -5.765801e+000 -2.000000e+000
         vertex 1.046038e+001 -5.981717e+000 -2.000000e+000
      endloop
   endfacet
   facet normal 0.000000e+000 -0.000000e+000 -1.000000e+000
      outer loop
         vertex 9.000000e+000 1.500000e+000 -2.000000e+000
         vertex 1.153962e+001 5.981717e+000 -2.000000e+000
         vertex 1.300000e+001 1.500000e+000 -2.000000e+000
      endloop
   endfacet
   facet normal -0.000000e+000 -0.000000e+000 -1.000000e+000
      outer loop
         vertex 9.000000e+000 1.500000e+000 -2.000000e+000
         vertex 1.300000e+001 1.500000e+000 -2.000000e+000
         vertex 1.300000e+001 -1.500000e+000 -2.000000e+000
      endloop
   endfacet
   facet normal 0.000000e+000 0.000000e+000 -1.000000e+000
      outer loop
         vertex 9.000000e+000 -1.500000e+000 -2.000000e+000
         vertex 9.000000e+000 1.500000e+000 -2.000000e+000
         vertex 1.300000e+001 -1.500000e+000 -2.000000e+000
      endloop
   endfacet
   facet normal 0.000000e+000 0.000000e+000 -1.000000e+000
      outer loop
         vertex 1.300000e+001 -1.500000e+000 -2.000000e+000
         vertex 1.046038e+001 -5.981717e+000 -2.000000e+000
         vertex 9.000000e+000 -1.500000e+000 -2.000000e+000
      endloop
   endfacet
   facet normal 0.000000e+000 -1.000000e+000 0.000000e+000
      outer loop
         vertex 1.300000e+001 -1.500000e+000 0.000000e+000
         vertex 1.300000e+001 -1.500000e+000 -2.000000e+000
         vertex 1.500000e+001 -1.500000e+000 -2.000000e+000
      endloop
   endfacet
   facet normal 0.000000e+000 -1.000000e+000 0.000000e+000
      outer loop
         vertex 1.500000e+001 -1.500000e+000 0.000000e+000
         vertex 1.300000e+001 -1.500000e+000 0.000000e+000
         vertex 1.500000e+001 -1.500000e+000 -2.000000e+000
      endloop
   endfacet
   facet normal 0.000000e+000 -1.000000e+000 0.000000e+000
      outer loop
         vertex 2.598076e+000 -1.500000e+000 0.000000e+000
         vertex 2.598076e+000 -1.500000e+000 -2.000000e+000
         vertex 9.000000e+000 -1.500000e+000 -2.000000e+000
      endloop
   endfacet
   facet normal 0.000000e+000 -1.000000e+000 0.000000e+000
      outer loop
         vertex 9.000000e+000 -1.500000e+000 0.000000e+000
         vertex 2.598076e+000 -1.500000e+000 0.000000e+000
         vertex 9.000000e+000 -1.500000e+000 -2.000000e+000
      endloop
   endfacet
   facet normal 0.000000e+000 1.000000e+000 -0.000000e+000
      outer loop
         vertex 9.000000e+000 1.500000e+000 0.000000e+000
         vertex 9.000000e+000 1.500000e+000 -2.000000e+000
         vertex 2.598076e+000 1.500000e+000 -2.000000e+000
      endloop
   endfacet
   facet normal 0.000000e+000 1.000000e+000 0.000000e+000
      outer loop
         vertex 2.598076e+000 1.500000e+000 0.000000e+000
         vertex 9.000000e+000 1.500000e+000 0.000000e+000
         vertex 2.598076e+000 1.500000e+000 -2.000000e+000
      endloop
   endfacet
   facet normal 0.000000e+000 1.000000e+000 -0.000000e+000
      outer loop
         vertex 1.500000e+001 1.500000e+000 0.000000e+000
         vertex 1.500000e+001 1.500000e+000 -2.000000e+000
         vertex 1.300000e+001 1.500000e+000 -2.000000e+000
      endloop
   endfacet
   facet normal 0.000000e+000 1.000000e+000 0.000000e+000
      outer loop
         vertex 1.300000e+001 1.500000e+000 0.000000e+000
         vertex 1.500000e+001 1.500000e+000 0.000000e+000
         vertex 1.300000e+001 1.500000e+000 -2.000000e+000
      endloop
   endfacet
   facet normal 7.071068e-001 7.071068e-001 -0.000000e+000
      outer loop
         vertex 2.598076e+000 1.500000e+000 0.000000e+000
         vertex 2.598076e+000 1.500000e+000 -2.000000e+000
         vertex 1.500000e+000 2.598076e+000 -2.000000e+000
      endloop
   endfacet
   facet normal -2.588191e-001 9.659258e-001 0.000000e+000
      outer loop
         vertex 6.469600e-016 3.000000e+000 -2.000000e+000
         vertex -1.500000e+000 2.598076e+000 -2.000000e+000
         vertex -1.500000e+000 2.598076e+000 0.000000e+000
      endloop
   endfacet
   facet normal -9.659258e-001 2.588191e-001 0.000000e+000
      outer loop
         vertex -2.598076e+000 1.500000e+000 -2.000000e+000
         vertex -3.000000e+000 2.182099e-015 -2.000000e+000
         vertex -3.000000e+000 2.182099e-015 0.000000e+000
      endloop
   endfacet
   facet normal -7.071068e-001 -7.071068e-001 0.000000e+000
      outer loop
         vertex -2.598076e+000 -1.500000e+000 -2.000000e+000
         vertex -1.500000e+000 -2.598076e+000 -2.000000e+000
         vertex -1.500000e+000 -2.598076e+000 0.000000e+000
      endloop
   endfacet
   facet normal 2.588191e-001 -9.659258e-001 0.000000e+000
      outer loop
         vertex -2.273947e-015 -3.000000e+000 -2.000000e+000
         vertex 1.500000e+000 -2.598076e+000 -2.000000e+000
         vertex 1.500000e+000 -2.598076e+000 0.000000e+000
      endloop
   endfacet
   facet normal 7.071068e-001 -7.071068e-001 0.000000e+000
      outer loop
         vertex 2.598076e+000 -1.500000e+000 -2.000000e+000
         vertex 2.598076e+000 -1.500000e+000 0.000000e+000
         vertex 1.500000e+000 -2.598076e+000 -2.000000e+000
      endloop
   endfacet
   facet normal -2.588191e-001 -9.659258e-001 -0.000000e+000
      outer loop
         vertex -2.273947e-015 -3.000000e+000 0.000000e+000
         vertex -1.500000e+000 -2.598076e+000 0.000000e+000
         vertex -1.500000e+000 -2.598076e+000 -2.000000e+000
      endloop
   endfacet
   facet normal -9.659258e-001 -2.588191e-001 -0.000000e+000
      outer loop
         vertex -2.598076e+000 -1.500000e+000 0.000000e+000
         vertex -3.000000e+000 2.182099e-015 0.000000e+000
         vertex -3.000000e+000 2.182099e-015 -2.000000e+000
      endloop
   endfacet
   facet normal -7.071068e-001 7.071068e-001 0.000000e+000
      outer loop
         vertex -2.598076e+000 1.500000e+000 0.000000e+000
         vertex -1.500000e+000 2.598076e+000 0.000000e+000
         vertex -1.500000e+000 2.598076e+000 -2.000000e+000
      endloop
   endfacet
   facet normal 2.588191e-001 9.659258e-001 0.000000e+000
      outer loop
         vertex 6.469600e-016 3.000000e+000 0.000000e+000
         vertex 1.500000e+000 2.598076e+000 0.000000e+000
         vertex 1.500000e+000 2.598076e+000 -2.000000e+000
      endloop
   endfacet
   facet normal 7.071068e-001 7.071068e-001 -0.000000e+000
      outer loop
         vertex 2.598076e+000 1.500000e+000 0.000000e+000
         vertex 1.500000e+000 2.598076e+000 -2.000000e+000
         vertex 1.500000e+000 2.598076e+000 0.000000e+000
      endloop
   endfacet
   facet normal -7.071068e-001 -7.071068e-001 0.000000e+000
      outer loop
         vertex -2.598076e+000 -1.500000e+000 -2.000000e+000
         vertex -1.500000e+000 -2.598076e+000 0.000000e+000
         vertex -2.598076e+000 -1.500000e+000 0.000000e+000
      endloop
   endfacet
   facet normal 7.071068e-001 -7.071068e-001 0.000000e+000
      outer loop
         vertex 1.500000e+000 -2.598076e+000 -2.000000e+000
         vertex 2.598076e+000 -1.500000e+000 0.000000e+000
         vertex 1.500000e+000 -2.598076e+000 0.000000e+000
      endloop
   endfacet
   facet normal 2.588191e-001 9.659258e-001 0.000000e+000
      outer loop
         vertex 6.469600e-016 3.000000e+000 0.000000e+000
         vertex 1.500000e+000 2.598076e+000 -2.000000e+000
         vertex 6.469600e-016 3.000000e+000 -2.000000e+000
      endloop
   endfacet
   facet normal -7.071068e-001 7.071068e-001 0.000000e+000
      outer loop
         vertex -1.500000e+000 2.598076e+000 -2.000000e+000
         vertex -2.598076e+000 1.500000e+000 -2.000000e+000
         vertex -2.598076e+000 1.500000e+000 0.000000e+000
      endloop
   endfacet
   facet normal -2.588191e-001 -9.659258e-001 0.000000e+000
      outer loop
         vertex -1.500000e+000 -2.598076e+000 -2.000000e+000
         vertex -2.273947e-015 -3.000000e+000 -2.000000e+000
         vertex -2.273947e-015 -3.000000e+000 0.000000e+000
      endloop
   endfacet
   facet normal -9.659258e-001 2.588191e-001 0.000000e+000
      outer loop
         vertex -3.000000e+000 2.182099e-015 0.000000e+000
         vertex -2.598076e+000 1.500000e+000 0.000000e+000
         vertex -2.598076e+000 1.500000e+000 -2.000000e+000
      endloop
   endfacet
   facet normal -2.588191e-001 9.659258e-001 0.000000e+000
      outer loop
         vertex 6.469600e-016 3.000000e+000 -2.000000e+000
         vertex -1.500000e+000 2.598076e+000 0.000000e+000
         vertex 6.469600e-016 3.000000e+000 0.000000e+000
      endloop
   endfacet
   facet normal -9.659258e-001 -2.588191e-001 -0.000000e+000
      outer loop
         vertex -2.598076e+000 -1.500000e+000 -2.000000e+000
         vertex -2.598076e+000 -1.500000e+000 0.000000e+000
         vertex -3.000000e+000 2.182099e-015 -2.000000e+000
      endloop
   endfacet
   facet normal 2.588191e-001 -9.659258e-001 0.000000e+000
      outer loop
         vertex 1.500000e+000 -2.598076e+000 0.000000e+000
         vertex -2.273947e-015 -3.000000e+000 0.000000e+000
         vertex -2.273947e-015 -3.000000e+000 -2.000000e+000
      endloop
   endfacet
   facet normal 1.000000e+000 0.000000e+000 0.000000e+000
      outer loop
         vertex 1.500000e+001 -1.500000e+000 0.000000e+000
         vertex 1.500000e+001 -1.500000e+000 -2.000000e+000
         vertex 1.500000e+001 1.500000e+000 -2.000000e+000
      endloop
   endfacet
   facet normal 1.000000e+000 -0.000000e+000 0.000000e+000
      outer loop
         vertex 1.500000e+001 1.500000e+000 0.000000e+000
         vertex 1.500000e+001 -1.500000e+000 0.000000e+000
         vertex 1.500000e+001 1.500000e+000 -2.000000e+000
      endloop
   endfacet
   facet normal 9.594929e-001 -2.817327e-001 -3.620976e-016
      outer loop
         vertex 2.400000e+000 0.000000e+000 0.000000e+000
         vertex 2.400000e+000 -2.939152e-016 2.286829e-001
         vertex 2.019008e+000 -1.297538e+000 2.286829e-001
      endloop
   endfacet
   facet normal 1.423149e-001 -9.898214e-001 0.000000e+000
      outer loop
         vertex 9.969960e-001 -2.183117e+000 2.286829e-001
         vertex -3.415556e-001 -2.375571e+000 2.286829e-001
         vertex 9.969960e-001 -2.183117e+000 0.000000e+000
      endloop
   endfacet
   facet normal -8.412535e-001 -5.406409e-001 -0.000000e+000
      outer loop
         vertex -1.571666e+000 -1.813799e+000 2.286829e-001
         vertex -2.302783e+000 -6.761581e-001 2.286829e-001
         vertex -2.302783e+000 -6.761581e-001 0.000000e+000
      endloop
   endfacet
   facet normal -8.412535e-001 5.406409e-001 0.000000e+000
      outer loop
         vertex -2.302783e+000 6.761581e-001 2.286829e-001
         vertex -1.571666e+000 1.813799e+000 2.286829e-001
         vertex -1.571666e+000 1.813799e+000 0.000000e+000
      endloop
   endfacet
   facet normal 1.423149e-001 9.898214e-001 0.000000e+000
      outer loop
         vertex -3.415556e-001 2.375571e+000 2.286829e-001
         vertex 9.969960e-001 2.183117e+000 2.286829e-001
         vertex -3.415556e-001 2.375571e+000 0.000000e+000
      endloop
   endfacet
   facet normal 9.594929e-001 2.817327e-001 3.620976e-016
      outer loop
         vertex 2.019008e+000 1.297538e+000 2.286829e-001
         vertex 2.400000e+000 -2.939152e-016 2.286829e-001
         vertex 2.400000e+000 0.000000e+000 0.000000e+000
      endloop
   endfacet
   facet normal 6.548607e-001 7.557496e-001 -0.000000e+000
      outer loop
         vertex 2.019008e+000 1.297538e+000 0.000000e+000
         vertex 9.969960e-001 2.183117e+000 0.000000e+000
         vertex 9.969960e-001 2.183117e+000 2.286829e-001
      endloop
   endfacet
   facet normal -4.154150e-001 9.096320e-001 0.000000e+000
      outer loop
         vertex -3.415556e-001 2.375571e+000 0.000000e+000
         vertex -1.571666e+000 1.813799e+000 0.000000e+000
         vertex -3.415556e-001 2.375571e+000 2.286829e-001
      endloop
   endfacet
   facet normal -1.000000e+000 0.000000e+000 0.000000e+000
      outer loop
         vertex -2.302783e+000 6.761581e-001 0.000000e+000
         vertex -2.302783e+000 -6.761581e-001 0.000000e+000
         vertex -2.302783e+000 -6.761581e-001 2.286829e-001
      endloop
   endfacet
   facet normal -4.154150e-001 -9.096320e-001 0.000000e+000
      outer loop
         vertex -1.571666e+000 -1.813799e+000 0.000000e+000
         vertex -3.415556e-001 -2.375571e+000 0.000000e+000
         vertex -1.571666e+000 -1.813799e+000 2.286829e-001
      endloop
   endfacet
   facet normal 6.548607e-001 -7.557496e-001 0.000000e+000
      outer loop
         vertex 9.969960e-001 -2.183117e+000 0.000000e+000
         vertex 2.019008e+000 -1.297538e+000 0.000000e+000
         vertex 9.969960e-001 -2.183117e+000 2.286829e-001
      endloop
   endfacet
   facet normal 9.594929e-001 -2.817327e-001 0.000000e+000
      outer loop
         vertex 2.400000e+000 0.000000e+000 0.000000e+000
         vertex 2.019008e+000 -1.297538e+000 2.286829e-001
         vertex 2.019008e+000 -1.297538e+000 0.000000e+000
      endloop
   endfacet
   facet normal -8.412535e-001 5.406409e-001 0.000000e+000
      outer loop
         vertex -2.302783e+000 6.761581e-001 2.286829e-001
         vertex -1.571666e+000 1.813799e+000 0.000000e+000
         vertex -2.302783e+000 6.761581e-001 0.000000e+000
      endloop
   endfacet
   facet normal 9.594929e-001 2.817327e-001 0.000000e+000
      outer loop
         vertex 2.019008e+000 1.297538e+000 2.286829e-001
         vertex 2.400000e+000 0.000000e+000 0.000000e+000
         vertex 2.019008e+000 1.297538e+000 0.000000e+000
      endloop
   endfacet
   facet normal -4.154150e-001 9.096320e-001 0.000000e+000
      outer loop
         vertex -3.415556e-001 2.375571e+000 2.286829e-001
         vertex -1.571666e+000 1.813799e+000 0.000000e+000
         vertex -1.571666e+000 1.813799e+000 2.286829e-001
      endloop
   endfacet
   facet normal 6.548607e-001 -7.557496e-001 0.000000e+000
      outer loop
         vertex 9.969960e-001 -2.183117e+000 2.286829e-001
         vertex 2.019008e+000 -1.297538e+000 0.000000e+000
         vertex 2.019008e+000 -1.297538e+000 2.286829e-001
      endloop
   endfacet
   facet normal -4.154150e-001 -9.096320e-001 0.000000e+000
      outer loop
         vertex -3.415556e-001 -2.375571e+000 2.286829e-001
         vertex -1.571666e+000 -1.813799e+000 2.286829e-001
         vertex -3.415556e-001 -2.375571e+000 0.000000e+000
      endloop
   endfacet
   facet normal 6.548607e-001 7.557496e-001 0.000000e+000
      outer loop
         vertex 9.969960e-001 2.183117e+000 2.286829e-001
         vertex 2.019008e+000 1.297538e+000 2.286829e-001
         vertex 2.019008e+000 1.297538e+000 0.000000e+000
      endloop
   endfacet
   facet normal -8.412535e-001 -5.406409e-001 0.000000e+000
      outer loop
         vertex -2.302783e+000 -6.761581e-001 0.000000e+000
         vertex -1.571666e+000 -1.813799e+000 0.000000e+000
         vertex -1.571666e+000 -1.813799e+000 2.286829e-001
      endloop
   endfacet
   facet normal 1.423149e-001 -9.898214e-001 0.000000e+000
      outer loop
         vertex 9.969960e-001 -2.183117e+000 0.000000e+000
         vertex -3.415556e-001 -2.375571e+000 2.286829e-001
         vertex -3.415556e-001 -2.375571e+000 0.000000e+000
      endloop
   endfacet
   facet normal -1.000000e+000 0.000000e+000 0.000000e+000
      outer loop
         vertex -2.302783e+000 6.761581e-001 0.000000e+000
         vertex -2.302783e+000 -6.761581e-001 2.286829e-001
         vertex -2.302783e+000 6.761581e-001 2.286829e-001
      endloop
   endfacet
   facet normal 1.423149e-001 9.898214e-001 0.000000e+000
      outer loop
         vertex 9.969960e-001 2.183117e+000 0.000000e+000
         vertex -3.415556e-001 2.375571e+000 0.000000e+000
         vertex 9.969960e-001 2.183117e+000 2.286829e-001
      endloop
   endfacet
   facet normal 9.582402e-001 2.813649e-001 5.108266e-002
      outer loop
         vertex 2.019008e+000 1.297538e+000 2.286829e-001
         vertex 2.200000e+000 0.000000e+000 3.980408e+000
         vertex 2.400000e+000 -2.939152e-016 2.286829e-001
      endloop
   endfacet
   facet normal 5.863802e-001 8.070831e-001 6.910223e-002
      outer loop
         vertex 9.969960e-001 2.183117e+000 2.286829e-001
         vertex 6.798374e-001 2.092324e+000 3.980408e+000
         vertex 1.779837e+000 1.293128e+000 3.980408e+000
      endloop
   endfacet
   facet normal -5.859290e-001 8.064621e-001 7.941095e-002
      outer loop
         vertex -1.571666e+000 1.813799e+000 2.286829e-001
         vertex -1.779837e+000 1.293128e+000 3.980408e+000
         vertex -6.798374e-001 2.092324e+000 3.980408e+000
      endloop
   endfacet
   facet normal -9.478945e-001 -3.079896e-001 8.147648e-002
      outer loop
         vertex -2.302783e+000 -6.761581e-001 2.286829e-001
         vertex -1.779837e+000 -1.293128e+000 3.980408e+000
         vertex -2.200000e+000 2.694223e-016 3.980408e+000
      endloop
   endfacet
   facet normal 0.000000e+000 -9.971622e-001 7.528362e-002
      outer loop
         vertex -3.415556e-001 -2.375571e+000 2.286829e-001
         vertex 6.798374e-001 -2.092324e+000 3.980408e+000
         vertex -6.798374e-001 -2.092324e+000 3.980408e+000
      endloop
   endfacet
   facet normal 9.492924e-001 -3.084439e-001 6.087962e-002
      outer loop
         vertex 2.019008e+000 -1.297538e+000 2.286829e-001
         vertex 2.200000e+000 0.000000e+000 3.980408e+000
         vertex 1.779837e+000 -1.293128e+000 3.980408e+000
      endloop
   endfacet
   facet normal 9.582402e-001 -2.813649e-001 5.108266e-002
      outer loop
         vertex 2.200000e+000 0.000000e+000 3.980408e+000
         vertex 2.019008e+000 -1.297538e+000 2.286829e-001
         vertex 2.400000e+000 -2.939152e-016 2.286829e-001
      endloop
   endfacet
   facet normal -4.152127e-001 -9.091891e-001 3.120335e-002
      outer loop
         vertex -6.798374e-001 -2.092324e+000 3.980408e+000
         vertex -1.571666e+000 -1.813799e+000 2.286829e-001
         vertex -3.415556e-001 -2.375571e+000 2.286829e-001
      endloop
   endfacet
   facet normal -9.996249e-001 0.000000e+000 2.738598e-002
      outer loop
         vertex -2.200000e+000 2.694223e-016 3.980408e+000
         vertex -2.302783e+000 6.761581e-001 2.286829e-001
         vertex -2.302783e+000 -6.761581e-001 2.286829e-001
      endloop
   endfacet
   facet normal -4.152127e-001 9.091891e-001 3.120335e-002
      outer loop
         vertex -6.798374e-001 2.092324e+000 3.980408e+000
         vertex -3.415556e-001 2.375571e+000 2.286829e-001
         vertex -1.571666e+000 1.813799e+000 2.286829e-001
      endloop
   endfacet
   facet normal 6.542663e-001 7.550636e-001 4.259685e-002
      outer loop
         vertex 1.779837e+000 1.293128e+000 3.980408e+000
         vertex 2.019008e+000 1.297538e+000 2.286829e-001
         vertex 9.969960e-001 2.183117e+000 2.286829e-001
      endloop
   endfacet
   facet normal 1.422229e-001 9.891812e-001 3.596142e-002
      outer loop
         vertex -3.415556e-001 2.375571e+000 2.286829e-001
         vertex 6.798374e-001 2.092324e+000 3.980408e+000
         vertex 9.969960e-001 2.183117e+000 2.286829e-001
      endloop
   endfacet
   facet normal 1.422229e-001 -9.891812e-001 3.596142e-002
      outer loop
         vertex 9.969960e-001 -2.183117e+000 2.286829e-001
         vertex 6.798374e-001 -2.092324e+000 3.980408e+000
         vertex -3.415556e-001 -2.375571e+000 2.286829e-001
      endloop
   endfacet
   facet normal -9.478945e-001 3.079896e-001 8.147648e-002
      outer loop
         vertex -1.779837e+000 1.293128e+000 3.980408e+000
         vertex -2.302783e+000 6.761581e-001 2.286829e-001
         vertex -2.200000e+000 2.694223e-016 3.980408e+000
      endloop
   endfacet
   facet normal 0.000000e+000 9.971622e-001 7.528362e-002
      outer loop
         vertex -6.798374e-001 2.092324e+000 3.980408e+000
         vertex 6.798374e-001 2.092324e+000 3.980408e+000
         vertex -3.415556e-001 2.375571e+000 2.286829e-001
      endloop
   endfacet
   facet normal 9.492924e-001 3.084439e-001 6.087962e-002
      outer loop
         vertex 2.019008e+000 1.297538e+000 2.286829e-001
         vertex 1.779837e+000 1.293128e+000 3.980408e+000
         vertex 2.200000e+000 0.000000e+000 3.980408e+000
      endloop
   endfacet
   facet normal 5.863802e-001 -8.070831e-001 6.910223e-002
      outer loop
         vertex 9.969960e-001 -2.183117e+000 2.286829e-001
         vertex 1.779837e+000 -1.293128e+000 3.980408e+000
         vertex 6.798374e-001 -2.092324e+000 3.980408e+000
      endloop
   endfacet
   facet normal -8.409156e-001 -5.404237e-001 2.834122e-002
      outer loop
         vertex -1.779837e+000 -1.293128e+000 3.980408e+000
         vertex -2.302783e+000 -6.761581e-001 2.286829e-001
         vertex -1.571666e+000 -1.813799e+000 2.286829e-001
      endloop
   endfacet
   facet normal -8.409156e-001 5.404237e-001 2.834122e-002
      outer loop
         vertex -2.302783e+000 6.761581e-001 2.286829e-001
         vertex -1.779837e+000 1.293128e+000 3.980408e+000
         vertex -1.571666e+000 1.813799e+000 2.286829e-001
      endloop
   endfacet
   facet normal 6.542663e-001 -7.550636e-001 4.259685e-002
      outer loop
         vertex 2.019008e+000 -1.297538e+000 2.286829e-001
         vertex 1.779837e+000 -1.293128e+000 3.980408e+000
         vertex 9.969960e-001 -2.183117e+000 2.286829e-001
      endloop
   endfacet
   facet normal -5.859290e-001 -8.064621e-001 7.941095e-002
      outer loop
         vertex -1.571666e+000 -1.813799e+000 2.286829e-001
         vertex -6.798374e-001 -2.092324e+000 3.980408e+000
         vertex -1.779837e+000 -1.293128e+000 3.980408e+000
      endloop
   endfacet
   facet normal 9.510565e-001 -3.090170e-001 -4.249432e-015
      outer loop
         vertex 1.779837e+000 -1.293128e+000 4.000000e+000
         vertex 2.200000e+000 0.000000e+000 3.980408e+000
         vertex 2.200000e+000 -2.694223e-016 4.000000e+000
      endloop
   endfacet
   facet normal 5.877852e-001 -8.090170e-001 0.000000e+000
      outer loop
         vertex 1.779837e+000 -1.293128e+000 4.000000e+000
         vertex 6.798374e-001 -2.092324e+000 3.980408e+000
         vertex 1.779837e+000 -1.293128e+000 3.980408e+000
      endloop
   endfacet
   facet normal -5.877852e-001 -8.090170e-001 0.000000e+000
      outer loop
         vertex -1.779837e+000 -1.293128e+000 4.000000e+000
         vertex -1.779837e+000 -1.293128e+000 3.980408e+000
         vertex -6.798374e-001 -2.092324e+000 3.980408e+000
      endloop
   endfacet
   facet normal -9.510565e-001 3.090170e-001 0.000000e+000
      outer loop
         vertex -1.779837e+000 1.293128e+000 4.000000e+000
         vertex -1.779837e+000 1.293128e+000 3.980408e+000
         vertex -2.200000e+000 2.694223e-016 3.980408e+000
      endloop
   endfacet
   facet normal 0.000000e+000 1.000000e+000 -0.000000e+000
      outer loop
         vertex 6.798374e-001 2.092324e+000 4.000000e+000
         vertex 6.798374e-001 2.092324e+000 3.980408e+000
         vertex -6.798374e-001 2.092324e+000 3.980408e+000
      endloop
   endfacet
   facet normal 9.510565e-001 3.090170e-001 0.000000e+000
      outer loop
         vertex 1.779837e+000 1.293128e+000 4.000000e+000
         vertex 2.200000e+000 0.000000e+000 3.980408e+000
         vertex 1.779837e+000 1.293128e+000 3.980408e+000
      endloop
   endfacet
   facet normal 9.510565e-001 3.090170e-001 4.167639e-015
      outer loop
         vertex 2.200000e+000 0.000000e+000 3.980408e+000
         vertex 1.779837e+000 1.293128e+000 4.000000e+000
         vertex 2.200000e+000 -2.694223e-016 4.000000e+000
      endloop
   endfacet
   facet normal -5.877852e-001 8.090170e-001 0.000000e+000
      outer loop
         vertex -6.798374e-001 2.092324e+000 3.980408e+000
         vertex -1.779837e+000 1.293128e+000 4.000000e+000
         vertex -6.798374e-001 2.092324e+000 4.000000e+000
      endloop
   endfacet
   facet normal -9.510565e-001 -3.090170e-001 -0.000000e+000
      outer loop
         vertex -1.779837e+000 -1.293128e+000 3.980408e+000
         vertex -1.779837e+000 -1.293128e+000 4.000000e+000
         vertex -2.200000e+000 2.694223e-016 4.000000e+000
      endloop
   endfacet
   facet normal -0.000000e+000 -1.000000e+000 -0.000000e+000
      outer loop
         vertex 6.798374e-001 -2.092324e+000 3.980408e+000
         vertex 6.798374e-001 -2.092324e+000 4.000000e+000
         vertex -6.798374e-001 -2.092324e+000 4.000000e+000
      endloop
   endfacet
   facet normal 9.510565e-001 -3.090170e-001 0.000000e+000
      outer loop
         vertex 1.779837e+000 -1.293128e+000 3.980408e+000
         vertex 2.200000e+000 0.000000e+000 3.980408e+000
         vertex 1.779837e+000 -1.293128e+000 4.000000e+000
      endloop
   endfacet
   facet normal -9.510565e-001 3.090170e-001 0.000000e+000
      outer loop
         vertex -2.200000e+000 2.694223e-016 4.000000e+000
         vertex -1.779837e+000 1.293128e+000 4.000000e+000
         vertex -2.200000e+000 2.694223e-016 3.980408e+000
      endloop
   endfacet
   facet normal 5.877852e-001 8.090170e-001 -0.000000e+000
      outer loop
         vertex 1.779837e+000 1.293128e+000 4.000000e+000
         vertex 6.798374e-001 2.092324e+000 3.980408e+000
         vertex 6.798374e-001 2.092324e+000 4.000000e+000
      endloop
   endfacet
   facet normal -5.877852e-001 8.090170e-001 0.000000e+000
      outer loop
         vertex -1.779837e+000 1.293128e+000 3.980408e+000
         vertex -1.779837e+000 1.293128e+000 4.000000e+000
         vertex -6.798374e-001 2.092324e+000 3.980408e+000
      endloop
   endfacet
   facet normal -9.510565e-001 -3.090170e-001 -0.000000e+000
      outer loop
         vertex -1.779837e+000 -1.293128e+000 3.980408e+000
         vertex -2.200000e+000 2.694223e-016 4.000000e+000
         vertex -2.200000e+000 2.694223e-016 3.980408e+000
      endloop
   endfacet
   facet normal 0.000000e+000 -1.000000e+000 0.000000e+000
      outer loop
         vertex -6.798374e-001 -2.092324e+000 4.000000e+000
         vertex -6.798374e-001 -2.092324e+000 3.980408e+000
         vertex 6.798374e-001 -2.092324e+000 3.980408e+000
      endloop
   endfacet
   facet normal -0.000000e+000 1.000000e+000 0.000000e+000
      outer loop
         vertex -6.798374e-001 2.092324e+000 3.980408e+000
         vertex -6.798374e-001 2.092324e+000 4.000000e+000
         vertex 6.798374e-001 2.092324e+000 4.000000e+000
      endloop
   endfacet
   facet normal 5.877852e-001 -8.090170e-001 0.000000e+000
      outer loop
         vertex 6.798374e-001 -2.092324e+000 3.980408e+000
         vertex 1.779837e+000 -1.293128e+000 4.000000e+000
         vertex 6.798374e-001 -2.092324e+000 4.000000e+000
      endloop
   endfacet
   facet normal 5.877852e-001 8.090170e-001 0.000000e+000
      outer loop
         vertex 6.798374e-001 2.092324e+000 3.980408e+000
         vertex 1.779837e+000 1.293128e+000 4.000000e+000
         vertex 1.779837e+000 1.293128e+000 3.980408e+000
      endloop
   endfacet
   facet normal -5.877852e-001 -8.090170e-001 -0.000000e+000
      outer loop
         vertex -6.798374e-001 -2.092324e+000 3.980408e+000
         vertex -6.798374e-001 -2.092324e+000 4.000000e+000
         vertex -1.779837e+000 -1.293128e+000 4.000000e+000
      endloop
   endfacet
   facet normal 0.000000e+000 0.000000e+000 1.000000e+000
      outer loop
         vertex 1.779837e+000 -1.293128e+000 4.000000e+000
         vertex 2.200000e+000 -2.694223e-016 4.000000e+000
         vertex -6.798374e-001 -2.092324e+000 4.000000e+000
      endloop
   endfacet
   facet normal 0.000000e+000 0.000000e+000 1.000000e+000
      outer loop
         vertex 1.779837e+000 1.293128e+000 4.000000e+000
         vertex 6.798374e-001 2.092324e+000 4.000000e+000
         vertex 2.200000e+000 -2.694223e-016 4.000000e+000
      endloop
   endfacet
   facet normal 0.000000e+000 0.000000e+000 1.000000e+000
      outer loop
         vertex -1.779837e+000 1.293128e+000 4.000000e+000
         vertex -2.200000e+000 2.694223e-016 4.000000e+000
         vertex 6.798374e-001 2.092324e+000 4.000000e+000
      endloop
   endfacet
   facet normal 0.000000e+000 -0.000000e+000 1.000000e+000
      outer loop
         vertex -1.779837e+000 -1.293128e+000 4.000000e+000
         vertex -6.798374e-001 -2.092324e+000 4.000000e+000
         vertex 6.798374e-001 2.092324e+000 4.000000e+000
      endloop
   endfacet
   facet normal 0.000000e+000 0.000000e+000 1.000000e+000
      outer loop
         vertex 6.798374e-001 -2.092324e+000 4.000000e+000
         vertex 1.779837e+000 -1.293128e+000 4.000000e+000
         vertex -6.798374e-001 -2.092324e+000 4.000000e+000
      endloop
   endfacet
   facet normal 0.000000e+000 0.000000e+000 1.000000e+000
      outer loop
         vertex -1.779837e+000 1.293128e+000 4.000000e+000
         vertex 6.798374e-001 2.092324e+000 4.000000e+000
         vertex -6.798374e-001 2.092324e+000 4.000000e+000
      endloop
   endfacet
   facet normal 0.000000e+000 -0.000000e+000 1.000000e+000
      outer loop
         vertex -2.200000e+000 2.694223e-016 4.000000e+000
         vertex -1.779837e+000 -1.293128e+000 4.000000e+000
         vertex 6.798374e-001 2.092324e+000 4.000000e+000
      endloop
   endfacet
   facet normal 0.000000e+000 0.000000e+000 1.000000e+000
      outer loop
         vertex 2.200000e+000 -2.694223e-016 4.000000e+000
         vertex 6.798374e-001 2.092324e+000 4.000000e+000
         vertex -6.798374e-001 -2.092324e+000 4.000000e+000
      endloop
   endfacet
endsolid
