solid 
   facet normal 3.695386e-001 -9.292154e-001 0.000000e+000
      outer loop
         vertex -4.936896e+000 5.490842e-016 -2.000000e+000
         vertex -4.936896e+000 5.490842e-016 -5.000000e-001
         vertex -6.277309e+000 -5.330674e-001 -5.000000e-001
      endloop
   endfacet
   facet normal 1.729211e-001 -9.849357e-001 0.000000e+000
      outer loop
         vertex -8.936896e+000 -1.000000e+000 -5.000000e-001
         vertex -8.936896e+000 -1.000000e+000 -2.000000e+000
         vertex -6.277309e+000 -5.330674e-001 -5.000000e-001
      endloop
   endfacet
   facet normal 3.695386e-001 -9.292154e-001 0.000000e+000
      outer loop
         vertex -4.936896e+000 5.490842e-016 -2.000000e+000
         vertex -6.277309e+000 -5.330674e-001 -5.000000e-001
         vertex -6.277309e+000 -5.330674e-001 -2.000000e+000
      endloop
   endfacet
   facet normal 1.729211e-001 -9.849357e-001 0.000000e+000
      outer loop
         vertex -8.936896e+000 -1.000000e+000 -2.000000e+000
         vertex -6.277309e+000 -5.330674e-001 -2.000000e+000
         vertex -6.277309e+000 -5.330674e-001 -5.000000e-001
      endloop
   endfacet
   facet normal -0.000000e+000 -1.000000e+000 -0.000000e+000
      outer loop
         vertex -8.936896e+000 -1.000000e+000 -2.000000e+000
         vertex -8.936896e+000 -1.000000e+000 -5.000000e-001
         vertex -9.381097e+000 -1.000000e+000 -5.000000e-001
      endloop
   endfacet
   facet normal 0.000000e+000 -1.000000e+000 0.000000e+000
      outer loop
         vertex -9.381097e+000 -1.000000e+000 -2.000000e+000
         vertex -8.936896e+000 -1.000000e+000 -2.000000e+000
         vertex -9.381097e+000 -1.000000e+000 -5.000000e-001
      endloop
   endfacet
   facet normal -4.880684e-002 -9.988082e-001 -0.000000e+000
      outer loop
         vertex -9.381097e+000 -1.000000e+000 -2.000000e+000
         vertex -9.381097e+000 -1.000000e+000 -5.000000e-001
         vertex -9.788159e+000 -9.801089e-001 -5.000000e-001
      endloop
   endfacet
   facet normal -4.726579e-001 -8.812460e-001 -0.000000e+000
      outer loop
         vertex -1.240881e+001 -3.897919e-001 -5.000000e-001
         vertex -1.500000e+001 1.000000e+000 -5.000000e-001
         vertex -1.500000e+001 1.000000e+000 -2.000000e+000
      endloop
   endfacet
   facet normal -2.197501e-001 -9.755562e-001 0.000000e+000
      outer loop
         vertex -1.240881e+001 -3.897919e-001 -2.000000e+000
         vertex -9.788159e+000 -9.801089e-001 -2.000000e+000
         vertex -9.788159e+000 -9.801089e-001 -5.000000e-001
      endloop
   endfacet
   facet normal -4.880684e-002 -9.988082e-001 -0.000000e+000
      outer loop
         vertex -9.381097e+000 -1.000000e+000 -2.000000e+000
         vertex -9.788159e+000 -9.801089e-001 -5.000000e-001
         vertex -9.788159e+000 -9.801089e-001 -2.000000e+000
      endloop
   endfacet
   facet normal -2.197501e-001 -9.755562e-001 -0.000000e+000
      outer loop
         vertex -9.788159e+000 -9.801089e-001 -5.000000e-001
         vertex -1.240881e+001 -3.897919e-001 -5.000000e-001
         vertex -1.240881e+001 -3.897919e-001 -2.000000e+000
      endloop
   endfacet
   facet normal -4.726579e-001 -8.812460e-001 0.000000e+000
      outer loop
         vertex -1.240881e+001 -3.897919e-001 -5.000000e-001
         vertex -1.500000e+001 1.000000e+000 -2.000000e+000
         vertex -1.240881e+001 -3.897919e-001 -2.000000e+000
      endloop
   endfacet
   facet normal -1.000000e+000 -0.000000e+000 0.000000e+000
      outer loop
         vertex -1.500000e+001 1.000000e+000 -5.000000e-001
         vertex -1.500000e+001 2.000000e+000 -5.000000e-001
         vertex -1.500000e+001 1.000000e+000 -2.000000e+000
      endloop
   endfacet
   facet normal -1.000000e+000 -0.000000e+000 0.000000e+000
      outer loop
         vertex -1.500000e+001 2.000000e+000 0.000000e+000
         vertex -1.500000e+001 3.000000e+000 0.000000e+000
         vertex -1.500000e+001 2.000000e+000 -5.000000e-001
      endloop
   endfacet
   facet normal -1.000000e+000 0.000000e+000 -0.000000e+000
      outer loop
         vertex -1.500000e+001 1.000000e+000 -2.000000e+000
         vertex -1.500000e+001 2.000000e+000 -5.000000e-001
         vertex -1.500000e+001 3.000000e+000 -2.000000e+000
      endloop
   endfacet
   facet normal -1.000000e+000 0.000000e+000 0.000000e+000
      outer loop
         vertex -1.500000e+001 3.000000e+000 0.000000e+000
         vertex -1.500000e+001 3.000000e+000 -2.000000e+000
         vertex -1.500000e+001 2.000000e+000 -5.000000e-001
      endloop
   endfacet
   facet normal 0.000000e+000 -1.000000e+000 0.000000e+000
      outer loop
         vertex -2.828427e+000 1.000000e+000 0.000000e+000
         vertex -4.936896e+000 1.000000e+000 0.000000e+000
         vertex -4.936896e+000 1.000000e+000 -5.000000e-001
      endloop
   endfacet
   facet normal 0.000000e+000 -1.000000e+000 0.000000e+000
      outer loop
         vertex -4.936896e+000 1.000000e+000 -2.000000e+000
         vertex -2.828427e+000 1.000000e+000 -2.000000e+000
         vertex -4.936896e+000 1.000000e+000 -5.000000e-001
      endloop
   endfacet
   facet normal 0.000000e+000 -1.000000e+000 0.000000e+000
      outer loop
         vertex -4.936896e+000 1.000000e+000 -5.000000e-001
         vertex -2.828427e+000 1.000000e+000 -2.000000e+000
         vertex -2.828427e+000 1.000000e+000 0.000000e+000
      endloop
   endfacet
   facet normal 1.000000e+000 0.000000e+000 0.000000e+000
      outer loop
         vertex -4.936896e+000 1.000000e+000 -2.000000e+000
         vertex -4.936896e+000 1.000000e+000 -5.000000e-001
         vertex -4.936896e+000 5.490842e-016 -5.000000e-001
      endloop
   endfacet
   facet normal 1.000000e+000 0.000000e+000 0.000000e+000
      outer loop
         vertex -4.936896e+000 5.490842e-016 -2.000000e+000
         vertex -4.936896e+000 1.000000e+000 -2.000000e+000
         vertex -4.936896e+000 5.490842e-016 -5.000000e-001
      endloop
   endfacet
   facet normal 0.000000e+000 0.000000e+000 1.000000e+000
      outer loop
         vertex -1.500000e+001 3.000000e+000 0.000000e+000
         vertex -1.500000e+001 2.000000e+000 0.000000e+000
         vertex -4.936896e+000 2.000000e+000 0.000000e+000
      endloop
   endfacet
   facet normal 0.000000e+000 0.000000e+000 1.000000e+000
      outer loop
         vertex -4.936896e+000 1.000000e+000 0.000000e+000
         vertex -2.828427e+000 1.000000e+000 0.000000e+000
         vertex -4.936896e+000 2.000000e+000 0.000000e+000
      endloop
   endfacet
   facet normal 0.000000e+000 0.000000e+000 1.000000e+000
      outer loop
         vertex -2.350331e+000 -1.864388e+000 0.000000e+000
         vertex -1.154329e+000 -2.769030e+000 0.000000e+000
         vertex -1.571666e+000 -1.813799e+000 0.000000e+000
      endloop
   endfacet
   facet normal 0.000000e+000 0.000000e+000 1.000000e+000
      outer loop
         vertex 3.301016e-001 -2.981784e+000 0.000000e+000
         vertex 1.732051e+000 -2.449490e+000 0.000000e+000
         vertex 9.969960e-001 -2.183117e+000 0.000000e+000
      endloop
   endfacet
   facet normal 0.000000e+000 0.000000e+000 1.000000e+000
      outer loop
         vertex 2.701219e+000 -1.305151e+000 0.000000e+000
         vertex 2.995442e+000 1.653019e-001 0.000000e+000
         vertex 2.400000e+000 0.000000e+000 0.000000e+000
      endloop
   endfacet
   facet normal 0.000000e+000 0.000000e+000 1.000000e+000
      outer loop
         vertex 2.541206e+000 1.594451e+000 0.000000e+000
         vertex 1.452007e+000 2.625200e+000 0.000000e+000
         vertex 2.019008e+000 1.297538e+000 0.000000e+000
      endloop
   endfacet
   facet normal -0.000000e+000 0.000000e+000 1.000000e+000
      outer loop
         vertex -7.524457e-017 3.000000e+000 0.000000e+000
         vertex -1.500000e+001 3.000000e+000 0.000000e+000
         vertex -4.936896e+000 2.000000e+000 0.000000e+000
      endloop
   endfacet
   facet normal -0.000000e+000 0.000000e+000 1.000000e+000
      outer loop
         vertex 2.400000e+000 0.000000e+000 0.000000e+000
         vertex 2.019008e+000 -1.297538e+000 0.000000e+000
         vertex 2.701219e+000 -1.305151e+000 0.000000e+000
      endloop
   endfacet
   facet normal -0.000000e+000 0.000000e+000 1.000000e+000
      outer loop
         vertex 9.969960e-001 -2.183117e+000 0.000000e+000
         vertex -3.415556e-001 -2.375571e+000 0.000000e+000
         vertex 3.301016e-001 -2.981784e+000 0.000000e+000
      endloop
   endfacet
   facet normal 0.000000e+000 0.000000e+000 1.000000e+000
      outer loop
         vertex -1.571666e+000 -1.813799e+000 0.000000e+000
         vertex -2.302783e+000 -6.761581e-001 0.000000e+000
         vertex -2.350331e+000 -1.864388e+000 0.000000e+000
      endloop
   endfacet
   facet normal 0.000000e+000 0.000000e+000 1.000000e+000
      outer loop
         vertex -2.302783e+000 6.761581e-001 0.000000e+000
         vertex -1.571666e+000 1.813799e+000 0.000000e+000
         vertex -2.828427e+000 1.000000e+000 0.000000e+000
      endloop
   endfacet
   facet normal 0.000000e+000 0.000000e+000 1.000000e+000
      outer loop
         vertex -3.415556e-001 2.375571e+000 0.000000e+000
         vertex 9.969960e-001 2.183117e+000 0.000000e+000
         vertex -7.524457e-017 3.000000e+000 0.000000e+000
      endloop
   endfacet
   facet normal 0.000000e+000 -0.000000e+000 1.000000e+000
      outer loop
         vertex -4.936896e+000 2.000000e+000 0.000000e+000
         vertex -2.828427e+000 1.000000e+000 0.000000e+000
         vertex -1.571666e+000 1.813799e+000 0.000000e+000
      endloop
   endfacet
   facet normal 0.000000e+000 -0.000000e+000 1.000000e+000
      outer loop
         vertex 9.969960e-001 -2.183117e+000 0.000000e+000
         vertex 1.732051e+000 -2.449490e+000 0.000000e+000
         vertex 2.019008e+000 -1.297538e+000 0.000000e+000
      endloop
   endfacet
   facet normal 0.000000e+000 0.000000e+000 1.000000e+000
      outer loop
         vertex 2.019008e+000 1.297538e+000 0.000000e+000
         vertex 1.452007e+000 2.625200e+000 0.000000e+000
         vertex 9.969960e-001 2.183117e+000 0.000000e+000
      endloop
   endfacet
   facet normal 0.000000e+000 0.000000e+000 1.000000e+000
      outer loop
         vertex 3.301016e-001 -2.981784e+000 0.000000e+000
         vertex -3.415556e-001 -2.375571e+000 0.000000e+000
         vertex -1.154329e+000 -2.769030e+000 0.000000e+000
      endloop
   endfacet
   facet normal 0.000000e+000 0.000000e+000 1.000000e+000
      outer loop
         vertex -3.415556e-001 2.375571e+000 0.000000e+000
         vertex -7.524457e-017 3.000000e+000 0.000000e+000
         vertex -1.571666e+000 1.813799e+000 0.000000e+000
      endloop
   endfacet
   facet normal 0.000000e+000 0.000000e+000 1.000000e+000
      outer loop
         vertex 2.019008e+000 -1.297538e+000 0.000000e+000
         vertex 1.732051e+000 -2.449490e+000 0.000000e+000
         vertex 2.701219e+000 -1.305151e+000 0.000000e+000
      endloop
   endfacet
   facet normal 0.000000e+000 0.000000e+000 1.000000e+000
      outer loop
         vertex -2.828427e+000 1.000000e+000 0.000000e+000
         vertex -2.959065e+000 -4.938983e-001 0.000000e+000
         vertex -2.302783e+000 6.761581e-001 0.000000e+000
      endloop
   endfacet
   facet normal 0.000000e+000 0.000000e+000 1.000000e+000
      outer loop
         vertex 2.995442e+000 1.653019e-001 0.000000e+000
         vertex 2.541206e+000 1.594451e+000 0.000000e+000
         vertex 2.019008e+000 1.297538e+000 0.000000e+000
      endloop
   endfacet
   facet normal 0.000000e+000 -0.000000e+000 1.000000e+000
      outer loop
         vertex 2.019008e+000 1.297538e+000 0.000000e+000
         vertex 2.400000e+000 0.000000e+000 0.000000e+000
         vertex 2.995442e+000 1.653019e-001 0.000000e+000
      endloop
   endfacet
   facet normal 0.000000e+000 0.000000e+000 1.000000e+000
      outer loop
         vertex -2.302783e+000 -6.761581e-001 0.000000e+000
         vertex -2.302783e+000 6.761581e-001 0.000000e+000
         vertex -2.959065e+000 -4.938983e-001 0.000000e+000
      endloop
   endfacet
   facet normal -0.000000e+000 0.000000e+000 1.000000e+000
      outer loop
         vertex -7.524457e-017 3.000000e+000 0.000000e+000
         vertex -4.936896e+000 2.000000e+000 0.000000e+000
         vertex -1.571666e+000 1.813799e+000 0.000000e+000
      endloop
   endfacet
   facet normal 0.000000e+000 -0.000000e+000 1.000000e+000
      outer loop
         vertex -7.524457e-017 3.000000e+000 0.000000e+000
         vertex 9.969960e-001 2.183117e+000 0.000000e+000
         vertex 1.452007e+000 2.625200e+000 0.000000e+000
      endloop
   endfacet
   facet normal 0.000000e+000 -0.000000e+000 1.000000e+000
      outer loop
         vertex -2.959065e+000 -4.938983e-001 0.000000e+000
         vertex -2.350331e+000 -1.864388e+000 0.000000e+000
         vertex -2.302783e+000 -6.761581e-001 0.000000e+000
      endloop
   endfacet
   facet normal 0.000000e+000 -0.000000e+000 1.000000e+000
      outer loop
         vertex -1.571666e+000 -1.813799e+000 0.000000e+000
         vertex -1.154329e+000 -2.769030e+000 0.000000e+000
         vertex -3.415556e-001 -2.375571e+000 0.000000e+000
      endloop
   endfacet
   facet normal 0.000000e+000 -0.000000e+000 1.000000e+000
      outer loop
         vertex -6.277309e+000 -5.330674e-001 -5.000000e-001
         vertex -4.936896e+000 5.490842e-016 -5.000000e-001
         vertex -4.936896e+000 1.000000e+000 -5.000000e-001
      endloop
   endfacet
   facet normal -0.000000e+000 0.000000e+000 1.000000e+000
      outer loop
         vertex -4.936896e+000 2.000000e+000 -5.000000e-001
         vertex -1.500000e+001 2.000000e+000 -5.000000e-001
         vertex -1.240881e+001 -3.897919e-001 -5.000000e-001
      endloop
   endfacet
   facet normal 0.000000e+000 0.000000e+000 1.000000e+000
      outer loop
         vertex -1.500000e+001 1.000000e+000 -5.000000e-001
         vertex -1.240881e+001 -3.897919e-001 -5.000000e-001
         vertex -1.500000e+001 2.000000e+000 -5.000000e-001
      endloop
   endfacet
   facet normal 0.000000e+000 -0.000000e+000 1.000000e+000
      outer loop
         vertex -9.381097e+000 -1.000000e+000 -5.000000e-001
         vertex -8.936896e+000 -1.000000e+000 -5.000000e-001
         vertex -4.936896e+000 2.000000e+000 -5.000000e-001
      endloop
   endfacet
   facet normal 0.000000e+000 -0.000000e+000 1.000000e+000
      outer loop
         vertex -6.277309e+000 -5.330674e-001 -5.000000e-001
         vertex -4.936896e+000 1.000000e+000 -5.000000e-001
         vertex -4.936896e+000 2.000000e+000 -5.000000e-001
      endloop
   endfacet
   facet normal 0.000000e+000 0.000000e+000 1.000000e+000
      outer loop
         vertex -4.936896e+000 2.000000e+000 -5.000000e-001
         vertex -8.936896e+000 -1.000000e+000 -5.000000e-001
         vertex -6.277309e+000 -5.330674e-001 -5.000000e-001
      endloop
   endfacet
   facet normal 0.000000e+000 -0.000000e+000 1.000000e+000
      outer loop
         vertex -1.240881e+001 -3.897919e-001 -5.000000e-001
         vertex -9.788159e+000 -9.801089e-001 -5.000000e-001
         vertex -4.936896e+000 2.000000e+000 -5.000000e-001
      endloop
   endfacet
   facet normal 0.000000e+000 0.000000e+000 1.000000e+000
      outer loop
         vertex -9.381097e+000 -1.000000e+000 -5.000000e-001
         vertex -4.936896e+000 2.000000e+000 -5.000000e-001
         vertex -9.788159e+000 -9.801089e-001 -5.000000e-001
      endloop
   endfacet
   facet normal -1.000000e+000 0.000000e+000 0.000000e+000
      outer loop
         vertex -4.936896e+000 2.000000e+000 -5.000000e-001
         vertex -4.936896e+000 1.000000e+000 -5.000000e-001
         vertex -4.936896e+000 1.000000e+000 0.000000e+000
      endloop
   endfacet
   facet normal -1.000000e+000 0.000000e+000 0.000000e+000
      outer loop
         vertex -4.936896e+000 2.000000e+000 -5.000000e-001
         vertex -4.936896e+000 1.000000e+000 0.000000e+000
         vertex -4.936896e+000 2.000000e+000 0.000000e+000
      endloop
   endfacet
   facet normal 0.000000e+000 -1.000000e+000 0.000000e+000
      outer loop
         vertex -1.500000e+001 2.000000e+000 -5.000000e-001
         vertex -4.936896e+000 2.000000e+000 -5.000000e-001
         vertex -4.936896e+000 2.000000e+000 0.000000e+000
      endloop
   endfacet
   facet normal -0.000000e+000 -1.000000e+000 0.000000e+000
      outer loop
         vertex -1.500000e+001 2.000000e+000 -5.000000e-001
         vertex -4.936896e+000 2.000000e+000 0.000000e+000
         vertex -1.500000e+001 2.000000e+000 0.000000e+000
      endloop
   endfacet
   facet normal 0.000000e+000 -0.000000e+000 -1.000000e+000
      outer loop
         vertex -6.277309e+000 -5.330674e-001 -2.000000e+000
         vertex -4.936896e+000 1.000000e+000 -2.000000e+000
         vertex -4.936896e+000 5.490842e-016 -2.000000e+000
      endloop
   endfacet
   facet normal 0.000000e+000 0.000000e+000 -1.000000e+000
      outer loop
         vertex 1.452007e+000 2.625200e+000 -2.000000e+000
         vertex -2.959065e+000 -4.938983e-001 -2.000000e+000
         vertex -2.828427e+000 1.000000e+000 -2.000000e+000
      endloop
   endfacet
   facet normal 0.000000e+000 0.000000e+000 -1.000000e+000
      outer loop
         vertex -2.959065e+000 -4.938983e-001 -2.000000e+000
         vertex -1.154329e+000 -2.769030e+000 -2.000000e+000
         vertex -2.350331e+000 -1.864388e+000 -2.000000e+000
      endloop
   endfacet
   facet normal -0.000000e+000 0.000000e+000 -1.000000e+000
      outer loop
         vertex 2.995442e+000 1.653019e-001 -2.000000e+000
         vertex 2.701219e+000 -1.305151e+000 -2.000000e+000
         vertex 1.732051e+000 -2.449490e+000 -2.000000e+000
      endloop
   endfacet
   facet normal 0.000000e+000 0.000000e+000 -1.000000e+000
      outer loop
         vertex 2.995442e+000 1.653019e-001 -2.000000e+000
         vertex 1.452007e+000 2.625200e+000 -2.000000e+000
         vertex 2.541206e+000 1.594451e+000 -2.000000e+000
      endloop
   endfacet
   facet normal 0.000000e+000 0.000000e+000 -1.000000e+000
      outer loop
         vertex -1.240881e+001 -3.897919e-001 -2.000000e+000
         vertex -1.500000e+001 1.000000e+000 -2.000000e+000
         vertex -1.500000e+001 3.000000e+000 -2.000000e+000
      endloop
   endfacet
   facet normal 0.000000e+000 0.000000e+000 -1.000000e+000
      outer loop
         vertex -4.936896e+000 1.000000e+000 -2.000000e+000
         vertex -9.381097e+000 -1.000000e+000 -2.000000e+000
         vertex -9.788159e+000 -9.801089e-001 -2.000000e+000
      endloop
   endfacet
   facet normal -0.000000e+000 0.000000e+000 -1.000000e+000
      outer loop
         vertex -4.936896e+000 1.000000e+000 -2.000000e+000
         vertex -6.277309e+000 -5.330674e-001 -2.000000e+000
         vertex -8.936896e+000 -1.000000e+000 -2.000000e+000
      endloop
   endfacet
   facet normal 0.000000e+000 0.000000e+000 -1.000000e+000
      outer loop
         vertex -1.154329e+000 -2.769030e+000 -2.000000e+000
         vertex -2.959065e+000 -4.938983e-001 -2.000000e+000
         vertex 1.452007e+000 2.625200e+000 -2.000000e+000
      endloop
   endfacet
   facet normal 0.000000e+000 -0.000000e+000 -1.000000e+000
      outer loop
         vertex -1.154329e+000 -2.769030e+000 -2.000000e+000
         vertex 1.452007e+000 2.625200e+000 -2.000000e+000
         vertex 2.995442e+000 1.653019e-001 -2.000000e+000
      endloop
   endfacet
   facet normal -0.000000e+000 0.000000e+000 -1.000000e+000
      outer loop
         vertex -1.500000e+001 3.000000e+000 -2.000000e+000
         vertex -4.936896e+000 1.000000e+000 -2.000000e+000
         vertex -9.788159e+000 -9.801089e-001 -2.000000e+000
      endloop
   endfacet
   facet normal 0.000000e+000 0.000000e+000 -1.000000e+000
      outer loop
         vertex -9.381097e+000 -1.000000e+000 -2.000000e+000
         vertex -4.936896e+000 1.000000e+000 -2.000000e+000
         vertex -8.936896e+000 -1.000000e+000 -2.000000e+000
      endloop
   endfacet
   facet normal 0.000000e+000 0.000000e+000 -1.000000e+000
      outer loop
         vertex -7.524457e-017 3.000000e+000 -2.000000e+000
         vertex -2.828427e+000 1.000000e+000 -2.000000e+000
         vertex -4.936896e+000 1.000000e+000 -2.000000e+000
      endloop
   endfacet
   facet normal 0.000000e+000 0.000000e+000 -1.000000e+000
      outer loop
         vertex -1.154329e+000 -2.769030e+000 -2.000000e+000
         vertex 1.732051e+000 -2.449490e+000 -2.000000e+000
         vertex 3.301016e-001 -2.981784e+000 -2.000000e+000
      endloop
   endfacet
   facet normal 0.000000e+000 0.000000e+000 -1.000000e+000
      outer loop
         vertex -1.500000e+001 3.000000e+000 -2.000000e+000
         vertex -9.788159e+000 -9.801089e-001 -2.000000e+000
         vertex -1.240881e+001 -3.897919e-001 -2.000000e+000
      endloop
   endfacet
   facet normal 0.000000e+000 0.000000e+000 -1.000000e+000
      outer loop
         vertex -1.154329e+000 -2.769030e+000 -2.000000e+000
         vertex 2.995442e+000 1.653019e-001 -2.000000e+000
         vertex 1.732051e+000 -2.449490e+000 -2.000000e+000
      endloop
   endfacet
   facet normal -0.000000e+000 0.000000e+000 -1.000000e+000
      outer loop
         vertex -1.500000e+001 3.000000e+000 -2.000000e+000
         vertex -7.524457e-017 3.000000e+000 -2.000000e+000
         vertex -4.936896e+000 1.000000e+000 -2.000000e+000
      endloop
   endfacet
   facet normal 0.000000e+000 -0.000000e+000 -1.000000e+000
      outer loop
         vertex -2.828427e+000 1.000000e+000 -2.000000e+000
         vertex -7.524457e-017 3.000000e+000 -2.000000e+000
         vertex 1.452007e+000 2.625200e+000 -2.000000e+000
      endloop
   endfacet
   facet normal 0.000000e+000 1.000000e+000 -0.000000e+000
      outer loop
         vertex -7.524457e-017 3.000000e+000 0.000000e+000
         vertex -7.524457e-017 3.000000e+000 -2.000000e+000
         vertex -1.500000e+001 3.000000e+000 -2.000000e+000
      endloop
   endfacet
   facet normal 0.000000e+000 1.000000e+000 0.000000e+000
      outer loop
         vertex -1.500000e+001 3.000000e+000 0.000000e+000
         vertex -7.524457e-017 3.000000e+000 0.000000e+000
         vertex -1.500000e+001 3.000000e+000 -2.000000e+000
      endloop
   endfacet
   facet normal -9.961983e-001 8.711503e-002 0.000000e+000
      outer loop
         vertex -2.828427e+000 1.000000e+000 0.000000e+000
         vertex -2.828427e+000 1.000000e+000 -2.000000e+000
         vertex -2.959065e+000 -4.938983e-001 -2.000000e+000
      endloop
   endfacet
   facet normal -6.032556e-001 -7.975479e-001 0.000000e+000
      outer loop
         vertex -2.350331e+000 -1.864388e+000 -2.000000e+000
         vertex -1.154329e+000 -2.769030e+000 -2.000000e+000
         vertex -1.154329e+000 -2.769030e+000 0.000000e+000
      endloop
   endfacet
   facet normal 3.549573e-001 -9.348825e-001 0.000000e+000
      outer loop
         vertex 3.301016e-001 -2.981784e+000 -2.000000e+000
         vertex 1.732051e+000 -2.449490e+000 -2.000000e+000
         vertex 1.732051e+000 -2.449490e+000 0.000000e+000
      endloop
   endfacet
   facet normal 9.805636e-001 -1.962016e-001 0.000000e+000
      outer loop
         vertex 2.701219e+000 -1.305151e+000 -2.000000e+000
         vertex 2.995442e+000 1.653019e-001 -2.000000e+000
         vertex 2.995442e+000 1.653019e-001 0.000000e+000
      endloop
   endfacet
   facet normal 6.873497e-001 7.263266e-001 -0.000000e+000
      outer loop
         vertex 2.541206e+000 1.594451e+000 -2.000000e+000
         vertex 1.452007e+000 2.625200e+000 -2.000000e+000
         vertex 1.452007e+000 2.625200e+000 0.000000e+000
      endloop
   endfacet
   facet normal 2.499332e-001 9.682631e-001 0.000000e+000
      outer loop
         vertex -7.524457e-017 3.000000e+000 -2.000000e+000
         vertex -7.524457e-017 3.000000e+000 0.000000e+000
         vertex 1.452007e+000 2.625200e+000 -2.000000e+000
      endloop
   endfacet
   facet normal 9.530206e-001 3.029054e-001 0.000000e+000
      outer loop
         vertex 2.541206e+000 1.594451e+000 0.000000e+000
         vertex 2.995442e+000 1.653019e-001 0.000000e+000
         vertex 2.995442e+000 1.653019e-001 -2.000000e+000
      endloop
   endfacet
   facet normal 7.630966e-001 -6.462845e-001 0.000000e+000
      outer loop
         vertex 2.701219e+000 -1.305151e+000 0.000000e+000
         vertex 1.732051e+000 -2.449490e+000 0.000000e+000
         vertex 1.732051e+000 -2.449490e+000 -2.000000e+000
      endloop
   endfacet
   facet normal -1.418739e-001 -9.898847e-001 -0.000000e+000
      outer loop
         vertex 3.301016e-001 -2.981784e+000 0.000000e+000
         vertex -1.154329e+000 -2.769030e+000 0.000000e+000
         vertex -1.154329e+000 -2.769030e+000 -2.000000e+000
      endloop
   endfacet
   facet normal -9.139039e-001 -4.059307e-001 -0.000000e+000
      outer loop
         vertex -2.350331e+000 -1.864388e+000 0.000000e+000
         vertex -2.959065e+000 -4.938983e-001 0.000000e+000
         vertex -2.959065e+000 -4.938983e-001 -2.000000e+000
      endloop
   endfacet
   facet normal -9.961983e-001 8.711503e-002 0.000000e+000
      outer loop
         vertex -2.828427e+000 1.000000e+000 0.000000e+000
         vertex -2.959065e+000 -4.938983e-001 -2.000000e+000
         vertex -2.959065e+000 -4.938983e-001 0.000000e+000
      endloop
   endfacet
   facet normal 9.805636e-001 -1.962016e-001 0.000000e+000
      outer loop
         vertex 2.701219e+000 -1.305151e+000 -2.000000e+000
         vertex 2.995442e+000 1.653019e-001 0.000000e+000
         vertex 2.701219e+000 -1.305151e+000 0.000000e+000
      endloop
   endfacet
   facet normal 2.499332e-001 9.682631e-001 0.000000e+000
      outer loop
         vertex 1.452007e+000 2.625200e+000 -2.000000e+000
         vertex -7.524457e-017 3.000000e+000 0.000000e+000
         vertex 1.452007e+000 2.625200e+000 0.000000e+000
      endloop
   endfacet
   facet normal -9.139039e-001 -4.059307e-001 0.000000e+000
      outer loop
         vertex -2.350331e+000 -1.864388e+000 0.000000e+000
         vertex -2.959065e+000 -4.938983e-001 -2.000000e+000
         vertex -2.350331e+000 -1.864388e+000 -2.000000e+000
      endloop
   endfacet
   facet normal -1.418739e-001 -9.898847e-001 0.000000e+000
      outer loop
         vertex -1.154329e+000 -2.769030e+000 -2.000000e+000
         vertex 3.301016e-001 -2.981784e+000 -2.000000e+000
         vertex 3.301016e-001 -2.981784e+000 0.000000e+000
      endloop
   endfacet
   facet normal 9.530206e-001 3.029054e-001 -0.000000e+000
      outer loop
         vertex 2.995442e+000 1.653019e-001 -2.000000e+000
         vertex 2.541206e+000 1.594451e+000 -2.000000e+000
         vertex 2.541206e+000 1.594451e+000 0.000000e+000
      endloop
   endfacet
   facet normal 3.549573e-001 -9.348825e-001 0.000000e+000
      outer loop
         vertex 1.732051e+000 -2.449490e+000 0.000000e+000
         vertex 3.301016e-001 -2.981784e+000 0.000000e+000
         vertex 3.301016e-001 -2.981784e+000 -2.000000e+000
      endloop
   endfacet
   facet normal -6.032556e-001 -7.975479e-001 0.000000e+000
      outer loop
         vertex -2.350331e+000 -1.864388e+000 -2.000000e+000
         vertex -1.154329e+000 -2.769030e+000 0.000000e+000
         vertex -2.350331e+000 -1.864388e+000 0.000000e+000
      endloop
   endfacet
   facet normal 7.630966e-001 -6.462845e-001 0.000000e+000
      outer loop
         vertex 2.701219e+000 -1.305151e+000 -2.000000e+000
         vertex 2.701219e+000 -1.305151e+000 0.000000e+000
         vertex 1.732051e+000 -2.449490e+000 -2.000000e+000
      endloop
   endfacet
   facet normal 6.873497e-001 7.263266e-001 0.000000e+000
      outer loop
         vertex 1.452007e+000 2.625200e+000 0.000000e+000
         vertex 2.541206e+000 1.594451e+000 0.000000e+000
         vertex 2.541206e+000 1.594451e+000 -2.000000e+000
      endloop
   endfacet
   facet normal 9.594929e-001 -2.817327e-001 -3.620976e-016
      outer loop
         vertex 2.400000e+000 0.000000e+000 0.000000e+000
         vertex 2.400000e+000 -2.939152e-016 2.286829e-001
         vertex 2.019008e+000 -1.297538e+000 2.286829e-001
      endloop
   endfacet
   facet normal 1.423149e-001 -9.898214e-001 0.000000e+000
      outer loop
         vertex 9.969960e-001 -2.183117e+000 2.286829e-001
         vertex -3.415556e-001 -2.375571e+000 2.286829e-001
         vertex 9.969960e-001 -2.183117e+000 0.000000e+000
      endloop
   endfacet
   facet normal -8.412535e-001 -5.406409e-001 -0.000000e+000
      outer loop
         vertex -1.571666e+000 -1.813799e+000 2.286829e-001
         vertex -2.302783e+000 -6.761581e-001 2.286829e-001
         vertex -2.302783e+000 -6.761581e-001 0.000000e+000
      endloop
   endfacet
   facet normal -8.412535e-001 5.406409e-001 0.000000e+000
      outer loop
         vertex -2.302783e+000 6.761581e-001 2.286829e-001
         vertex -1.571666e+000 1.813799e+000 2.286829e-001
         vertex -1.571666e+000 1.813799e+000 0.000000e+000
      endloop
   endfacet
   facet normal 1.423149e-001 9.898214e-001 0.000000e+000
      outer loop
         vertex -3.415556e-001 2.375571e+000 2.286829e-001
         vertex 9.969960e-001 2.183117e+000 2.286829e-001
         vertex -3.415556e-001 2.375571e+000 0.000000e+000
      endloop
   endfacet
   facet normal 9.594929e-001 2.817327e-001 3.620976e-016
      outer loop
         vertex 2.019008e+000 1.297538e+000 2.286829e-001
         vertex 2.400000e+000 -2.939152e-016 2.286829e-001
         vertex 2.400000e+000 0.000000e+000 0.000000e+000
      endloop
   endfacet
   facet normal 6.548607e-001 7.557496e-001 -0.000000e+000
      outer loop
         vertex 2.019008e+000 1.297538e+000 0.000000e+000
         vertex 9.969960e-001 2.183117e+000 0.000000e+000
         vertex 9.969960e-001 2.183117e+000 2.286829e-001
      endloop
   endfacet
   facet normal -4.154150e-001 9.096320e-001 0.000000e+000
      outer loop
         vertex -3.415556e-001 2.375571e+000 0.000000e+000
         vertex -1.571666e+000 1.813799e+000 0.000000e+000
         vertex -3.415556e-001 2.375571e+000 2.286829e-001
      endloop
   endfacet
   facet normal -1.000000e+000 0.000000e+000 0.000000e+000
      outer loop
         vertex -2.302783e+000 6.761581e-001 0.000000e+000
         vertex -2.302783e+000 -6.761581e-001 0.000000e+000
         vertex -2.302783e+000 -6.761581e-001 2.286829e-001
      endloop
   endfacet
   facet normal -4.154150e-001 -9.096320e-001 0.000000e+000
      outer loop
         vertex -1.571666e+000 -1.813799e+000 0.000000e+000
         vertex -3.415556e-001 -2.375571e+000 0.000000e+000
         vertex -1.571666e+000 -1.813799e+000 2.286829e-001
      endloop
   endfacet
   facet normal 6.548607e-001 -7.557496e-001 0.000000e+000
      outer loop
         vertex 9.969960e-001 -2.183117e+000 0.000000e+000
         vertex 2.019008e+000 -1.297538e+000 0.000000e+000
         vertex 9.969960e-001 -2.183117e+000 2.286829e-001
      endloop
   endfacet
   facet normal 9.594929e-001 -2.817327e-001 0.000000e+000
      outer loop
         vertex 2.400000e+000 0.000000e+000 0.000000e+000
         vertex 2.019008e+000 -1.297538e+000 2.286829e-001
         vertex 2.019008e+000 -1.297538e+000 0.000000e+000
      endloop
   endfacet
   facet normal -8.412535e-001 5.406409e-001 0.000000e+000
      outer loop
         vertex -2.302783e+000 6.761581e-001 2.286829e-001
         vertex -1.571666e+000 1.813799e+000 0.000000e+000
         vertex -2.302783e+000 6.761581e-001 0.000000e+000
      endloop
   endfacet
   facet normal 9.594929e-001 2.817327e-001 0.000000e+000
      outer loop
         vertex 2.019008e+000 1.297538e+000 2.286829e-001
         vertex 2.400000e+000 0.000000e+000 0.000000e+000
         vertex 2.019008e+000 1.297538e+000 0.000000e+000
      endloop
   endfacet
   facet normal -4.154150e-001 9.096320e-001 0.000000e+000
      outer loop
         vertex -3.415556e-001 2.375571e+000 2.286829e-001
         vertex -1.571666e+000 1.813799e+000 0.000000e+000
         vertex -1.571666e+000 1.813799e+000 2.286829e-001
      endloop
   endfacet
   facet normal 6.548607e-001 -7.557496e-001 0.000000e+000
      outer loop
         vertex 9.969960e-001 -2.183117e+000 2.286829e-001
         vertex 2.019008e+000 -1.297538e+000 0.000000e+000
         vertex 2.019008e+000 -1.297538e+000 2.286829e-001
      endloop
   endfacet
   facet normal -4.154150e-001 -9.096320e-001 0.000000e+000
      outer loop
         vertex -3.415556e-001 -2.375571e+000 2.286829e-001
         vertex -1.571666e+000 -1.813799e+000 2.286829e-001
         vertex -3.415556e-001 -2.375571e+000 0.000000e+000
      endloop
   endfacet
   facet normal 6.548607e-001 7.557496e-001 0.000000e+000
      outer loop
         vertex 9.969960e-001 2.183117e+000 2.286829e-001
         vertex 2.019008e+000 1.297538e+000 2.286829e-001
         vertex 2.019008e+000 1.297538e+000 0.000000e+000
      endloop
   endfacet
   facet normal -8.412535e-001 -5.406409e-001 0.000000e+000
      outer loop
         vertex -2.302783e+000 -6.761581e-001 0.000000e+000
         vertex -1.571666e+000 -1.813799e+000 0.000000e+000
         vertex -1.571666e+000 -1.813799e+000 2.286829e-001
      endloop
   endfacet
   facet normal 1.423149e-001 -9.898214e-001 0.000000e+000
      outer loop
         vertex 9.969960e-001 -2.183117e+000 0.000000e+000
         vertex -3.415556e-001 -2.375571e+000 2.286829e-001
         vertex -3.415556e-001 -2.375571e+000 0.000000e+000
      endloop
   endfacet
   facet normal -1.000000e+000 0.000000e+000 0.000000e+000
      outer loop
         vertex -2.302783e+000 6.761581e-001 0.000000e+000
         vertex -2.302783e+000 -6.761581e-001 2.286829e-001
         vertex -2.302783e+000 6.761581e-001 2.286829e-001
      endloop
   endfacet
   facet normal 1.423149e-001 9.898214e-001 0.000000e+000
      outer loop
         vertex 9.969960e-001 2.183117e+000 0.000000e+000
         vertex -3.415556e-001 2.375571e+000 0.000000e+000
         vertex 9.969960e-001 2.183117e+000 2.286829e-001
      endloop
   endfacet
   facet normal 9.582402e-001 2.813649e-001 5.108266e-002
      outer loop
         vertex 2.019008e+000 1.297538e+000 2.286829e-001
         vertex 2.200000e+000 0.000000e+000 3.980408e+000
         vertex 2.400000e+000 -2.939152e-016 2.286829e-001
      endloop
   endfacet
   facet normal 5.863802e-001 8.070831e-001 6.910223e-002
      outer loop
         vertex 9.969960e-001 2.183117e+000 2.286829e-001
         vertex 6.798374e-001 2.092324e+000 3.980408e+000
         vertex 1.779837e+000 1.293128e+000 3.980408e+000
      endloop
   endfacet
   facet normal -5.859290e-001 8.064621e-001 7.941095e-002
      outer loop
         vertex -1.571666e+000 1.813799e+000 2.286829e-001
         vertex -1.779837e+000 1.293128e+000 3.980408e+000
         vertex -6.798374e-001 2.092324e+000 3.980408e+000
      endloop
   endfacet
   facet normal -9.478945e-001 -3.079896e-001 8.147648e-002
      outer loop
         vertex -2.302783e+000 -6.761581e-001 2.286829e-001
         vertex -1.779837e+000 -1.293128e+000 3.980408e+000
         vertex -2.200000e+000 2.694223e-016 3.980408e+000
      endloop
   endfacet
   facet normal 0.000000e+000 -9.971622e-001 7.528362e-002
      outer loop
         vertex -3.415556e-001 -2.375571e+000 2.286829e-001
         vertex 6.798374e-001 -2.092324e+000 3.980408e+000
         vertex -6.798374e-001 -2.092324e+000 3.980408e+000
      endloop
   endfacet
   facet normal 9.492924e-001 -3.084439e-001 6.087962e-002
      outer loop
         vertex 2.019008e+000 -1.297538e+000 2.286829e-001
         vertex 2.200000e+000 0.000000e+000 3.980408e+000
         vertex 1.779837e+000 -1.293128e+000 3.980408e+000
      endloop
   endfacet
   facet normal 9.582402e-001 -2.813649e-001 5.108266e-002
      outer loop
         vertex 2.200000e+000 0.000000e+000 3.980408e+000
         vertex 2.019008e+000 -1.297538e+000 2.286829e-001
         vertex 2.400000e+000 -2.939152e-016 2.286829e-001
      endloop
   endfacet
   facet normal -4.152127e-001 -9.091891e-001 3.120335e-002
      outer loop
         vertex -6.798374e-001 -2.092324e+000 3.980408e+000
         vertex -1.571666e+000 -1.813799e+000 2.286829e-001
         vertex -3.415556e-001 -2.375571e+000 2.286829e-001
      endloop
   endfacet
   facet normal -9.996249e-001 0.000000e+000 2.738598e-002
      outer loop
         vertex -2.200000e+000 2.694223e-016 3.980408e+000
         vertex -2.302783e+000 6.761581e-001 2.286829e-001
         vertex -2.302783e+000 -6.761581e-001 2.286829e-001
      endloop
   endfacet
   facet normal -4.152127e-001 9.091891e-001 3.120335e-002
      outer loop
         vertex -6.798374e-001 2.092324e+000 3.980408e+000
         vertex -3.415556e-001 2.375571e+000 2.286829e-001
         vertex -1.571666e+000 1.813799e+000 2.286829e-001
      endloop
   endfacet
   facet normal 6.542663e-001 7.550636e-001 4.259685e-002
      outer loop
         vertex 1.779837e+000 1.293128e+000 3.980408e+000
         vertex 2.019008e+000 1.297538e+000 2.286829e-001
         vertex 9.969960e-001 2.183117e+000 2.286829e-001
      endloop
   endfacet
   facet normal 1.422229e-001 9.891812e-001 3.596142e-002
      outer loop
         vertex -3.415556e-001 2.375571e+000 2.286829e-001
         vertex 6.798374e-001 2.092324e+000 3.980408e+000
         vertex 9.969960e-001 2.183117e+000 2.286829e-001
      endloop
   endfacet
   facet normal 1.422229e-001 -9.891812e-001 3.596142e-002
      outer loop
         vertex 9.969960e-001 -2.183117e+000 2.286829e-001
         vertex 6.798374e-001 -2.092324e+000 3.980408e+000
         vertex -3.415556e-001 -2.375571e+000 2.286829e-001
      endloop
   endfacet
   facet normal -9.478945e-001 3.079896e-001 8.147648e-002
      outer loop
         vertex -1.779837e+000 1.293128e+000 3.980408e+000
         vertex -2.302783e+000 6.761581e-001 2.286829e-001
         vertex -2.200000e+000 2.694223e-016 3.980408e+000
      endloop
   endfacet
   facet normal 0.000000e+000 9.971622e-001 7.528362e-002
      outer loop
         vertex -6.798374e-001 2.092324e+000 3.980408e+000
         vertex 6.798374e-001 2.092324e+000 3.980408e+000
         vertex -3.415556e-001 2.375571e+000 2.286829e-001
      endloop
   endfacet
   facet normal 9.492924e-001 3.084439e-001 6.087962e-002
      outer loop
         vertex 2.019008e+000 1.297538e+000 2.286829e-001
         vertex 1.779837e+000 1.293128e+000 3.980408e+000
         vertex 2.200000e+000 0.000000e+000 3.980408e+000
      endloop
   endfacet
   facet normal 5.863802e-001 -8.070831e-001 6.910223e-002
      outer loop
         vertex 9.969960e-001 -2.183117e+000 2.286829e-001
         vertex 1.779837e+000 -1.293128e+000 3.980408e+000
         vertex 6.798374e-001 -2.092324e+000 3.980408e+000
      endloop
   endfacet
   facet normal -8.409156e-001 -5.404237e-001 2.834122e-002
      outer loop
         vertex -1.779837e+000 -1.293128e+000 3.980408e+000
         vertex -2.302783e+000 -6.761581e-001 2.286829e-001
         vertex -1.571666e+000 -1.813799e+000 2.286829e-001
      endloop
   endfacet
   facet normal -8.409156e-001 5.404237e-001 2.834122e-002
      outer loop
         vertex -2.302783e+000 6.761581e-001 2.286829e-001
         vertex -1.779837e+000 1.293128e+000 3.980408e+000
         vertex -1.571666e+000 1.813799e+000 2.286829e-001
      endloop
   endfacet
   facet normal 6.542663e-001 -7.550636e-001 4.259685e-002
      outer loop
         vertex 2.019008e+000 -1.297538e+000 2.286829e-001
         vertex 1.779837e+000 -1.293128e+000 3.980408e+000
         vertex 9.969960e-001 -2.183117e+000 2.286829e-001
      endloop
   endfacet
   facet normal -5.859290e-001 -8.064621e-001 7.941095e-002
      outer loop
         vertex -1.571666e+000 -1.813799e+000 2.286829e-001
         vertex -6.798374e-001 -2.092324e+000 3.980408e+000
         vertex -1.779837e+000 -1.293128e+000 3.980408e+000
      endloop
   endfacet
   facet normal 9.510565e-001 -3.090170e-001 -4.249432e-015
      outer loop
         vertex 1.779837e+000 -1.293128e+000 4.000000e+000
         vertex 2.200000e+000 0.000000e+000 3.980408e+000
         vertex 2.200000e+000 -2.694223e-016 4.000000e+000
      endloop
   endfacet
   facet normal 5.877852e-001 -8.090170e-001 0.000000e+000
      outer loop
         vertex 1.779837e+000 -1.293128e+000 4.000000e+000
         vertex 6.798374e-001 -2.092324e+000 3.980408e+000
         vertex 1.779837e+000 -1.293128e+000 3.980408e+000
      endloop
   endfacet
   facet normal -5.877852e-001 -8.090170e-001 0.000000e+000
      outer loop
         vertex -1.779837e+000 -1.293128e+000 4.000000e+000
         vertex -1.779837e+000 -1.293128e+000 3.980408e+000
         vertex -6.798374e-001 -2.092324e+000 3.980408e+000
      endloop
   endfacet
   facet normal -9.510565e-001 3.090170e-001 0.000000e+000
      outer loop
         vertex -1.779837e+000 1.293128e+000 4.000000e+000
         vertex -1.779837e+000 1.293128e+000 3.980408e+000
         vertex -2.200000e+000 2.694223e-016 3.980408e+000
      endloop
   endfacet
   facet normal 0.000000e+000 1.000000e+000 -0.000000e+000
      outer loop
         vertex 6.798374e-001 2.092324e+000 4.000000e+000
         vertex 6.798374e-001 2.092324e+000 3.980408e+000
         vertex -6.798374e-001 2.092324e+000 3.980408e+000
      endloop
   endfacet
   facet normal 9.510565e-001 3.090170e-001 0.000000e+000
      outer loop
         vertex 1.779837e+000 1.293128e+000 4.000000e+000
         vertex 2.200000e+000 0.000000e+000 3.980408e+000
         vertex 1.779837e+000 1.293128e+000 3.980408e+000
      endloop
   endfacet
   facet normal 9.510565e-001 3.090170e-001 4.167639e-015
      outer loop
         vertex 2.200000e+000 0.000000e+000 3.980408e+000
         vertex 1.779837e+000 1.293128e+000 4.000000e+000
         vertex 2.200000e+000 -2.694223e-016 4.000000e+000
      endloop
   endfacet
   facet normal -5.877852e-001 8.090170e-001 0.000000e+000
      outer loop
         vertex -6.798374e-001 2.092324e+000 3.980408e+000
         vertex -1.779837e+000 1.293128e+000 4.000000e+000
         vertex -6.798374e-001 2.092324e+000 4.000000e+000
      endloop
   endfacet
   facet normal -9.510565e-001 -3.090170e-001 -0.000000e+000
      outer loop
         vertex -1.779837e+000 -1.293128e+000 3.980408e+000
         vertex -1.779837e+000 -1.293128e+000 4.000000e+000
         vertex -2.200000e+000 2.694223e-016 4.000000e+000
      endloop
   endfacet
   facet normal -0.000000e+000 -1.000000e+000 -0.000000e+000
      outer loop
         vertex 6.798374e-001 -2.092324e+000 3.980408e+000
         vertex 6.798374e-001 -2.092324e+000 4.000000e+000
         vertex -6.798374e-001 -2.092324e+000 4.000000e+000
      endloop
   endfacet
   facet normal 9.510565e-001 -3.090170e-001 0.000000e+000
      outer loop
         vertex 1.779837e+000 -1.293128e+000 3.980408e+000
         vertex 2.200000e+000 0.000000e+000 3.980408e+000
         vertex 1.779837e+000 -1.293128e+000 4.000000e+000
      endloop
   endfacet
   facet normal -9.510565e-001 3.090170e-001 0.000000e+000
      outer loop
         vertex -2.200000e+000 2.694223e-016 4.000000e+000
         vertex -1.779837e+000 1.293128e+000 4.000000e+000
         vertex -2.200000e+000 2.694223e-016 3.980408e+000
      endloop
   endfacet
   facet normal 5.877852e-001 8.090170e-001 -0.000000e+000
      outer loop
         vertex 1.779837e+000 1.293128e+000 4.000000e+000
         vertex 6.798374e-001 2.092324e+000 3.980408e+000
         vertex 6.798374e-001 2.092324e+000 4.000000e+000
      endloop
   endfacet
   facet normal -5.877852e-001 8.090170e-001 0.000000e+000
      outer loop
         vertex -1.779837e+000 1.293128e+000 3.980408e+000
         vertex -1.779837e+000 1.293128e+000 4.000000e+000
         vertex -6.798374e-001 2.092324e+000 3.980408e+000
      endloop
   endfacet
   facet normal -9.510565e-001 -3.090170e-001 -0.000000e+000
      outer loop
         vertex -1.779837e+000 -1.293128e+000 3.980408e+000
         vertex -2.200000e+000 2.694223e-016 4.000000e+000
         vertex -2.200000e+000 2.694223e-016 3.980408e+000
      endloop
   endfacet
   facet normal 0.000000e+000 -1.000000e+000 0.000000e+000
      outer loop
         vertex -6.798374e-001 -2.092324e+000 4.000000e+000
         vertex -6.798374e-001 -2.092324e+000 3.980408e+000
         vertex 6.798374e-001 -2.092324e+000 3.980408e+000
      endloop
   endfacet
   facet normal -0.000000e+000 1.000000e+000 0.000000e+000
      outer loop
         vertex -6.798374e-001 2.092324e+000 3.980408e+000
         vertex -6.798374e-001 2.092324e+000 4.000000e+000
         vertex 6.798374e-001 2.092324e+000 4.000000e+000
      endloop
   endfacet
   facet normal 5.877852e-001 -8.090170e-001 0.000000e+000
      outer loop
         vertex 6.798374e-001 -2.092324e+000 3.980408e+000
         vertex 1.779837e+000 -1.293128e+000 4.000000e+000
         vertex 6.798374e-001 -2.092324e+000 4.000000e+000
      endloop
   endfacet
   facet normal 5.877852e-001 8.090170e-001 0.000000e+000
      outer loop
         vertex 6.798374e-001 2.092324e+000 3.980408e+000
         vertex 1.779837e+000 1.293128e+000 4.000000e+000
         vertex 1.779837e+000 1.293128e+000 3.980408e+000
      endloop
   endfacet
   facet normal -5.877852e-001 -8.090170e-001 -0.000000e+000
      outer loop
         vertex -6.798374e-001 -2.092324e+000 3.980408e+000
         vertex -6.798374e-001 -2.092324e+000 4.000000e+000
         vertex -1.779837e+000 -1.293128e+000 4.000000e+000
      endloop
   endfacet
   facet normal 0.000000e+000 0.000000e+000 1.000000e+000
      outer loop
         vertex 1.779837e+000 -1.293128e+000 4.000000e+000
         vertex 2.200000e+000 -2.694223e-016 4.000000e+000
         vertex -6.798374e-001 -2.092324e+000 4.000000e+000
      endloop
   endfacet
   facet normal 0.000000e+000 0.000000e+000 1.000000e+000
      outer loop
         vertex 1.779837e+000 1.293128e+000 4.000000e+000
         vertex 6.798374e-001 2.092324e+000 4.000000e+000
         vertex 2.200000e+000 -2.694223e-016 4.000000e+000
      endloop
   endfacet
   facet normal 0.000000e+000 0.000000e+000 1.000000e+000
      outer loop
         vertex -1.779837e+000 1.293128e+000 4.000000e+000
         vertex -2.200000e+000 2.694223e-016 4.000000e+000
         vertex 6.798374e-001 2.092324e+000 4.000000e+000
      endloop
   endfacet
   facet normal 0.000000e+000 -0.000000e+000 1.000000e+000
      outer loop
         vertex -1.779837e+000 -1.293128e+000 4.000000e+000
         vertex -6.798374e-001 -2.092324e+000 4.000000e+000
         vertex 6.798374e-001 2.092324e+000 4.000000e+000
      endloop
   endfacet
   facet normal 0.000000e+000 0.000000e+000 1.000000e+000
      outer loop
         vertex 6.798374e-001 -2.092324e+000 4.000000e+000
         vertex 1.779837e+000 -1.293128e+000 4.000000e+000
         vertex -6.798374e-001 -2.092324e+000 4.000000e+000
      endloop
   endfacet
   facet normal 0.000000e+000 0.000000e+000 1.000000e+000
      outer loop
         vertex -1.779837e+000 1.293128e+000 4.000000e+000
         vertex 6.798374e-001 2.092324e+000 4.000000e+000
         vertex -6.798374e-001 2.092324e+000 4.000000e+000
      endloop
   endfacet
   facet normal 0.000000e+000 -0.000000e+000 1.000000e+000
      outer loop
         vertex -2.200000e+000 2.694223e-016 4.000000e+000
         vertex -1.779837e+000 -1.293128e+000 4.000000e+000
         vertex 6.798374e-001 2.092324e+000 4.000000e+000
      endloop
   endfacet
   facet normal 0.000000e+000 0.000000e+000 1.000000e+000
      outer loop
         vertex 2.200000e+000 -2.694223e-016 4.000000e+000
         vertex 6.798374e-001 2.092324e+000 4.000000e+000
         vertex -6.798374e-001 -2.092324e+000 4.000000e+000
      endloop
   endfacet
endsolid
