solid 
   facet normal 0.000000e+000 0.000000e+000 1.000000e+000
      outer loop
         vertex 1.359319e+001 -3.350419e+000 2.000000e+000
         vertex 1.400000e+001 0.000000e+000 2.000000e+000
         vertex 1.100000e+001 -3.000000e+000 2.000000e+000
      endloop
   endfacet
   facet normal 0.000000e+000 0.000000e+000 1.000000e+000
      outer loop
         vertex 1.359319e+001 3.350419e+000 2.000000e+000
         vertex 1.239638e+001 6.506124e+000 2.000000e+000
         vertex 1.100000e+001 5.000000e+000 2.000000e+000
      endloop
   endfacet
   facet normal 0.000000e+000 0.000000e+000 1.000000e+000
      outer loop
         vertex 1.047915e+001 9.283717e+000 2.000000e+000
         vertex 7.952907e+000 1.152177e+001 2.000000e+000
         vertex 9.899495e+000 5.000000e+000 2.000000e+000
      endloop
   endfacet
   facet normal 0.000000e+000 0.000000e+000 1.000000e+000
      outer loop
         vertex 4.964468e+000 1.309023e+001 2.000000e+000
         vertex 1.687513e+000 1.389792e+001 2.000000e+000
         vertex -4.594283e-015 1.200000e+001 2.000000e+000
      endloop
   endfacet
   facet normal -0.000000e+000 0.000000e+000 1.000000e+000
      outer loop
         vertex -1.687513e+000 1.389792e+001 2.000000e+000
         vertex -4.964468e+000 1.309023e+001 2.000000e+000
         vertex -4.594283e-015 1.200000e+001 2.000000e+000
      endloop
   endfacet
   facet normal -0.000000e+000 0.000000e+000 1.000000e+000
      outer loop
         vertex -7.952907e+000 1.152177e+001 2.000000e+000
         vertex -1.047915e+001 9.283717e+000 2.000000e+000
         vertex -9.899495e+000 5.000000e+000 2.000000e+000
      endloop
   endfacet
   facet normal 0.000000e+000 0.000000e+000 1.000000e+000
      outer loop
         vertex -1.239638e+001 6.506124e+000 2.000000e+000
         vertex -1.359319e+001 3.350419e+000 2.000000e+000
         vertex -1.100000e+001 5.000000e+000 2.000000e+000
      endloop
   endfacet
   facet normal 0.000000e+000 -0.000000e+000 1.000000e+000
      outer loop
         vertex -1.400000e+001 1.414900e-014 2.000000e+000
         vertex -1.359319e+001 -3.350419e+000 2.000000e+000
         vertex -1.100000e+001 -3.000000e+000 2.000000e+000
      endloop
   endfacet
   facet normal 0.000000e+000 -0.000000e+000 1.000000e+000
      outer loop
         vertex -1.239638e+001 -6.506124e+000 2.000000e+000
         vertex -1.047915e+001 -9.283717e+000 2.000000e+000
         vertex -9.797959e+000 -5.000000e+000 2.000000e+000
      endloop
   endfacet
   facet normal 0.000000e+000 0.000000e+000 1.000000e+000
      outer loop
         vertex -7.952907e+000 -1.152177e+001 2.000000e+000
         vertex -4.964468e+000 -1.309023e+001 2.000000e+000
         vertex -5.744563e+000 -9.380832e+000 2.000000e+000
      endloop
   endfacet
   facet normal 0.000000e+000 0.000000e+000 1.000000e+000
      outer loop
         vertex -1.687513e+000 -1.389792e+001 2.000000e+000
         vertex 1.687513e+000 -1.389792e+001 2.000000e+000
         vertex -1.776357e-015 -1.100000e+001 2.000000e+000
      endloop
   endfacet
   facet normal 0.000000e+000 0.000000e+000 1.000000e+000
      outer loop
         vertex 4.964468e+000 -1.309023e+001 2.000000e+000
         vertex 7.952907e+000 -1.152177e+001 2.000000e+000
         vertex 5.744563e+000 -9.380832e+000 2.000000e+000
      endloop
   endfacet
   facet normal 0.000000e+000 0.000000e+000 1.000000e+000
      outer loop
         vertex 1.047915e+001 -9.283717e+000 2.000000e+000
         vertex 1.239638e+001 -6.506124e+000 2.000000e+000
         vertex 9.797959e+000 -5.000000e+000 2.000000e+000
      endloop
   endfacet
   facet normal 0.000000e+000 0.000000e+000 1.000000e+000
      outer loop
         vertex -4.594283e-015 1.200000e+001 2.000000e+000
         vertex 9.899495e+000 5.000000e+000 2.000000e+000
         vertex 7.952907e+000 1.152177e+001 2.000000e+000
      endloop
   endfacet
   facet normal 0.000000e+000 0.000000e+000 1.000000e+000
      outer loop
         vertex 1.100000e+001 5.000000e+000 2.000000e+000
         vertex 1.100000e+001 3.000000e+000 2.000000e+000
         vertex 1.359319e+001 3.350419e+000 2.000000e+000
      endloop
   endfacet
   facet normal 0.000000e+000 0.000000e+000 1.000000e+000
      outer loop
         vertex -1.100000e+001 3.000000e+000 2.000000e+000
         vertex -1.100000e+001 5.000000e+000 2.000000e+000
         vertex -1.359319e+001 3.350419e+000 2.000000e+000
      endloop
   endfacet
   facet normal 0.000000e+000 0.000000e+000 1.000000e+000
      outer loop
         vertex -9.899495e+000 5.000000e+000 2.000000e+000
         vertex -4.594283e-015 1.200000e+001 2.000000e+000
         vertex -7.952907e+000 1.152177e+001 2.000000e+000
      endloop
   endfacet
   facet normal -0.000000e+000 0.000000e+000 1.000000e+000
      outer loop
         vertex -9.797959e+000 -5.000000e+000 2.000000e+000
         vertex -1.100000e+001 -5.000000e+000 2.000000e+000
         vertex -1.239638e+001 -6.506124e+000 2.000000e+000
      endloop
   endfacet
   facet normal 0.000000e+000 -0.000000e+000 1.000000e+000
      outer loop
         vertex -1.100000e+001 -3.000000e+000 2.000000e+000
         vertex 1.100000e+001 -3.000000e+000 2.000000e+000
         vertex 1.100000e+001 3.000000e+000 2.000000e+000
      endloop
   endfacet
   facet normal -0.000000e+000 0.000000e+000 1.000000e+000
      outer loop
         vertex 1.100000e+001 -5.000000e+000 2.000000e+000
         vertex 9.797959e+000 -5.000000e+000 2.000000e+000
         vertex 1.239638e+001 -6.506124e+000 2.000000e+000
      endloop
   endfacet
   facet normal -0.000000e+000 0.000000e+000 1.000000e+000
      outer loop
         vertex 8.074059e+000 -7.470581e+000 2.000000e+000
         vertex 5.744563e+000 -9.380832e+000 2.000000e+000
         vertex 7.952907e+000 -1.152177e+001 2.000000e+000
      endloop
   endfacet
   facet normal -0.000000e+000 0.000000e+000 1.000000e+000
      outer loop
         vertex 2.984196e+000 -1.058747e+001 2.000000e+000
         vertex -1.776357e-015 -1.100000e+001 2.000000e+000
         vertex 1.687513e+000 -1.389792e+001 2.000000e+000
      endloop
   endfacet
   facet normal 0.000000e+000 0.000000e+000 1.000000e+000
      outer loop
         vertex -2.984196e+000 -1.058747e+001 2.000000e+000
         vertex -5.744563e+000 -9.380832e+000 2.000000e+000
         vertex -4.964468e+000 -1.309023e+001 2.000000e+000
      endloop
   endfacet
   facet normal 0.000000e+000 0.000000e+000 1.000000e+000
      outer loop
         vertex 1.359319e+001 -3.350419e+000 2.000000e+000
         vertex 1.100000e+001 -3.000000e+000 2.000000e+000
         vertex 1.100000e+001 -5.000000e+000 2.000000e+000
      endloop
   endfacet
   facet normal 0.000000e+000 0.000000e+000 1.000000e+000
      outer loop
         vertex 1.047915e+001 9.283717e+000 2.000000e+000
         vertex 9.899495e+000 5.000000e+000 2.000000e+000
         vertex 1.239638e+001 6.506124e+000 2.000000e+000
      endloop
   endfacet
   facet normal 0.000000e+000 -0.000000e+000 1.000000e+000
      outer loop
         vertex -1.687513e+000 1.389792e+001 2.000000e+000
         vertex -4.594283e-015 1.200000e+001 2.000000e+000
         vertex 1.687513e+000 1.389792e+001 2.000000e+000
      endloop
   endfacet
   facet normal 0.000000e+000 -0.000000e+000 1.000000e+000
      outer loop
         vertex -1.400000e+001 1.414900e-014 2.000000e+000
         vertex -1.100000e+001 -3.000000e+000 2.000000e+000
         vertex -1.100000e+001 3.000000e+000 2.000000e+000
      endloop
   endfacet
   facet normal 0.000000e+000 0.000000e+000 1.000000e+000
      outer loop
         vertex -9.797959e+000 -5.000000e+000 2.000000e+000
         vertex -1.047915e+001 -9.283717e+000 2.000000e+000
         vertex -8.074059e+000 -7.470581e+000 2.000000e+000
      endloop
   endfacet
   facet normal 0.000000e+000 0.000000e+000 1.000000e+000
      outer loop
         vertex 4.964468e+000 -1.309023e+001 2.000000e+000
         vertex 5.744563e+000 -9.380832e+000 2.000000e+000
         vertex 2.984196e+000 -1.058747e+001 2.000000e+000
      endloop
   endfacet
   facet normal -0.000000e+000 0.000000e+000 1.000000e+000
      outer loop
         vertex 1.359319e+001 3.350419e+000 2.000000e+000
         vertex 1.100000e+001 3.000000e+000 2.000000e+000
         vertex 1.400000e+001 0.000000e+000 2.000000e+000
      endloop
   endfacet
   facet normal 0.000000e+000 0.000000e+000 1.000000e+000
      outer loop
         vertex -1.239638e+001 -6.506124e+000 2.000000e+000
         vertex -1.100000e+001 -5.000000e+000 2.000000e+000
         vertex -1.359319e+001 -3.350419e+000 2.000000e+000
      endloop
   endfacet
   facet normal 0.000000e+000 -0.000000e+000 1.000000e+000
      outer loop
         vertex 1.100000e+001 -5.000000e+000 2.000000e+000
         vertex 1.239638e+001 -6.506124e+000 2.000000e+000
         vertex 1.359319e+001 -3.350419e+000 2.000000e+000
      endloop
   endfacet
   facet normal -0.000000e+000 0.000000e+000 1.000000e+000
      outer loop
         vertex -2.984196e+000 -1.058747e+001 2.000000e+000
         vertex -4.964468e+000 -1.309023e+001 2.000000e+000
         vertex -1.687513e+000 -1.389792e+001 2.000000e+000
      endloop
   endfacet
   facet normal -0.000000e+000 0.000000e+000 1.000000e+000
      outer loop
         vertex -8.074059e+000 -7.470581e+000 2.000000e+000
         vertex -1.047915e+001 -9.283717e+000 2.000000e+000
         vertex -7.952907e+000 -1.152177e+001 2.000000e+000
      endloop
   endfacet
   facet normal 0.000000e+000 -0.000000e+000 1.000000e+000
      outer loop
         vertex -1.359319e+001 -3.350419e+000 2.000000e+000
         vertex -1.100000e+001 -5.000000e+000 2.000000e+000
         vertex -1.100000e+001 -3.000000e+000 2.000000e+000
      endloop
   endfacet
   facet normal 0.000000e+000 0.000000e+000 1.000000e+000
      outer loop
         vertex 7.952907e+000 1.152177e+001 2.000000e+000
         vertex 4.964468e+000 1.309023e+001 2.000000e+000
         vertex -4.594283e-015 1.200000e+001 2.000000e+000
      endloop
   endfacet
   facet normal -0.000000e+000 0.000000e+000 1.000000e+000
      outer loop
         vertex -1.047915e+001 9.283717e+000 2.000000e+000
         vertex -1.239638e+001 6.506124e+000 2.000000e+000
         vertex -9.899495e+000 5.000000e+000 2.000000e+000
      endloop
   endfacet
   facet normal 0.000000e+000 0.000000e+000 1.000000e+000
      outer loop
         vertex 1.687513e+000 -1.389792e+001 2.000000e+000
         vertex 4.964468e+000 -1.309023e+001 2.000000e+000
         vertex 2.984196e+000 -1.058747e+001 2.000000e+000
      endloop
   endfacet
   facet normal 0.000000e+000 -0.000000e+000 1.000000e+000
      outer loop
         vertex 9.899495e+000 5.000000e+000 2.000000e+000
         vertex 1.100000e+001 5.000000e+000 2.000000e+000
         vertex 1.239638e+001 6.506124e+000 2.000000e+000
      endloop
   endfacet
   facet normal 0.000000e+000 0.000000e+000 1.000000e+000
      outer loop
         vertex -1.100000e+001 5.000000e+000 2.000000e+000
         vertex -9.899495e+000 5.000000e+000 2.000000e+000
         vertex -1.239638e+001 6.506124e+000 2.000000e+000
      endloop
   endfacet
   facet normal 0.000000e+000 0.000000e+000 1.000000e+000
      outer loop
         vertex -1.776357e-015 -1.100000e+001 2.000000e+000
         vertex -2.984196e+000 -1.058747e+001 2.000000e+000
         vertex -1.687513e+000 -1.389792e+001 2.000000e+000
      endloop
   endfacet
   facet normal 0.000000e+000 0.000000e+000 1.000000e+000
      outer loop
         vertex 1.100000e+001 -3.000000e+000 2.000000e+000
         vertex 1.400000e+001 0.000000e+000 2.000000e+000
         vertex 1.100000e+001 3.000000e+000 2.000000e+000
      endloop
   endfacet
   facet normal 0.000000e+000 0.000000e+000 1.000000e+000
      outer loop
         vertex -7.952907e+000 -1.152177e+001 2.000000e+000
         vertex -5.744563e+000 -9.380832e+000 2.000000e+000
         vertex -8.074059e+000 -7.470581e+000 2.000000e+000
      endloop
   endfacet
   facet normal 0.000000e+000 0.000000e+000 1.000000e+000
      outer loop
         vertex -7.952907e+000 1.152177e+001 2.000000e+000
         vertex -4.594283e-015 1.200000e+001 2.000000e+000
         vertex -4.964468e+000 1.309023e+001 2.000000e+000
      endloop
   endfacet
   facet normal 0.000000e+000 0.000000e+000 1.000000e+000
      outer loop
         vertex -1.100000e+001 3.000000e+000 2.000000e+000
         vertex -1.100000e+001 -3.000000e+000 2.000000e+000
         vertex 1.100000e+001 3.000000e+000 2.000000e+000
      endloop
   endfacet
   facet normal 0.000000e+000 0.000000e+000 1.000000e+000
      outer loop
         vertex -1.359319e+001 3.350419e+000 2.000000e+000
         vertex -1.400000e+001 1.414900e-014 2.000000e+000
         vertex -1.100000e+001 3.000000e+000 2.000000e+000
      endloop
   endfacet
   facet normal -0.000000e+000 0.000000e+000 1.000000e+000
      outer loop
         vertex 9.797959e+000 -5.000000e+000 2.000000e+000
         vertex 8.074059e+000 -7.470581e+000 2.000000e+000
         vertex 1.047915e+001 -9.283717e+000 2.000000e+000
      endloop
   endfacet
   facet normal 0.000000e+000 0.000000e+000 1.000000e+000
      outer loop
         vertex 1.047915e+001 -9.283717e+000 2.000000e+000
         vertex 8.074059e+000 -7.470581e+000 2.000000e+000
         vertex 7.952907e+000 -1.152177e+001 2.000000e+000
      endloop
   endfacet
   facet normal 1.000000e+000 0.000000e+000 0.000000e+000
      outer loop
         vertex 1.100000e+001 3.000000e+000 2.000000e+000
         vertex 1.100000e+001 5.000000e+000 2.000000e+000
         vertex 1.100000e+001 4.633975e+000 2.366025e+000
      endloop
   endfacet
   facet normal 1.000000e+000 0.000000e+000 0.000000e+000
      outer loop
         vertex 1.100000e+001 4.500000e+000 2.866025e+000
         vertex 1.100000e+001 4.500000e+000 4.000000e+000
         vertex 1.100000e+001 3.600000e+000 4.000000e+000
      endloop
   endfacet
   facet normal 1.000000e+000 0.000000e+000 0.000000e+000
      outer loop
         vertex 1.100000e+001 3.300000e+000 3.919615e+000
         vertex 1.100000e+001 3.080385e+000 3.700000e+000
         vertex 1.100000e+001 3.600000e+000 4.000000e+000
      endloop
   endfacet
   facet normal 1.000000e+000 0.000000e+000 0.000000e+000
      outer loop
         vertex 1.100000e+001 3.000000e+000 2.000000e+000
         vertex 1.100000e+001 4.633975e+000 2.366025e+000
         vertex 1.100000e+001 4.500000e+000 2.866025e+000
      endloop
   endfacet
   facet normal 1.000000e+000 0.000000e+000 0.000000e+000
      outer loop
         vertex 1.100000e+001 3.000000e+000 2.000000e+000
         vertex 1.100000e+001 4.500000e+000 2.866025e+000
         vertex 1.100000e+001 3.000000e+000 3.400000e+000
      endloop
   endfacet
   facet normal 1.000000e+000 0.000000e+000 0.000000e+000
      outer loop
         vertex 1.100000e+001 3.080385e+000 3.700000e+000
         vertex 1.100000e+001 3.000000e+000 3.400000e+000
         vertex 1.100000e+001 3.600000e+000 4.000000e+000
      endloop
   endfacet
   facet normal 1.000000e+000 0.000000e+000 0.000000e+000
      outer loop
         vertex 1.100000e+001 3.000000e+000 3.400000e+000
         vertex 1.100000e+001 4.500000e+000 2.866025e+000
         vertex 1.100000e+001 3.600000e+000 4.000000e+000
      endloop
   endfacet
   facet normal -0.000000e+000 -1.000000e+000 -0.000000e+000
      outer loop
         vertex 1.100000e+001 3.000000e+000 2.000000e+000
         vertex 1.100000e+001 3.000000e+000 3.400000e+000
         vertex -1.100000e+001 3.000000e+000 3.400000e+000
      endloop
   endfacet
   facet normal 0.000000e+000 -1.000000e+000 0.000000e+000
      outer loop
         vertex -1.100000e+001 3.000000e+000 2.000000e+000
         vertex 1.100000e+001 3.000000e+000 2.000000e+000
         vertex -1.100000e+001 3.000000e+000 3.400000e+000
      endloop
   endfacet
   facet normal -1.000000e+000 0.000000e+000 0.000000e+000
      outer loop
         vertex -1.100000e+001 4.500000e+000 4.000000e+000
         vertex -1.100000e+001 4.500000e+000 2.866025e+000
         vertex -1.100000e+001 3.600000e+000 4.000000e+000
      endloop
   endfacet
   facet normal -1.000000e+000 0.000000e+000 0.000000e+000
      outer loop
         vertex -1.100000e+001 4.633975e+000 2.366025e+000
         vertex -1.100000e+001 5.000000e+000 2.000000e+000
         vertex -1.100000e+001 3.000000e+000 2.000000e+000
      endloop
   endfacet
   facet normal -1.000000e+000 0.000000e+000 -0.000000e+000
      outer loop
         vertex -1.100000e+001 3.000000e+000 3.400000e+000
         vertex -1.100000e+001 3.080385e+000 3.700000e+000
         vertex -1.100000e+001 3.600000e+000 4.000000e+000
      endloop
   endfacet
   facet normal -1.000000e+000 0.000000e+000 0.000000e+000
      outer loop
         vertex -1.100000e+001 3.300000e+000 3.919615e+000
         vertex -1.100000e+001 3.600000e+000 4.000000e+000
         vertex -1.100000e+001 3.080385e+000 3.700000e+000
      endloop
   endfacet
   facet normal -1.000000e+000 0.000000e+000 -0.000000e+000
      outer loop
         vertex -1.100000e+001 3.000000e+000 3.400000e+000
         vertex -1.100000e+001 3.600000e+000 4.000000e+000
         vertex -1.100000e+001 4.500000e+000 2.866025e+000
      endloop
   endfacet
   facet normal -1.000000e+000 -0.000000e+000 0.000000e+000
      outer loop
         vertex -1.100000e+001 4.500000e+000 2.866025e+000
         vertex -1.100000e+001 4.633975e+000 2.366025e+000
         vertex -1.100000e+001 3.000000e+000 2.000000e+000
      endloop
   endfacet
   facet normal -1.000000e+000 -0.000000e+000 0.000000e+000
      outer loop
         vertex -1.100000e+001 3.000000e+000 3.400000e+000
         vertex -1.100000e+001 4.500000e+000 2.866025e+000
         vertex -1.100000e+001 3.000000e+000 2.000000e+000
      endloop
   endfacet
   facet normal 0.000000e+000 1.000000e+000 -0.000000e+000
      outer loop
         vertex 1.100000e+001 4.500000e+000 4.000000e+000
         vertex 1.100000e+001 4.500000e+000 2.866025e+000
         vertex -1.100000e+001 4.500000e+000 2.866025e+000
      endloop
   endfacet
   facet normal 0.000000e+000 1.000000e+000 0.000000e+000
      outer loop
         vertex -1.100000e+001 4.500000e+000 4.000000e+000
         vertex 1.100000e+001 4.500000e+000 4.000000e+000
         vertex -1.100000e+001 4.500000e+000 2.866025e+000
      endloop
   endfacet
   facet normal 1.000000e+000 0.000000e+000 0.000000e+000
      outer loop
         vertex 1.100000e+001 -4.500000e+000 4.000000e+000
         vertex 1.100000e+001 -4.500000e+000 2.866025e+000
         vertex 1.100000e+001 -3.600000e+000 4.000000e+000
      endloop
   endfacet
   facet normal 1.000000e+000 0.000000e+000 0.000000e+000
      outer loop
         vertex 1.100000e+001 -4.633975e+000 2.366025e+000
         vertex 1.100000e+001 -5.000000e+000 2.000000e+000
         vertex 1.100000e+001 -3.000000e+000 2.000000e+000
      endloop
   endfacet
   facet normal 1.000000e+000 0.000000e+000 0.000000e+000
      outer loop
         vertex 1.100000e+001 -3.000000e+000 3.400000e+000
         vertex 1.100000e+001 -3.080385e+000 3.700000e+000
         vertex 1.100000e+001 -3.600000e+000 4.000000e+000
      endloop
   endfacet
   facet normal 1.000000e+000 0.000000e+000 0.000000e+000
      outer loop
         vertex 1.100000e+001 -3.300000e+000 3.919615e+000
         vertex 1.100000e+001 -3.600000e+000 4.000000e+000
         vertex 1.100000e+001 -3.080385e+000 3.700000e+000
      endloop
   endfacet
   facet normal 1.000000e+000 0.000000e+000 0.000000e+000
      outer loop
         vertex 1.100000e+001 -3.000000e+000 3.400000e+000
         vertex 1.100000e+001 -3.600000e+000 4.000000e+000
         vertex 1.100000e+001 -4.500000e+000 2.866025e+000
      endloop
   endfacet
   facet normal 1.000000e+000 -0.000000e+000 0.000000e+000
      outer loop
         vertex 1.100000e+001 -4.500000e+000 2.866025e+000
         vertex 1.100000e+001 -4.633975e+000 2.366025e+000
         vertex 1.100000e+001 -3.000000e+000 2.000000e+000
      endloop
   endfacet
   facet normal 1.000000e+000 -0.000000e+000 0.000000e+000
      outer loop
         vertex 1.100000e+001 -3.000000e+000 3.400000e+000
         vertex 1.100000e+001 -4.500000e+000 2.866025e+000
         vertex 1.100000e+001 -3.000000e+000 2.000000e+000
      endloop
   endfacet
   facet normal 0.000000e+000 -1.000000e+000 0.000000e+000
      outer loop
         vertex -1.100000e+001 -4.500000e+000 4.000000e+000
         vertex -1.100000e+001 -4.500000e+000 2.866025e+000
         vertex 1.100000e+001 -4.500000e+000 2.866025e+000
      endloop
   endfacet
   facet normal 0.000000e+000 -1.000000e+000 0.000000e+000
      outer loop
         vertex 1.100000e+001 -4.500000e+000 4.000000e+000
         vertex -1.100000e+001 -4.500000e+000 4.000000e+000
         vertex 1.100000e+001 -4.500000e+000 2.866025e+000
      endloop
   endfacet
   facet normal -1.000000e+000 0.000000e+000 0.000000e+000
      outer loop
         vertex -1.100000e+001 -3.000000e+000 2.000000e+000
         vertex -1.100000e+001 -5.000000e+000 2.000000e+000
         vertex -1.100000e+001 -4.633975e+000 2.366025e+000
      endloop
   endfacet
   facet normal -1.000000e+000 0.000000e+000 0.000000e+000
      outer loop
         vertex -1.100000e+001 -4.500000e+000 2.866025e+000
         vertex -1.100000e+001 -4.500000e+000 4.000000e+000
         vertex -1.100000e+001 -3.600000e+000 4.000000e+000
      endloop
   endfacet
   facet normal -1.000000e+000 0.000000e+000 0.000000e+000
      outer loop
         vertex -1.100000e+001 -3.300000e+000 3.919615e+000
         vertex -1.100000e+001 -3.080385e+000 3.700000e+000
         vertex -1.100000e+001 -3.600000e+000 4.000000e+000
      endloop
   endfacet
   facet normal -1.000000e+000 0.000000e+000 0.000000e+000
      outer loop
         vertex -1.100000e+001 -3.000000e+000 2.000000e+000
         vertex -1.100000e+001 -4.633975e+000 2.366025e+000
         vertex -1.100000e+001 -4.500000e+000 2.866025e+000
      endloop
   endfacet
   facet normal -1.000000e+000 0.000000e+000 0.000000e+000
      outer loop
         vertex -1.100000e+001 -3.000000e+000 2.000000e+000
         vertex -1.100000e+001 -4.500000e+000 2.866025e+000
         vertex -1.100000e+001 -3.000000e+000 3.400000e+000
      endloop
   endfacet
   facet normal -1.000000e+000 0.000000e+000 0.000000e+000
      outer loop
         vertex -1.100000e+001 -3.080385e+000 3.700000e+000
         vertex -1.100000e+001 -3.000000e+000 3.400000e+000
         vertex -1.100000e+001 -3.600000e+000 4.000000e+000
      endloop
   endfacet
   facet normal -1.000000e+000 0.000000e+000 0.000000e+000
      outer loop
         vertex -1.100000e+001 -3.000000e+000 3.400000e+000
         vertex -1.100000e+001 -4.500000e+000 2.866025e+000
         vertex -1.100000e+001 -3.600000e+000 4.000000e+000
      endloop
   endfacet
   facet normal -0.000000e+000 1.000000e+000 0.000000e+000
      outer loop
         vertex -1.100000e+001 -3.000000e+000 2.000000e+000
         vertex -1.100000e+001 -3.000000e+000 3.400000e+000
         vertex 1.100000e+001 -3.000000e+000 3.400000e+000
      endloop
   endfacet
   facet normal 0.000000e+000 1.000000e+000 0.000000e+000
      outer loop
         vertex 1.100000e+001 -3.000000e+000 2.000000e+000
         vertex -1.100000e+001 -3.000000e+000 2.000000e+000
         vertex 1.100000e+001 -3.000000e+000 3.400000e+000
      endloop
   endfacet
   facet normal 9.927089e-001 1.205367e-001 -0.000000e+000
      outer loop
         vertex 1.400000e+001 0.000000e+000 2.000000e+000
         vertex 1.400000e+001 0.000000e+000 0.000000e+000
         vertex 1.359319e+001 3.350419e+000 0.000000e+000
      endloop
   endfacet
   facet normal 8.229839e-001 5.680647e-001 -0.000000e+000
      outer loop
         vertex 1.239638e+001 6.506124e+000 0.000000e+000
         vertex 1.047915e+001 9.283717e+000 0.000000e+000
         vertex 1.047915e+001 9.283717e+000 2.000000e+000
      endloop
   endfacet
   facet normal 4.647231e-001 8.854561e-001 -0.000000e+000
      outer loop
         vertex 7.952907e+000 1.152177e+001 0.000000e+000
         vertex 4.964468e+000 1.309023e+001 0.000000e+000
         vertex 4.964468e+000 1.309023e+001 2.000000e+000
      endloop
   endfacet
   facet normal 0.000000e+000 1.000000e+000 0.000000e+000
      outer loop
         vertex 1.687513e+000 1.389792e+001 0.000000e+000
         vertex -1.687513e+000 1.389792e+001 0.000000e+000
         vertex -1.687513e+000 1.389792e+001 2.000000e+000
      endloop
   endfacet
   facet normal -4.647231e-001 8.854561e-001 0.000000e+000
      outer loop
         vertex -4.964468e+000 1.309023e+001 0.000000e+000
         vertex -7.952907e+000 1.152177e+001 0.000000e+000
         vertex -7.952907e+000 1.152177e+001 2.000000e+000
      endloop
   endfacet
   facet normal -8.229839e-001 5.680647e-001 0.000000e+000
      outer loop
         vertex -1.047915e+001 9.283717e+000 0.000000e+000
         vertex -1.239638e+001 6.506124e+000 0.000000e+000
         vertex -1.239638e+001 6.506124e+000 2.000000e+000
      endloop
   endfacet
   facet normal -9.927089e-001 1.205367e-001 0.000000e+000
      outer loop
         vertex -1.359319e+001 3.350419e+000 0.000000e+000
         vertex -1.400000e+001 1.414900e-014 0.000000e+000
         vertex -1.400000e+001 1.414900e-014 2.000000e+000
      endloop
   endfacet
   facet normal -9.350162e-001 -3.546049e-001 0.000000e+000
      outer loop
         vertex -1.359319e+001 -3.350419e+000 0.000000e+000
         vertex -1.239638e+001 -6.506124e+000 0.000000e+000
         vertex -1.239638e+001 -6.506124e+000 2.000000e+000
      endloop
   endfacet
   facet normal -6.631227e-001 -7.485107e-001 0.000000e+000
      outer loop
         vertex -1.047915e+001 -9.283717e+000 0.000000e+000
         vertex -7.952907e+000 -1.152177e+001 0.000000e+000
         vertex -7.952907e+000 -1.152177e+001 2.000000e+000
      endloop
   endfacet
   facet normal -2.393158e-001 -9.709418e-001 0.000000e+000
      outer loop
         vertex -4.964468e+000 -1.309023e+001 0.000000e+000
         vertex -1.687513e+000 -1.389792e+001 0.000000e+000
         vertex -1.687513e+000 -1.389792e+001 2.000000e+000
      endloop
   endfacet
   facet normal 2.393158e-001 -9.709418e-001 0.000000e+000
      outer loop
         vertex 1.687513e+000 -1.389792e+001 0.000000e+000
         vertex 4.964468e+000 -1.309023e+001 0.000000e+000
         vertex 4.964468e+000 -1.309023e+001 2.000000e+000
      endloop
   endfacet
   facet normal 6.631227e-001 -7.485107e-001 0.000000e+000
      outer loop
         vertex 7.952907e+000 -1.152177e+001 0.000000e+000
         vertex 1.047915e+001 -9.283717e+000 0.000000e+000
         vertex 1.047915e+001 -9.283717e+000 2.000000e+000
      endloop
   endfacet
   facet normal 9.350162e-001 -3.546049e-001 0.000000e+000
      outer loop
         vertex 1.239638e+001 -6.506124e+000 0.000000e+000
         vertex 1.359319e+001 -3.350419e+000 0.000000e+000
         vertex 1.359319e+001 -3.350419e+000 2.000000e+000
      endloop
   endfacet
   facet normal 9.927089e-001 -1.205367e-001 0.000000e+000
      outer loop
         vertex 1.400000e+001 0.000000e+000 0.000000e+000
         vertex 1.400000e+001 0.000000e+000 2.000000e+000
         vertex 1.359319e+001 -3.350419e+000 0.000000e+000
      endloop
   endfacet
   facet normal 8.229839e-001 -5.680647e-001 0.000000e+000
      outer loop
         vertex 1.239638e+001 -6.506124e+000 2.000000e+000
         vertex 1.047915e+001 -9.283717e+000 2.000000e+000
         vertex 1.047915e+001 -9.283717e+000 0.000000e+000
      endloop
   endfacet
   facet normal 4.647231e-001 -8.854561e-001 0.000000e+000
      outer loop
         vertex 7.952907e+000 -1.152177e+001 2.000000e+000
         vertex 4.964468e+000 -1.309023e+001 2.000000e+000
         vertex 4.964468e+000 -1.309023e+001 0.000000e+000
      endloop
   endfacet
   facet normal 0.000000e+000 -1.000000e+000 0.000000e+000
      outer loop
         vertex 1.687513e+000 -1.389792e+001 2.000000e+000
         vertex -1.687513e+000 -1.389792e+001 2.000000e+000
         vertex -1.687513e+000 -1.389792e+001 0.000000e+000
      endloop
   endfacet
   facet normal -4.647231e-001 -8.854561e-001 -0.000000e+000
      outer loop
         vertex -4.964468e+000 -1.309023e+001 2.000000e+000
         vertex -7.952907e+000 -1.152177e+001 2.000000e+000
         vertex -7.952907e+000 -1.152177e+001 0.000000e+000
      endloop
   endfacet
   facet normal -8.229839e-001 -5.680647e-001 -0.000000e+000
      outer loop
         vertex -1.047915e+001 -9.283717e+000 2.000000e+000
         vertex -1.239638e+001 -6.506124e+000 2.000000e+000
         vertex -1.239638e+001 -6.506124e+000 0.000000e+000
      endloop
   endfacet
   facet normal -9.927089e-001 -1.205367e-001 -0.000000e+000
      outer loop
         vertex -1.359319e+001 -3.350419e+000 2.000000e+000
         vertex -1.400000e+001 1.414900e-014 2.000000e+000
         vertex -1.400000e+001 1.414900e-014 0.000000e+000
      endloop
   endfacet
   facet normal -9.350162e-001 3.546049e-001 0.000000e+000
      outer loop
         vertex -1.359319e+001 3.350419e+000 2.000000e+000
         vertex -1.239638e+001 6.506124e+000 2.000000e+000
         vertex -1.239638e+001 6.506124e+000 0.000000e+000
      endloop
   endfacet
   facet normal -6.631227e-001 7.485107e-001 0.000000e+000
      outer loop
         vertex -1.047915e+001 9.283717e+000 2.000000e+000
         vertex -7.952907e+000 1.152177e+001 2.000000e+000
         vertex -7.952907e+000 1.152177e+001 0.000000e+000
      endloop
   endfacet
   facet normal -2.393158e-001 9.709418e-001 0.000000e+000
      outer loop
         vertex -4.964468e+000 1.309023e+001 2.000000e+000
         vertex -1.687513e+000 1.389792e+001 2.000000e+000
         vertex -1.687513e+000 1.389792e+001 0.000000e+000
      endloop
   endfacet
   facet normal 2.393158e-001 9.709418e-001 0.000000e+000
      outer loop
         vertex 1.687513e+000 1.389792e+001 2.000000e+000
         vertex 4.964468e+000 1.309023e+001 2.000000e+000
         vertex 4.964468e+000 1.309023e+001 0.000000e+000
      endloop
   endfacet
   facet normal 6.631227e-001 7.485107e-001 0.000000e+000
      outer loop
         vertex 7.952907e+000 1.152177e+001 2.000000e+000
         vertex 1.047915e+001 9.283717e+000 2.000000e+000
         vertex 1.047915e+001 9.283717e+000 0.000000e+000
      endloop
   endfacet
   facet normal 9.350162e-001 3.546049e-001 0.000000e+000
      outer loop
         vertex 1.239638e+001 6.506124e+000 2.000000e+000
         vertex 1.359319e+001 3.350419e+000 2.000000e+000
         vertex 1.359319e+001 3.350419e+000 0.000000e+000
      endloop
   endfacet
   facet normal 9.927089e-001 1.205367e-001 -0.000000e+000
      outer loop
         vertex 1.400000e+001 0.000000e+000 2.000000e+000
         vertex 1.359319e+001 3.350419e+000 0.000000e+000
         vertex 1.359319e+001 3.350419e+000 2.000000e+000
      endloop
   endfacet
   facet normal -0.000000e+000 1.000000e+000 0.000000e+000
      outer loop
         vertex 1.687513e+000 1.389792e+001 0.000000e+000
         vertex -1.687513e+000 1.389792e+001 2.000000e+000
         vertex 1.687513e+000 1.389792e+001 2.000000e+000
      endloop
   endfacet
   facet normal -9.927089e-001 1.205367e-001 0.000000e+000
      outer loop
         vertex -1.359319e+001 3.350419e+000 0.000000e+000
         vertex -1.400000e+001 1.414900e-014 2.000000e+000
         vertex -1.359319e+001 3.350419e+000 2.000000e+000
      endloop
   endfacet
   facet normal -2.393158e-001 -9.709418e-001 0.000000e+000
      outer loop
         vertex -4.964468e+000 -1.309023e+001 0.000000e+000
         vertex -1.687513e+000 -1.389792e+001 2.000000e+000
         vertex -4.964468e+000 -1.309023e+001 2.000000e+000
      endloop
   endfacet
   facet normal 9.350162e-001 -3.546049e-001 0.000000e+000
      outer loop
         vertex 1.239638e+001 -6.506124e+000 0.000000e+000
         vertex 1.359319e+001 -3.350419e+000 2.000000e+000
         vertex 1.239638e+001 -6.506124e+000 2.000000e+000
      endloop
   endfacet
   facet normal 8.229839e-001 -5.680647e-001 0.000000e+000
      outer loop
         vertex 1.239638e+001 -6.506124e+000 2.000000e+000
         vertex 1.047915e+001 -9.283717e+000 0.000000e+000
         vertex 1.239638e+001 -6.506124e+000 0.000000e+000
      endloop
   endfacet
   facet normal -4.647231e-001 -8.854561e-001 0.000000e+000
      outer loop
         vertex -4.964468e+000 -1.309023e+001 2.000000e+000
         vertex -7.952907e+000 -1.152177e+001 0.000000e+000
         vertex -4.964468e+000 -1.309023e+001 0.000000e+000
      endloop
   endfacet
   facet normal -9.350162e-001 3.546049e-001 0.000000e+000
      outer loop
         vertex -1.359319e+001 3.350419e+000 2.000000e+000
         vertex -1.239638e+001 6.506124e+000 0.000000e+000
         vertex -1.359319e+001 3.350419e+000 0.000000e+000
      endloop
   endfacet
   facet normal 2.393158e-001 9.709418e-001 0.000000e+000
      outer loop
         vertex 1.687513e+000 1.389792e+001 2.000000e+000
         vertex 4.964468e+000 1.309023e+001 0.000000e+000
         vertex 1.687513e+000 1.389792e+001 0.000000e+000
      endloop
   endfacet
   facet normal 9.350162e-001 3.546049e-001 -0.000000e+000
      outer loop
         vertex 1.359319e+001 3.350419e+000 0.000000e+000
         vertex 1.239638e+001 6.506124e+000 0.000000e+000
         vertex 1.239638e+001 6.506124e+000 2.000000e+000
      endloop
   endfacet
   facet normal -2.393158e-001 9.709418e-001 0.000000e+000
      outer loop
         vertex -1.687513e+000 1.389792e+001 0.000000e+000
         vertex -4.964468e+000 1.309023e+001 0.000000e+000
         vertex -4.964468e+000 1.309023e+001 2.000000e+000
      endloop
   endfacet
   facet normal -9.927089e-001 -1.205367e-001 0.000000e+000
      outer loop
         vertex -1.400000e+001 1.414900e-014 0.000000e+000
         vertex -1.359319e+001 -3.350419e+000 0.000000e+000
         vertex -1.359319e+001 -3.350419e+000 2.000000e+000
      endloop
   endfacet
   facet normal 0.000000e+000 -1.000000e+000 0.000000e+000
      outer loop
         vertex -1.687513e+000 -1.389792e+001 0.000000e+000
         vertex 1.687513e+000 -1.389792e+001 0.000000e+000
         vertex 1.687513e+000 -1.389792e+001 2.000000e+000
      endloop
   endfacet
   facet normal 9.927089e-001 -1.205367e-001 0.000000e+000
      outer loop
         vertex 1.400000e+001 0.000000e+000 2.000000e+000
         vertex 1.359319e+001 -3.350419e+000 2.000000e+000
         vertex 1.359319e+001 -3.350419e+000 0.000000e+000
      endloop
   endfacet
   facet normal 2.393158e-001 -9.709418e-001 0.000000e+000
      outer loop
         vertex 4.964468e+000 -1.309023e+001 2.000000e+000
         vertex 1.687513e+000 -1.389792e+001 2.000000e+000
         vertex 1.687513e+000 -1.389792e+001 0.000000e+000
      endloop
   endfacet
   facet normal -9.350162e-001 -3.546049e-001 -0.000000e+000
      outer loop
         vertex -1.239638e+001 -6.506124e+000 2.000000e+000
         vertex -1.359319e+001 -3.350419e+000 2.000000e+000
         vertex -1.359319e+001 -3.350419e+000 0.000000e+000
      endloop
   endfacet
   facet normal -4.647231e-001 8.854561e-001 0.000000e+000
      outer loop
         vertex -7.952907e+000 1.152177e+001 2.000000e+000
         vertex -4.964468e+000 1.309023e+001 2.000000e+000
         vertex -4.964468e+000 1.309023e+001 0.000000e+000
      endloop
   endfacet
   facet normal 8.229839e-001 5.680647e-001 0.000000e+000
      outer loop
         vertex 1.047915e+001 9.283717e+000 2.000000e+000
         vertex 1.239638e+001 6.506124e+000 2.000000e+000
         vertex 1.239638e+001 6.506124e+000 0.000000e+000
      endloop
   endfacet
   facet normal -8.229839e-001 5.680647e-001 0.000000e+000
      outer loop
         vertex -1.047915e+001 9.283717e+000 0.000000e+000
         vertex -1.239638e+001 6.506124e+000 2.000000e+000
         vertex -1.047915e+001 9.283717e+000 2.000000e+000
      endloop
   endfacet
   facet normal 4.647231e-001 -8.854561e-001 0.000000e+000
      outer loop
         vertex 7.952907e+000 -1.152177e+001 2.000000e+000
         vertex 4.964468e+000 -1.309023e+001 0.000000e+000
         vertex 7.952907e+000 -1.152177e+001 0.000000e+000
      endloop
   endfacet
   facet normal 6.631227e-001 7.485107e-001 0.000000e+000
      outer loop
         vertex 7.952907e+000 1.152177e+001 2.000000e+000
         vertex 1.047915e+001 9.283717e+000 0.000000e+000
         vertex 7.952907e+000 1.152177e+001 0.000000e+000
      endloop
   endfacet
   facet normal 4.647231e-001 8.854561e-001 -0.000000e+000
      outer loop
         vertex 7.952907e+000 1.152177e+001 2.000000e+000
         vertex 7.952907e+000 1.152177e+001 0.000000e+000
         vertex 4.964468e+000 1.309023e+001 2.000000e+000
      endloop
   endfacet
   facet normal -6.631227e-001 7.485107e-001 0.000000e+000
      outer loop
         vertex -7.952907e+000 1.152177e+001 0.000000e+000
         vertex -1.047915e+001 9.283717e+000 0.000000e+000
         vertex -1.047915e+001 9.283717e+000 2.000000e+000
      endloop
   endfacet
   facet normal 6.631227e-001 -7.485107e-001 0.000000e+000
      outer loop
         vertex 1.047915e+001 -9.283717e+000 2.000000e+000
         vertex 7.952907e+000 -1.152177e+001 2.000000e+000
         vertex 7.952907e+000 -1.152177e+001 0.000000e+000
      endloop
   endfacet
   facet normal -6.631227e-001 -7.485107e-001 0.000000e+000
      outer loop
         vertex -1.047915e+001 -9.283717e+000 0.000000e+000
         vertex -7.952907e+000 -1.152177e+001 2.000000e+000
         vertex -1.047915e+001 -9.283717e+000 2.000000e+000
      endloop
   endfacet
   facet normal -8.229839e-001 -5.680647e-001 0.000000e+000
      outer loop
         vertex -1.239638e+001 -6.506124e+000 0.000000e+000
         vertex -1.047915e+001 -9.283717e+000 0.000000e+000
         vertex -1.047915e+001 -9.283717e+000 2.000000e+000
      endloop
   endfacet
   facet normal 8.200896e-001 5.722351e-001 -0.000000e+000
      outer loop
         vertex -8.074059e+000 -7.470581e+000 0.000000e+000
         vertex -9.797959e+000 -5.000000e+000 0.000000e+000
         vertex -9.797959e+000 -5.000000e+000 2.000000e+000
      endloop
   endfacet
   facet normal 4.005349e-001 9.162815e-001 -0.000000e+000
      outer loop
         vertex -2.984196e+000 -1.058747e+001 2.000000e+000
         vertex -2.984196e+000 -1.058747e+001 0.000000e+000
         vertex -5.744563e+000 -9.380832e+000 0.000000e+000
      endloop
   endfacet
   facet normal -1.369351e-001 9.905800e-001 0.000000e+000
      outer loop
         vertex 2.984196e+000 -1.058747e+001 2.000000e+000
         vertex 2.984196e+000 -1.058747e+001 0.000000e+000
         vertex -1.776357e-015 -1.100000e+001 0.000000e+000
      endloop
   endfacet
   facet normal -6.340923e-001 7.732574e-001 0.000000e+000
      outer loop
         vertex 8.074059e+000 -7.470581e+000 2.000000e+000
         vertex 8.074059e+000 -7.470581e+000 0.000000e+000
         vertex 5.744563e+000 -9.380832e+000 0.000000e+000
      endloop
   endfacet
   facet normal -8.200896e-001 5.722351e-001 0.000000e+000
      outer loop
         vertex 8.074059e+000 -7.470581e+000 0.000000e+000
         vertex 9.797959e+000 -5.000000e+000 2.000000e+000
         vertex 9.797959e+000 -5.000000e+000 0.000000e+000
      endloop
   endfacet
   facet normal -4.005349e-001 9.162815e-001 0.000000e+000
      outer loop
         vertex 2.984196e+000 -1.058747e+001 0.000000e+000
         vertex 2.984196e+000 -1.058747e+001 2.000000e+000
         vertex 5.744563e+000 -9.380832e+000 2.000000e+000
      endloop
   endfacet
   facet normal 1.369351e-001 9.905800e-001 0.000000e+000
      outer loop
         vertex -2.984196e+000 -1.058747e+001 0.000000e+000
         vertex -2.984196e+000 -1.058747e+001 2.000000e+000
         vertex -1.776357e-015 -1.100000e+001 2.000000e+000
      endloop
   endfacet
   facet normal 6.340923e-001 7.732574e-001 0.000000e+000
      outer loop
         vertex -8.074059e+000 -7.470581e+000 0.000000e+000
         vertex -8.074059e+000 -7.470581e+000 2.000000e+000
         vertex -5.744563e+000 -9.380832e+000 2.000000e+000
      endloop
   endfacet
   facet normal 8.200896e-001 5.722351e-001 -0.000000e+000
      outer loop
         vertex -8.074059e+000 -7.470581e+000 2.000000e+000
         vertex -8.074059e+000 -7.470581e+000 0.000000e+000
         vertex -9.797959e+000 -5.000000e+000 2.000000e+000
      endloop
   endfacet
   facet normal -6.340923e-001 7.732574e-001 0.000000e+000
      outer loop
         vertex 5.744563e+000 -9.380832e+000 2.000000e+000
         vertex 8.074059e+000 -7.470581e+000 2.000000e+000
         vertex 5.744563e+000 -9.380832e+000 0.000000e+000
      endloop
   endfacet
   facet normal -4.005349e-001 9.162815e-001 0.000000e+000
      outer loop
         vertex 5.744563e+000 -9.380832e+000 0.000000e+000
         vertex 2.984196e+000 -1.058747e+001 0.000000e+000
         vertex 5.744563e+000 -9.380832e+000 2.000000e+000
      endloop
   endfacet
   facet normal 6.340923e-001 7.732574e-001 -0.000000e+000
      outer loop
         vertex -5.744563e+000 -9.380832e+000 2.000000e+000
         vertex -5.744563e+000 -9.380832e+000 0.000000e+000
         vertex -8.074059e+000 -7.470581e+000 0.000000e+000
      endloop
   endfacet
   facet normal -8.200896e-001 5.722351e-001 0.000000e+000
      outer loop
         vertex 8.074059e+000 -7.470581e+000 0.000000e+000
         vertex 8.074059e+000 -7.470581e+000 2.000000e+000
         vertex 9.797959e+000 -5.000000e+000 2.000000e+000
      endloop
   endfacet
   facet normal 4.005349e-001 9.162815e-001 0.000000e+000
      outer loop
         vertex -5.744563e+000 -9.380832e+000 0.000000e+000
         vertex -5.744563e+000 -9.380832e+000 2.000000e+000
         vertex -2.984196e+000 -1.058747e+001 2.000000e+000
      endloop
   endfacet
   facet normal 1.369351e-001 9.905800e-001 0.000000e+000
      outer loop
         vertex -1.776357e-015 -1.100000e+001 0.000000e+000
         vertex -2.984196e+000 -1.058747e+001 0.000000e+000
         vertex -1.776357e-015 -1.100000e+001 2.000000e+000
      endloop
   endfacet
   facet normal -1.369351e-001 9.905800e-001 0.000000e+000
      outer loop
         vertex -1.776357e-015 -1.100000e+001 0.000000e+000
         vertex -1.776357e-015 -1.100000e+001 2.000000e+000
         vertex 2.984196e+000 -1.058747e+001 2.000000e+000
      endloop
   endfacet
   facet normal 0.000000e+000 -1.000000e+000 0.000000e+000
      outer loop
         vertex -9.797959e+000 -5.000000e+000 0.000000e+000
         vertex 9.797959e+000 -5.000000e+000 0.000000e+000
         vertex 9.797959e+000 -5.000000e+000 2.000000e+000
      endloop
   endfacet
   facet normal -0.000000e+000 -1.000000e+000 0.000000e+000
      outer loop
         vertex -9.797959e+000 -5.000000e+000 0.000000e+000
         vertex 9.797959e+000 -5.000000e+000 2.000000e+000
         vertex -9.797959e+000 -5.000000e+000 2.000000e+000
      endloop
   endfacet
   facet normal 5.773503e-001 -8.164966e-001 0.000000e+000
      outer loop
         vertex -9.899495e+000 5.000000e+000 2.000000e+000
         vertex -4.594283e-015 1.200000e+001 0.000000e+000
         vertex -4.594283e-015 1.200000e+001 2.000000e+000
      endloop
   endfacet
   facet normal 5.773503e-001 -8.164966e-001 0.000000e+000
      outer loop
         vertex -4.594283e-015 1.200000e+001 0.000000e+000
         vertex -9.899495e+000 5.000000e+000 2.000000e+000
         vertex -9.899495e+000 5.000000e+000 0.000000e+000
      endloop
   endfacet
   facet normal -5.773503e-001 -8.164966e-001 0.000000e+000
      outer loop
         vertex -4.594283e-015 1.200000e+001 0.000000e+000
         vertex 9.899495e+000 5.000000e+000 0.000000e+000
         vertex 9.899495e+000 5.000000e+000 2.000000e+000
      endloop
   endfacet
   facet normal -5.773503e-001 -8.164966e-001 0.000000e+000
      outer loop
         vertex -4.594283e-015 1.200000e+001 0.000000e+000
         vertex 9.899495e+000 5.000000e+000 2.000000e+000
         vertex -4.594283e-015 1.200000e+001 2.000000e+000
      endloop
   endfacet
   facet normal 0.000000e+000 1.000000e+000 0.000000e+000
      outer loop
         vertex 9.899495e+000 5.000000e+000 2.000000e+000
         vertex -9.899495e+000 5.000000e+000 0.000000e+000
         vertex -9.899495e+000 5.000000e+000 2.000000e+000
      endloop
   endfacet
   facet normal 0.000000e+000 1.000000e+000 0.000000e+000
      outer loop
         vertex -9.899495e+000 5.000000e+000 0.000000e+000
         vertex 9.899495e+000 5.000000e+000 2.000000e+000
         vertex 9.899495e+000 5.000000e+000 0.000000e+000
      endloop
   endfacet
   facet normal 0.000000e+000 0.000000e+000 1.000000e+000
      outer loop
         vertex -1.100000e+001 4.500000e+000 4.000000e+000
         vertex -1.100000e+001 3.600000e+000 4.000000e+000
         vertex 1.100000e+001 4.500000e+000 4.000000e+000
      endloop
   endfacet
   facet normal 0.000000e+000 0.000000e+000 1.000000e+000
      outer loop
         vertex 1.100000e+001 3.600000e+000 4.000000e+000
         vertex 1.100000e+001 4.500000e+000 4.000000e+000
         vertex -1.100000e+001 3.600000e+000 4.000000e+000
      endloop
   endfacet
   facet normal 0.000000e+000 0.000000e+000 1.000000e+000
      outer loop
         vertex 1.100000e+001 -4.500000e+000 4.000000e+000
         vertex 1.100000e+001 -3.600000e+000 4.000000e+000
         vertex -1.100000e+001 -4.500000e+000 4.000000e+000
      endloop
   endfacet
   facet normal 0.000000e+000 0.000000e+000 1.000000e+000
      outer loop
         vertex -1.100000e+001 -3.600000e+000 4.000000e+000
         vertex -1.100000e+001 -4.500000e+000 4.000000e+000
         vertex 1.100000e+001 -3.600000e+000 4.000000e+000
      endloop
   endfacet
   facet normal -0.000000e+000 -0.000000e+000 -1.000000e+000
      outer loop
         vertex 9.899495e+000 5.000000e+000 0.000000e+000
         vertex 1.359319e+001 3.350419e+000 0.000000e+000
         vertex 1.400000e+001 0.000000e+000 0.000000e+000
      endloop
   endfacet
   facet normal 0.000000e+000 -0.000000e+000 -1.000000e+000
      outer loop
         vertex 9.899495e+000 5.000000e+000 0.000000e+000
         vertex 1.047915e+001 9.283717e+000 0.000000e+000
         vertex 1.239638e+001 6.506124e+000 0.000000e+000
      endloop
   endfacet
   facet normal 0.000000e+000 -0.000000e+000 -1.000000e+000
      outer loop
         vertex -4.594283e-015 1.200000e+001 0.000000e+000
         vertex 4.964468e+000 1.309023e+001 0.000000e+000
         vertex 7.952907e+000 1.152177e+001 0.000000e+000
      endloop
   endfacet
   facet normal 0.000000e+000 0.000000e+000 -1.000000e+000
      outer loop
         vertex -4.594283e-015 1.200000e+001 0.000000e+000
         vertex -1.687513e+000 1.389792e+001 0.000000e+000
         vertex 1.687513e+000 1.389792e+001 0.000000e+000
      endloop
   endfacet
   facet normal 0.000000e+000 0.000000e+000 -1.000000e+000
      outer loop
         vertex -4.594283e-015 1.200000e+001 0.000000e+000
         vertex -7.952907e+000 1.152177e+001 0.000000e+000
         vertex -4.964468e+000 1.309023e+001 0.000000e+000
      endloop
   endfacet
   facet normal 0.000000e+000 0.000000e+000 -1.000000e+000
      outer loop
         vertex -9.899495e+000 5.000000e+000 0.000000e+000
         vertex -1.239638e+001 6.506124e+000 0.000000e+000
         vertex -1.047915e+001 9.283717e+000 0.000000e+000
      endloop
   endfacet
   facet normal 0.000000e+000 0.000000e+000 -1.000000e+000
      outer loop
         vertex -9.899495e+000 5.000000e+000 0.000000e+000
         vertex -1.400000e+001 1.414900e-014 0.000000e+000
         vertex -1.359319e+001 3.350419e+000 0.000000e+000
      endloop
   endfacet
   facet normal 0.000000e+000 0.000000e+000 -1.000000e+000
      outer loop
         vertex -9.797959e+000 -5.000000e+000 0.000000e+000
         vertex -1.239638e+001 -6.506124e+000 0.000000e+000
         vertex -1.359319e+001 -3.350419e+000 0.000000e+000
      endloop
   endfacet
   facet normal 0.000000e+000 0.000000e+000 -1.000000e+000
      outer loop
         vertex -8.074059e+000 -7.470581e+000 0.000000e+000
         vertex -7.952907e+000 -1.152177e+001 0.000000e+000
         vertex -1.047915e+001 -9.283717e+000 0.000000e+000
      endloop
   endfacet
   facet normal 0.000000e+000 0.000000e+000 -1.000000e+000
      outer loop
         vertex -2.984196e+000 -1.058747e+001 0.000000e+000
         vertex -1.687513e+000 -1.389792e+001 0.000000e+000
         vertex -4.964468e+000 -1.309023e+001 0.000000e+000
      endloop
   endfacet
   facet normal -0.000000e+000 0.000000e+000 -1.000000e+000
      outer loop
         vertex 2.984196e+000 -1.058747e+001 0.000000e+000
         vertex 4.964468e+000 -1.309023e+001 0.000000e+000
         vertex 1.687513e+000 -1.389792e+001 0.000000e+000
      endloop
   endfacet
   facet normal -0.000000e+000 0.000000e+000 -1.000000e+000
      outer loop
         vertex 8.074059e+000 -7.470581e+000 0.000000e+000
         vertex 1.047915e+001 -9.283717e+000 0.000000e+000
         vertex 7.952907e+000 -1.152177e+001 0.000000e+000
      endloop
   endfacet
   facet normal 0.000000e+000 0.000000e+000 -1.000000e+000
      outer loop
         vertex 9.797959e+000 -5.000000e+000 0.000000e+000
         vertex 1.359319e+001 -3.350419e+000 0.000000e+000
         vertex 1.239638e+001 -6.506124e+000 0.000000e+000
      endloop
   endfacet
   facet normal 0.000000e+000 0.000000e+000 -1.000000e+000
      outer loop
         vertex 7.952907e+000 1.152177e+001 0.000000e+000
         vertex 9.899495e+000 5.000000e+000 0.000000e+000
         vertex -4.594283e-015 1.200000e+001 0.000000e+000
      endloop
   endfacet
   facet normal 0.000000e+000 0.000000e+000 -1.000000e+000
      outer loop
         vertex -7.952907e+000 1.152177e+001 0.000000e+000
         vertex -4.594283e-015 1.200000e+001 0.000000e+000
         vertex -9.899495e+000 5.000000e+000 0.000000e+000
      endloop
   endfacet
   facet normal 0.000000e+000 0.000000e+000 -1.000000e+000
      outer loop
         vertex 1.047915e+001 -9.283717e+000 0.000000e+000
         vertex 8.074059e+000 -7.470581e+000 0.000000e+000
         vertex 9.797959e+000 -5.000000e+000 0.000000e+000
      endloop
   endfacet
   facet normal 0.000000e+000 0.000000e+000 -1.000000e+000
      outer loop
         vertex 4.964468e+000 -1.309023e+001 0.000000e+000
         vertex 2.984196e+000 -1.058747e+001 0.000000e+000
         vertex 5.744563e+000 -9.380832e+000 0.000000e+000
      endloop
   endfacet
   facet normal 0.000000e+000 0.000000e+000 -1.000000e+000
      outer loop
         vertex -1.687513e+000 -1.389792e+001 0.000000e+000
         vertex -2.984196e+000 -1.058747e+001 0.000000e+000
         vertex -1.776357e-015 -1.100000e+001 0.000000e+000
      endloop
   endfacet
   facet normal 0.000000e+000 0.000000e+000 -1.000000e+000
      outer loop
         vertex -7.952907e+000 -1.152177e+001 0.000000e+000
         vertex -8.074059e+000 -7.470581e+000 0.000000e+000
         vertex -5.744563e+000 -9.380832e+000 0.000000e+000
      endloop
   endfacet
   facet normal 0.000000e+000 -0.000000e+000 -1.000000e+000
      outer loop
         vertex 9.797959e+000 -5.000000e+000 0.000000e+000
         vertex 9.899495e+000 5.000000e+000 0.000000e+000
         vertex 1.400000e+001 0.000000e+000 0.000000e+000
      endloop
   endfacet
   facet normal 0.000000e+000 0.000000e+000 -1.000000e+000
      outer loop
         vertex 1.359319e+001 3.350419e+000 0.000000e+000
         vertex 9.899495e+000 5.000000e+000 0.000000e+000
         vertex 1.239638e+001 6.506124e+000 0.000000e+000
      endloop
   endfacet
   facet normal 0.000000e+000 -0.000000e+000 -1.000000e+000
      outer loop
         vertex -4.964468e+000 1.309023e+001 0.000000e+000
         vertex -1.687513e+000 1.389792e+001 0.000000e+000
         vertex -4.594283e-015 1.200000e+001 0.000000e+000
      endloop
   endfacet
   facet normal -0.000000e+000 0.000000e+000 -1.000000e+000
      outer loop
         vertex -1.239638e+001 6.506124e+000 0.000000e+000
         vertex -9.899495e+000 5.000000e+000 0.000000e+000
         vertex -1.359319e+001 3.350419e+000 0.000000e+000
      endloop
   endfacet
   facet normal -0.000000e+000 0.000000e+000 -1.000000e+000
      outer loop
         vertex -9.797959e+000 -5.000000e+000 0.000000e+000
         vertex -8.074059e+000 -7.470581e+000 0.000000e+000
         vertex -1.047915e+001 -9.283717e+000 0.000000e+000
      endloop
   endfacet
   facet normal 0.000000e+000 0.000000e+000 -1.000000e+000
      outer loop
         vertex 5.744563e+000 -9.380832e+000 0.000000e+000
         vertex 8.074059e+000 -7.470581e+000 0.000000e+000
         vertex 7.952907e+000 -1.152177e+001 0.000000e+000
      endloop
   endfacet
   facet normal 0.000000e+000 0.000000e+000 -1.000000e+000
      outer loop
         vertex 1.047915e+001 9.283717e+000 0.000000e+000
         vertex 9.899495e+000 5.000000e+000 0.000000e+000
         vertex 7.952907e+000 1.152177e+001 0.000000e+000
      endloop
   endfacet
   facet normal 0.000000e+000 0.000000e+000 -1.000000e+000
      outer loop
         vertex 1.687513e+000 -1.389792e+001 0.000000e+000
         vertex -1.687513e+000 -1.389792e+001 0.000000e+000
         vertex -1.776357e-015 -1.100000e+001 0.000000e+000
      endloop
   endfacet
   facet normal -0.000000e+000 0.000000e+000 -1.000000e+000
      outer loop
         vertex -9.899495e+000 5.000000e+000 0.000000e+000
         vertex 9.899495e+000 5.000000e+000 0.000000e+000
         vertex 9.797959e+000 -5.000000e+000 0.000000e+000
      endloop
   endfacet
   facet normal 0.000000e+000 0.000000e+000 -1.000000e+000
      outer loop
         vertex 2.984196e+000 -1.058747e+001 0.000000e+000
         vertex 1.687513e+000 -1.389792e+001 0.000000e+000
         vertex -1.776357e-015 -1.100000e+001 0.000000e+000
      endloop
   endfacet
   facet normal 0.000000e+000 -0.000000e+000 -1.000000e+000
      outer loop
         vertex -4.594283e-015 1.200000e+001 0.000000e+000
         vertex 1.687513e+000 1.389792e+001 0.000000e+000
         vertex 4.964468e+000 1.309023e+001 0.000000e+000
      endloop
   endfacet
   facet normal 0.000000e+000 0.000000e+000 -1.000000e+000
      outer loop
         vertex -9.797959e+000 -5.000000e+000 0.000000e+000
         vertex -1.359319e+001 -3.350419e+000 0.000000e+000
         vertex -1.400000e+001 1.414900e-014 0.000000e+000
      endloop
   endfacet
   facet normal 0.000000e+000 0.000000e+000 -1.000000e+000
      outer loop
         vertex -5.744563e+000 -9.380832e+000 0.000000e+000
         vertex -4.964468e+000 -1.309023e+001 0.000000e+000
         vertex -7.952907e+000 -1.152177e+001 0.000000e+000
      endloop
   endfacet
   facet normal -0.000000e+000 0.000000e+000 -1.000000e+000
      outer loop
         vertex 9.797959e+000 -5.000000e+000 0.000000e+000
         vertex 1.239638e+001 -6.506124e+000 0.000000e+000
         vertex 1.047915e+001 -9.283717e+000 0.000000e+000
      endloop
   endfacet
   facet normal 0.000000e+000 0.000000e+000 -1.000000e+000
      outer loop
         vertex -9.899495e+000 5.000000e+000 0.000000e+000
         vertex 9.797959e+000 -5.000000e+000 0.000000e+000
         vertex -9.797959e+000 -5.000000e+000 0.000000e+000
      endloop
   endfacet
   facet normal 0.000000e+000 0.000000e+000 -1.000000e+000
      outer loop
         vertex -7.952907e+000 1.152177e+001 0.000000e+000
         vertex -9.899495e+000 5.000000e+000 0.000000e+000
         vertex -1.047915e+001 9.283717e+000 0.000000e+000
      endloop
   endfacet
   facet normal -0.000000e+000 0.000000e+000 -1.000000e+000
      outer loop
         vertex -5.744563e+000 -9.380832e+000 0.000000e+000
         vertex -2.984196e+000 -1.058747e+001 0.000000e+000
         vertex -4.964468e+000 -1.309023e+001 0.000000e+000
      endloop
   endfacet
   facet normal 0.000000e+000 0.000000e+000 -1.000000e+000
      outer loop
         vertex 1.359319e+001 -3.350419e+000 0.000000e+000
         vertex 9.797959e+000 -5.000000e+000 0.000000e+000
         vertex 1.400000e+001 0.000000e+000 0.000000e+000
      endloop
   endfacet
   facet normal 0.000000e+000 -0.000000e+000 -1.000000e+000
      outer loop
         vertex -1.400000e+001 1.414900e-014 0.000000e+000
         vertex -9.899495e+000 5.000000e+000 0.000000e+000
         vertex -9.797959e+000 -5.000000e+000 0.000000e+000
      endloop
   endfacet
   facet normal 0.000000e+000 0.000000e+000 -1.000000e+000
      outer loop
         vertex -9.797959e+000 -5.000000e+000 0.000000e+000
         vertex -1.047915e+001 -9.283717e+000 0.000000e+000
         vertex -1.239638e+001 -6.506124e+000 0.000000e+000
      endloop
   endfacet
   facet normal 0.000000e+000 0.000000e+000 -1.000000e+000
      outer loop
         vertex 7.952907e+000 -1.152177e+001 0.000000e+000
         vertex 4.964468e+000 -1.309023e+001 0.000000e+000
         vertex 5.744563e+000 -9.380832e+000 0.000000e+000
      endloop
   endfacet
   facet normal 0.000000e+000 9.659258e-001 2.588190e-001
      outer loop
         vertex 1.100000e+001 -3.080385e+000 3.700000e+000
         vertex 1.100000e+001 -3.000000e+000 3.400000e+000
         vertex -1.100000e+001 -3.080385e+000 3.700000e+000
      endloop
   endfacet
   facet normal 0.000000e+000 9.659258e-001 2.588190e-001
      outer loop
         vertex -1.100000e+001 -3.000000e+000 3.400000e+000
         vertex -1.100000e+001 -3.080385e+000 3.700000e+000
         vertex 1.100000e+001 -3.000000e+000 3.400000e+000
      endloop
   endfacet
   facet normal 0.000000e+000 2.588190e-001 9.659258e-001
      outer loop
         vertex -1.100000e+001 -3.600000e+000 4.000000e+000
         vertex 1.100000e+001 -3.600000e+000 4.000000e+000
         vertex 1.100000e+001 -3.300000e+000 3.919615e+000
      endloop
   endfacet
   facet normal -0.000000e+000 7.071068e-001 7.071068e-001
      outer loop
         vertex 1.100000e+001 -3.080385e+000 3.700000e+000
         vertex -1.100000e+001 -3.080385e+000 3.700000e+000
         vertex -1.100000e+001 -3.300000e+000 3.919615e+000
      endloop
   endfacet
   facet normal 0.000000e+000 2.588190e-001 9.659258e-001
      outer loop
         vertex -1.100000e+001 -3.300000e+000 3.919615e+000
         vertex -1.100000e+001 -3.600000e+000 4.000000e+000
         vertex 1.100000e+001 -3.300000e+000 3.919615e+000
      endloop
   endfacet
   facet normal -0.000000e+000 7.071068e-001 7.071068e-001
      outer loop
         vertex 1.100000e+001 -3.080385e+000 3.700000e+000
         vertex -1.100000e+001 -3.300000e+000 3.919615e+000
         vertex 1.100000e+001 -3.300000e+000 3.919615e+000
      endloop
   endfacet
   facet normal 0.000000e+000 -9.659258e-001 2.588190e-001
      outer loop
         vertex -1.100000e+001 3.080385e+000 3.700000e+000
         vertex -1.100000e+001 3.000000e+000 3.400000e+000
         vertex 1.100000e+001 3.080385e+000 3.700000e+000
      endloop
   endfacet
   facet normal 0.000000e+000 -9.659258e-001 2.588190e-001
      outer loop
         vertex 1.100000e+001 3.000000e+000 3.400000e+000
         vertex 1.100000e+001 3.080385e+000 3.700000e+000
         vertex -1.100000e+001 3.000000e+000 3.400000e+000
      endloop
   endfacet
   facet normal 0.000000e+000 -2.588190e-001 9.659258e-001
      outer loop
         vertex 1.100000e+001 3.600000e+000 4.000000e+000
         vertex -1.100000e+001 3.600000e+000 4.000000e+000
         vertex -1.100000e+001 3.300000e+000 3.919615e+000
      endloop
   endfacet
   facet normal 0.000000e+000 -7.071068e-001 7.071068e-001
      outer loop
         vertex -1.100000e+001 3.080385e+000 3.700000e+000
         vertex 1.100000e+001 3.080385e+000 3.700000e+000
         vertex 1.100000e+001 3.300000e+000 3.919615e+000
      endloop
   endfacet
   facet normal 0.000000e+000 -2.588190e-001 9.659258e-001
      outer loop
         vertex 1.100000e+001 3.300000e+000 3.919615e+000
         vertex 1.100000e+001 3.600000e+000 4.000000e+000
         vertex -1.100000e+001 3.300000e+000 3.919615e+000
      endloop
   endfacet
   facet normal 0.000000e+000 -7.071068e-001 7.071068e-001
      outer loop
         vertex -1.100000e+001 3.080385e+000 3.700000e+000
         vertex 1.100000e+001 3.300000e+000 3.919615e+000
         vertex -1.100000e+001 3.300000e+000 3.919615e+000
      endloop
   endfacet
   facet normal 0.000000e+000 -7.071068e-001 7.071068e-001
      outer loop
         vertex -1.100000e+001 -4.633975e+000 2.366025e+000
         vertex -1.100000e+001 -5.000000e+000 2.000000e+000
         vertex -9.797959e+000 -5.000000e+000 2.000000e+000
      endloop
   endfacet
   facet normal 0.000000e+000 -7.071068e-001 7.071068e-001
      outer loop
         vertex 9.797959e+000 -5.000000e+000 2.000000e+000
         vertex 1.100000e+001 -5.000000e+000 2.000000e+000
         vertex 1.100000e+001 -4.633975e+000 2.366025e+000
      endloop
   endfacet
   facet normal 0.000000e+000 -9.659258e-001 2.588190e-001
      outer loop
         vertex 1.100000e+001 -4.500000e+000 2.866025e+000
         vertex -1.100000e+001 -4.500000e+000 2.866025e+000
         vertex -1.100000e+001 -4.633975e+000 2.366025e+000
      endloop
   endfacet
   facet normal 0.000000e+000 -7.071068e-001 7.071068e-001
      outer loop
         vertex 9.797959e+000 -5.000000e+000 2.000000e+000
         vertex 1.100000e+001 -4.633975e+000 2.366025e+000
         vertex -9.797959e+000 -5.000000e+000 2.000000e+000
      endloop
   endfacet
   facet normal 0.000000e+000 -9.659258e-001 2.588190e-001
      outer loop
         vertex 1.100000e+001 -4.633975e+000 2.366025e+000
         vertex 1.100000e+001 -4.500000e+000 2.866025e+000
         vertex -1.100000e+001 -4.633975e+000 2.366025e+000
      endloop
   endfacet
   facet normal 0.000000e+000 -7.071068e-001 7.071068e-001
      outer loop
         vertex -9.797959e+000 -5.000000e+000 2.000000e+000
         vertex 1.100000e+001 -4.633975e+000 2.366025e+000
         vertex -1.100000e+001 -4.633975e+000 2.366025e+000
      endloop
   endfacet
   facet normal 0.000000e+000 7.071068e-001 7.071068e-001
      outer loop
         vertex 1.100000e+001 4.633975e+000 2.366025e+000
         vertex 1.100000e+001 5.000000e+000 2.000000e+000
         vertex 9.899495e+000 5.000000e+000 2.000000e+000
      endloop
   endfacet
   facet normal -0.000000e+000 7.071068e-001 7.071068e-001
      outer loop
         vertex -9.899495e+000 5.000000e+000 2.000000e+000
         vertex -1.100000e+001 5.000000e+000 2.000000e+000
         vertex -1.100000e+001 4.633975e+000 2.366025e+000
      endloop
   endfacet
   facet normal 0.000000e+000 9.659258e-001 2.588190e-001
      outer loop
         vertex -1.100000e+001 4.500000e+000 2.866025e+000
         vertex 1.100000e+001 4.500000e+000 2.866025e+000
         vertex 1.100000e+001 4.633975e+000 2.366025e+000
      endloop
   endfacet
   facet normal -0.000000e+000 7.071068e-001 7.071068e-001
      outer loop
         vertex -9.899495e+000 5.000000e+000 2.000000e+000
         vertex -1.100000e+001 4.633975e+000 2.366025e+000
         vertex 1.100000e+001 4.633975e+000 2.366025e+000
      endloop
   endfacet
   facet normal 0.000000e+000 7.071068e-001 7.071068e-001
      outer loop
         vertex -9.899495e+000 5.000000e+000 2.000000e+000
         vertex 1.100000e+001 4.633975e+000 2.366025e+000
         vertex 9.899495e+000 5.000000e+000 2.000000e+000
      endloop
   endfacet
   facet normal 0.000000e+000 9.659258e-001 2.588190e-001
      outer loop
         vertex -1.100000e+001 4.633975e+000 2.366025e+000
         vertex -1.100000e+001 4.500000e+000 2.866025e+000
         vertex 1.100000e+001 4.633975e+000 2.366025e+000
      endloop
   endfacet
endsolid
